<?xml version="1.0" encoding="UTF-8"?><svg id="Layer_1" xmlns="http://www.w3.org/2000/svg" xmlns:xlink="http://www.w3.org/1999/xlink" viewBox="0 0 1348 124.95"><defs><style>.cls-1{fill:url(#linear-gradient);}.cls-2{fill:#f15822;}.cls-3{fill:#fff;}.cls-4{fill:none;stroke:#fff;stroke-miterlimit:10;stroke-width:2px;}.cls-5{fill:url(#linear-gradient-3);}.cls-6{fill:url(#linear-gradient-4);}.cls-7{fill:url(#linear-gradient-2);}</style><linearGradient id="linear-gradient" x1="65.25" y1="10.19" x2="136.84" y2="70.26" gradientUnits="userSpaceOnUse"><stop offset="0" stop-color="#07814b"/><stop offset=".26" stop-color="#0e954b"/><stop offset=".54" stop-color="#14a54b"/><stop offset=".76" stop-color="#16ab4b"/></linearGradient><linearGradient id="linear-gradient-2" x1="105.43" y1="59.86" x2="60.78" y2="137.2" xlink:href="#linear-gradient"/><linearGradient id="linear-gradient-3" x1="32.97" y1="123.14" x2="25.16" y2="33.78" xlink:href="#linear-gradient"/><linearGradient id="linear-gradient-4" x1="26.13" y1="65.6" x2="54.32" y2="-11.86" gradientUnits="userSpaceOnUse"><stop offset="0" stop-color="#07814b"/><stop offset=".22" stop-color="#0e954b"/><stop offset=".47" stop-color="#14a54b"/><stop offset=".66" stop-color="#16ab4b"/><stop offset=".73" stop-color="#1dac4d"/><stop offset=".84" stop-color="#31b153"/><stop offset=".96" stop-color="#50b95c"/></linearGradient></defs><g><path class="cls-1" d="M86.89,0h0c-7.02,3.35-15.87,8.12-25.48,14.76,10.93,7.56,19.42,15.14,25.49,21.21,18.8,18.8,29.78,37.96,35.96,50.93h0V35.99L86.89,0Z"/><path class="cls-7" d="M122.88,86.9c-3.34-7.02-8.11-15.87-14.75-25.48-7.56,10.93-15.14,19.42-21.21,25.5-18.8,18.8-37.96,29.78-50.93,35.96h0s50.9,0,50.9,0l35.99-35.99h0Z"/><path class="cls-5" d="M61.46,108.13c-10.93-7.56-19.42-15.14-25.5-21.21C17.16,68.12,6.18,48.96,0,35.98h0v50.91l35.98,35.98c7.03-3.34,15.87-8.11,25.48-14.75Z"/><path class="cls-6" d="M14.76,61.46c7.56-10.93,15.14-19.42,21.21-25.5C54.77,17.16,73.93,6.18,86.9,0h0s-50.9,0-50.9,0L0,35.99H0c3.34,7.02,8.11,15.86,14.75,25.47Z"/></g><g><g><path class="cls-3" d="M436.44,101.84l-.12-53.87-26.7,44.58h-6.73l-26.7-43.88v53.17h-14.39V20.57h12.42l32.27,53.87,31.69-53.87h12.42l.12,81.27h-14.28Z"/><path class="cls-3" d="M524.2,83.03h-40.63l-8.01,18.81h-15.56l36.57-81.27h14.86l36.68,81.27h-15.79l-8.13-18.81Zm-4.99-11.84l-15.32-35.52-15.21,35.52h30.53Z"/><path class="cls-3" d="M610.46,101.84l-16.6-23.8c-.7,.08-1.74,.12-3.14,.12h-18.34v23.68h-15.09V20.57h33.43c7.04,0,13.18,1.16,18.4,3.48,5.22,2.32,9.23,5.65,12.02,9.98,2.79,4.34,4.18,9.48,4.18,15.44s-1.49,11.38-4.47,15.79c-2.98,4.41-7.26,7.7-12.83,9.87l18.69,26.7h-16.25Zm-5.46-64.32c-3.41-2.79-8.4-4.18-14.98-4.18h-17.65v32.39h17.65c6.58,0,11.57-1.41,14.98-4.24,3.41-2.83,5.11-6.83,5.11-12.02s-1.7-9.17-5.11-11.96Z"/><path class="cls-3" d="M668.97,67.82l-12.89,13.24v20.78h-15.09V20.57h15.09V62.25l40.17-41.68h16.95l-34.13,36.34,36.22,44.93h-17.65l-28.67-34.02Z"/><path class="cls-3" d="M785.41,89.18v12.65h-60.95V20.57h59.32v12.65h-44.23v21.13h39.24v12.42h-39.24v22.4h45.86Z"/><path class="cls-3" d="M817.56,33.34h-26.93v-12.77h68.96v12.77h-26.93V101.84h-15.09V33.34Z"/><path class="cls-3" d="M876.02,100.33c-5.84-1.78-10.47-4.14-13.87-7.08l5.22-11.72c3.33,2.63,7.41,4.78,12.25,6.44,4.83,1.66,9.69,2.49,14.57,2.49,6.04,0,10.55-.97,13.53-2.9,2.98-1.93,4.47-4.49,4.47-7.66,0-2.32-.83-4.24-2.5-5.75-1.66-1.51-3.77-2.69-6.33-3.54-2.55-.85-6.04-1.82-10.45-2.9-6.19-1.47-11.2-2.94-15.03-4.41-3.83-1.47-7.12-3.77-9.87-6.91-2.75-3.13-4.12-7.37-4.12-12.71,0-4.49,1.22-8.57,3.66-12.25,2.44-3.68,6.11-6.6,11.03-8.76,4.91-2.17,10.93-3.25,18.05-3.25,4.95,0,9.83,.62,14.63,1.86,4.8,1.24,8.94,3.02,12.42,5.34l-4.76,11.73c-3.56-2.09-7.28-3.68-11.14-4.76-3.87-1.08-7.63-1.62-11.26-1.62-5.96,0-10.39,1.01-13.29,3.02-2.9,2.01-4.35,4.68-4.35,8.01,0,2.32,.83,4.22,2.5,5.69,1.66,1.47,3.77,2.63,6.33,3.48,2.55,.85,6.04,1.82,10.45,2.9,6.04,1.39,10.99,2.85,14.86,4.35,3.87,1.51,7.18,3.81,9.92,6.91,2.75,3.1,4.12,7.28,4.12,12.54,0,4.49-1.22,8.55-3.66,12.19-2.44,3.64-6.14,6.54-11.09,8.71-4.95,2.17-10.99,3.25-18.11,3.25-6.27,0-12.33-.89-18.17-2.67Z"/></g><g><path class="cls-3" d="M266.02,98.21c-6.73-3.62-12-8.6-15.81-14.94-3.81-6.35-5.71-13.48-5.71-21.41s1.9-15.06,5.71-21.4c3.81-6.35,9.08-11.33,15.81-14.94,6.73-3.62,14.29-5.42,22.67-5.42s15.93,1.81,22.62,5.42c6.69,3.62,11.96,8.6,15.81,14.94,3.84,6.35,5.77,13.48,5.77,21.4s-1.92,15.06-5.77,21.41c-3.85,6.35-9.12,11.33-15.81,14.94-6.69,3.62-14.23,5.42-22.62,5.42s-15.94-1.81-22.67-5.42Zm35.6-13.79c3.84-2.19,6.86-5.25,9.06-9.17,2.19-3.92,3.29-8.38,3.29-13.39s-1.1-9.46-3.29-13.38c-2.19-3.93-5.21-6.98-9.06-9.18-3.85-2.19-8.16-3.29-12.93-3.29s-9.08,1.1-12.92,3.29c-3.85,2.19-6.86,5.25-9.06,9.18-2.19,3.92-3.29,8.38-3.29,13.38s1.1,9.46,3.29,13.39c2.19,3.92,5.21,6.98,9.06,9.17,3.84,2.19,8.15,3.29,12.92,3.29s9.08-1.1,12.93-3.29Z"/><path class="cls-3" d="M199.33,60.31c8.52,2.56,15.18,6.36,20.51,10.33v13.64c-4.31,2.31-9.16,3.46-14.55,3.46-5.08,0-9.6-1.1-13.57-3.29-3.96-2.19-7.06-5.25-9.29-9.18-2.23-3.93-3.35-8.39-3.35-13.39s1.11-9.58,3.35-13.51c2.23-3.93,5.35-6.97,9.35-9.12,4-2.15,8.58-3.23,13.74-3.23,8.16,0,15.12,3.04,20.9,9.12l12.01-11.08c-3.92-4.54-8.77-8-14.55-10.39-5.77-2.38-12.2-3.58-19.28-3.58-8.47,0-16.09,1.79-22.86,5.37-6.77,3.58-12.06,8.54-15.87,14.89-3.81,6.35-5.71,13.53-5.71,21.53s1.9,15.18,5.71,21.53c3.81,6.35,9.06,11.31,15.76,14.89,6.7,3.58,14.24,5.37,22.63,5.37,5.85,0,11.66-.89,17.43-2.66,5.71-1.75,10.74-4.26,15.09-7.51V60.43l-.11-.12h-37.33Z"/></g></g><g><path class="cls-2" d="M1011.55,12.25v2.62h8.78v4.51h-8.67v25.72h-5.48V19.38h-5.13v-4.51h5.13v-2.68c0-3,.87-5.38,2.62-7.13,1.75-1.75,4.2-2.62,7.36-2.62,1.22,0,2.36,.15,3.42,.46,1.06,.3,1.98,.74,2.74,1.31l-1.65,4.16c-1.25-.95-2.66-1.43-4.22-1.43-3.27,0-4.9,1.77-4.9,5.3Zm18.62-4.22c-.7-.69-1.06-1.52-1.06-2.51s.35-1.83,1.06-2.54c.7-.7,1.59-1.06,2.65-1.06s1.95,.33,2.65,1c.7,.67,1.06,1.49,1.06,2.48s-.35,1.89-1.06,2.6c-.7,.7-1.59,1.05-2.65,1.05s-1.95-.34-2.65-1.03Zm-.08,6.84h5.48v30.23h-5.48V14.87Z"/><path class="cls-2" d="M1058.31,15.95c1.86-.91,4.13-1.37,6.79-1.37v5.31c-.3-.04-.72-.06-1.25-.06-2.97,0-5.3,.88-6.99,2.65-1.69,1.77-2.54,4.29-2.54,7.56v15.06h-5.48V14.87h5.25v5.08c.95-1.75,2.36-3.08,4.22-3.99Z"/><path class="cls-2" d="M1076.46,44.44c-2.28-.66-4.07-1.51-5.36-2.54l2.28-4.33c1.33,.95,2.95,1.71,4.85,2.28,1.9,.57,3.82,.85,5.76,.85,4.79,0,7.19-1.37,7.19-4.11,0-.91-.32-1.63-.97-2.17-.65-.53-1.45-.92-2.42-1.17-.97-.25-2.35-.52-4.14-.83-2.43-.38-4.42-.82-5.96-1.31-1.54-.49-2.86-1.33-3.96-2.51-1.11-1.18-1.65-2.83-1.65-4.96,0-2.74,1.14-4.93,3.42-6.59,2.28-1.65,5.34-2.48,9.18-2.48,2.01,0,4.03,.25,6.05,.74,2.01,.49,3.67,1.16,4.96,2l-2.34,4.33c-2.47-1.6-5.38-2.4-8.73-2.4-2.32,0-4.09,.38-5.3,1.14-1.22,.76-1.83,1.77-1.83,3.02,0,.99,.34,1.77,1.03,2.34,.69,.57,1.53,.99,2.54,1.25,1.01,.27,2.43,.57,4.25,.91,2.43,.42,4.4,.86,5.9,1.34,1.5,.47,2.78,1.28,3.85,2.42,1.06,1.14,1.6,2.74,1.6,4.79,0,2.74-1.17,4.92-3.51,6.53-2.34,1.62-5.52,2.42-9.55,2.42-2.47,0-4.85-.33-7.13-1Z"/><path class="cls-2" d="M1123.34,43.33c-.8,.69-1.79,1.21-2.97,1.57-1.18,.36-2.4,.54-3.65,.54-3.04,0-5.4-.82-7.07-2.45-1.67-1.63-2.51-3.97-2.51-7.02V19.38h-5.13v-4.51h5.13v-6.62h5.48v6.62h8.67v4.51h-8.67v16.37c0,1.63,.41,2.89,1.23,3.76,.82,.87,1.99,1.31,3.51,1.31,1.67,0,3.1-.47,4.28-1.43l1.71,3.94Z"/><path class="cls-2" d="M1155.93,43.44c-2.41-1.33-4.31-3.17-5.68-5.5-1.37-2.34-2.05-4.99-2.05-7.96s.69-5.62,2.05-7.96c1.37-2.34,3.26-4.16,5.68-5.48,2.41-1.31,5.16-1.97,8.24-1.97,2.74,0,5.18,.55,7.33,1.65,2.15,1.1,3.81,2.7,4.99,4.79l-4.16,2.68c-.95-1.44-2.13-2.53-3.54-3.25-1.41-.72-2.97-1.08-4.68-1.08-1.98,0-3.75,.44-5.33,1.31-1.58,.88-2.81,2.12-3.71,3.74-.89,1.62-1.34,3.47-1.34,5.56s.45,4,1.34,5.62c.89,1.62,2.13,2.86,3.71,3.74,1.58,.88,3.36,1.31,5.33,1.31,1.71,0,3.27-.36,4.68-1.08,1.41-.72,2.59-1.81,3.54-3.25l4.16,2.62c-1.18,2.09-2.84,3.7-4.99,4.82-2.15,1.12-4.59,1.68-7.33,1.68-3.08,0-5.83-.67-8.24-2Z"/><path class="cls-2" d="M1211.31,17.92c2.26,2.22,3.39,5.48,3.39,9.78v17.4h-5.48V28.33c0-2.93-.7-5.13-2.11-6.62-1.41-1.48-3.42-2.22-6.05-2.22-2.97,0-5.3,.86-7.02,2.6-1.71,1.73-2.56,4.21-2.56,7.44v15.57h-5.48V2.78h5.48V19.15c1.14-1.44,2.63-2.57,4.48-3.36,1.85-.8,3.91-1.2,6.19-1.2,3.84,0,6.89,1.11,9.15,3.34Z"/><path class="cls-2" d="M1232.73,43.44c-2.4-1.33-4.27-3.17-5.62-5.5-1.35-2.34-2.02-4.99-2.02-7.96s.67-5.62,2.02-7.96c1.35-2.34,3.22-4.16,5.62-5.48,2.4-1.31,5.1-1.97,8.1-1.97s5.69,.66,8.07,1.97c2.38,1.31,4.24,3.14,5.59,5.48,1.35,2.34,2.02,4.99,2.02,7.96s-.68,5.62-2.02,7.96c-1.35,2.34-3.21,4.17-5.59,5.5-2.38,1.33-5.07,2-8.07,2s-5.7-.67-8.1-2Zm13.32-4.13c1.54-.89,2.75-2.15,3.62-3.77,.87-1.62,1.31-3.47,1.31-5.56s-.44-3.94-1.31-5.56c-.87-1.62-2.08-2.86-3.62-3.74-1.54-.87-3.28-1.31-5.22-1.31s-3.68,.44-5.22,1.31c-1.54,.88-2.76,2.12-3.65,3.74-.89,1.62-1.34,3.47-1.34,5.56s.45,3.94,1.34,5.56c.89,1.62,2.11,2.87,3.65,3.77,1.54,.89,3.28,1.34,5.22,1.34s3.68-.45,5.22-1.34Z"/><path class="cls-2" d="M1267.04,8.03c-.7-.69-1.05-1.52-1.05-2.51s.35-1.83,1.05-2.54c.7-.7,1.59-1.06,2.65-1.06s1.95,.33,2.65,1c.7,.67,1.06,1.49,1.06,2.48s-.35,1.89-1.06,2.6c-.7,.7-1.59,1.05-2.65,1.05s-1.95-.34-2.65-1.03Zm-.08,6.84h5.48v30.23h-5.48V14.87Z"/><path class="cls-2" d="M1290.65,43.44c-2.41-1.33-4.31-3.17-5.68-5.5-1.37-2.34-2.05-4.99-2.05-7.96s.69-5.62,2.05-7.96c1.37-2.34,3.26-4.16,5.68-5.48,2.41-1.31,5.16-1.97,8.24-1.97,2.74,0,5.18,.55,7.33,1.65,2.15,1.1,3.81,2.7,4.99,4.79l-4.16,2.68c-.95-1.44-2.13-2.53-3.54-3.25-1.41-.72-2.97-1.08-4.68-1.08-1.98,0-3.75,.44-5.33,1.31-1.58,.88-2.81,2.12-3.71,3.74-.89,1.62-1.34,3.47-1.34,5.56s.45,4,1.34,5.62c.89,1.62,2.13,2.86,3.71,3.74,1.58,.88,3.36,1.31,5.33,1.31,1.71,0,3.27-.36,4.68-1.08,1.41-.72,2.59-1.81,3.54-3.25l4.16,2.62c-1.18,2.09-2.84,3.7-4.99,4.82-2.15,1.12-4.59,1.68-7.33,1.68-3.08,0-5.83-.67-8.24-2Z"/><path class="cls-2" d="M1347.89,31.81h-24.53c.34,2.66,1.51,4.8,3.51,6.42,2,1.62,4.48,2.42,7.44,2.42,3.61,0,6.52-1.22,8.73-3.65l3.02,3.54c-1.37,1.6-3.07,2.81-5.1,3.65-2.03,.84-4.31,1.25-6.81,1.25-3.19,0-6.03-.66-8.5-1.97-2.47-1.31-4.38-3.15-5.73-5.5-1.35-2.36-2.02-5.02-2.02-7.98s.66-5.57,1.97-7.93c1.31-2.36,3.12-4.19,5.42-5.5,2.3-1.31,4.9-1.97,7.79-1.97s5.46,.66,7.73,1.97c2.26,1.31,4.03,3.15,5.31,5.5,1.27,2.36,1.91,5.06,1.91,8.1,0,.42-.04,.97-.11,1.65Zm-21.42-10.21c-1.77,1.6-2.8,3.69-3.11,6.27h19.39c-.3-2.55-1.34-4.63-3.11-6.25-1.77-1.62-3.96-2.42-6.59-2.42s-4.82,.8-6.59,2.4Z"/><path class="cls-2" d="M1011.55,80.69v2.62h8.78v4.51h-8.67v25.72h-5.48v-25.72h-5.13v-4.51h5.13v-2.68c0-3,.87-5.38,2.62-7.13s4.2-2.62,7.36-2.62c1.22,0,2.36,.15,3.42,.46,1.06,.3,1.98,.74,2.74,1.31l-1.65,4.16c-1.25-.95-2.66-1.43-4.22-1.43-3.27,0-4.9,1.77-4.9,5.3Z"/><path class="cls-2" d="M1032.76,111.89c-2.4-1.33-4.27-3.17-5.62-5.5-1.35-2.34-2.02-4.99-2.02-7.96s.67-5.62,2.02-7.96c1.35-2.34,3.22-4.16,5.62-5.48,2.4-1.31,5.1-1.97,8.1-1.97s5.69,.66,8.07,1.97c2.38,1.31,4.24,3.14,5.59,5.48,1.35,2.34,2.02,4.99,2.02,7.96s-.68,5.62-2.02,7.96c-1.35,2.34-3.21,4.17-5.59,5.5-2.38,1.33-5.07,2-8.07,2s-5.7-.67-8.1-2Zm13.32-4.13c1.54-.89,2.75-2.15,3.62-3.77,.87-1.62,1.31-3.47,1.31-5.56s-.44-3.94-1.31-5.56c-.87-1.62-2.08-2.86-3.62-3.74-1.54-.87-3.28-1.31-5.22-1.31s-3.68,.44-5.22,1.31c-1.54,.88-2.76,2.12-3.65,3.74-.89,1.62-1.34,3.47-1.34,5.56s.45,3.94,1.34,5.56c.89,1.62,2.11,2.87,3.65,3.77,1.54,.89,3.28,1.34,5.22,1.34s3.68-.45,5.22-1.34Z"/><path class="cls-2" d="M1076.45,84.4c1.86-.91,4.13-1.37,6.79-1.37v5.31c-.3-.04-.72-.06-1.25-.06-2.97,0-5.3,.88-6.99,2.65-1.69,1.77-2.54,4.29-2.54,7.56v15.06h-5.48v-30.23h5.25v5.08c.95-1.75,2.36-3.08,4.22-3.99Z"/><path class="cls-2" d="M1128.41,111.77c-.8,.69-1.79,1.21-2.97,1.57-1.18,.36-2.4,.54-3.65,.54-3.04,0-5.4-.82-7.07-2.45-1.67-1.63-2.51-3.97-2.51-7.02v-16.6h-5.13v-4.51h5.13v-6.62h5.48v6.62h8.67v4.51h-8.67v16.37c0,1.63,.41,2.89,1.23,3.76,.82,.87,1.99,1.31,3.51,1.31,1.67,0,3.1-.47,4.28-1.43l1.71,3.94Z"/><path class="cls-2" d="M1147.34,84.4c1.86-.91,4.13-1.37,6.79-1.37v5.31c-.3-.04-.72-.06-1.25-.06-2.97,0-5.3,.88-6.99,2.65-1.69,1.77-2.54,4.29-2.54,7.56v15.06h-5.48v-30.23h5.25v5.08c.95-1.75,2.36-3.08,4.22-3.99Z"/><path class="cls-2" d="M1184.28,86.11c2.23,2.05,3.34,5.11,3.34,9.18v18.25h-5.19v-3.99c-.91,1.41-2.22,2.48-3.91,3.22-1.69,.74-3.7,1.11-6.02,1.11-3.38,0-6.09-.82-8.13-2.45-2.04-1.63-3.05-3.78-3.05-6.44s.97-4.8,2.91-6.42c1.94-1.62,5.02-2.42,9.24-2.42h8.67v-1.08c0-2.36-.69-4.16-2.05-5.42-1.37-1.25-3.38-1.88-6.05-1.88-1.79,0-3.54,.3-5.25,.88-1.71,.59-3.16,1.38-4.34,2.37l-2.28-4.11c1.56-1.25,3.42-2.22,5.59-2.88,2.17-.66,4.47-1,6.9-1,4.18,0,7.39,1.03,9.61,3.08Zm-5.45,22.16c1.52-.93,2.62-2.25,3.31-3.96v-4.22h-8.44c-4.64,0-6.96,1.56-6.96,4.68,0,1.52,.59,2.72,1.77,3.59,1.18,.87,2.82,1.31,4.91,1.31s3.9-.47,5.42-1.4Z"/><path class="cls-2" d="M1229.31,71.22v42.32h-5.25v-4.79c-1.22,1.67-2.76,2.95-4.62,3.82-1.86,.87-3.92,1.31-6.16,1.31-2.93,0-5.55-.65-7.87-1.94-2.32-1.29-4.14-3.11-5.45-5.45-1.31-2.34-1.97-5.03-1.97-8.07s.66-5.72,1.97-8.04c1.31-2.32,3.13-4.12,5.45-5.42,2.32-1.29,4.94-1.94,7.87-1.94,2.17,0,4.16,.41,5.99,1.23,1.83,.82,3.34,2.02,4.56,3.62v-16.65h5.48Zm-10.38,36.53c1.56-.89,2.78-2.15,3.65-3.77,.87-1.62,1.31-3.47,1.31-5.56s-.44-3.94-1.31-5.56c-.87-1.62-2.09-2.86-3.65-3.74-1.56-.87-3.29-1.31-5.19-1.31s-3.68,.44-5.22,1.31c-1.54,.88-2.76,2.12-3.65,3.74-.89,1.62-1.34,3.47-1.34,5.56s.45,3.94,1.34,5.56c.89,1.62,2.11,2.87,3.65,3.77,1.54,.89,3.28,1.34,5.22,1.34s3.63-.45,5.19-1.34Z"/><path class="cls-2" d="M1242.62,76.47c-.7-.69-1.05-1.52-1.05-2.51s.35-1.83,1.05-2.54c.7-.7,1.59-1.06,2.65-1.06s1.95,.33,2.65,1c.7,.67,1.06,1.49,1.06,2.48s-.35,1.89-1.06,2.6c-.7,.7-1.59,1.05-2.65,1.05s-1.95-.34-2.65-1.03Zm-.08,6.84h5.48v30.23h-5.48v-30.23Z"/><path class="cls-2" d="M1286.6,86.36c2.26,2.22,3.39,5.48,3.39,9.78v17.4h-5.48v-16.77c0-2.93-.7-5.13-2.11-6.62-1.41-1.48-3.42-2.22-6.05-2.22-2.97,0-5.3,.86-7.02,2.6-1.71,1.73-2.56,4.21-2.56,7.44v15.57h-5.48v-30.23h5.25v4.56c1.1-1.56,2.6-2.76,4.48-3.59,1.88-.84,4.02-1.26,6.42-1.26,3.84,0,6.89,1.11,9.15,3.34Z"/><path class="cls-2" d="M1332.08,83.31v26.12c0,5.28-1.31,9.19-3.94,11.72-2.62,2.53-6.54,3.79-11.75,3.79-2.85,0-5.57-.39-8.16-1.17-2.58-.78-4.68-1.89-6.27-3.34l2.62-4.22c1.41,1.22,3.14,2.18,5.22,2.88,2.07,.7,4.21,1.05,6.42,1.05,3.53,0,6.15-.84,7.84-2.51,1.69-1.67,2.54-4.22,2.54-7.64v-2.4c-1.29,1.56-2.88,2.73-4.76,3.51-1.88,.78-3.93,1.17-6.13,1.17-2.89,0-5.5-.62-7.84-1.85-2.34-1.24-4.17-2.97-5.5-5.19-1.33-2.22-2-4.76-2-7.61s.67-5.39,2-7.61c1.33-2.22,3.17-3.94,5.5-5.16,2.34-1.22,4.95-1.83,7.84-1.83,2.28,0,4.4,.42,6.36,1.26,1.96,.84,3.56,2.07,4.82,3.71v-4.68h5.19Zm-10.41,22.93c1.58-.84,2.82-2.01,3.71-3.51,.89-1.5,1.34-3.2,1.34-5.1,0-2.93-.97-5.29-2.91-7.1-1.94-1.81-4.43-2.71-7.47-2.71s-5.59,.9-7.53,2.71c-1.94,1.81-2.91,4.17-2.91,7.1,0,1.9,.45,3.6,1.34,5.1,.89,1.5,2.13,2.67,3.71,3.51,1.58,.84,3.38,1.25,5.39,1.25s3.75-.42,5.33-1.25Z"/></g><line class="cls-4" x1="963.43" y1=".43" x2="963.43" y2="121.88"/></svg>