<svg width="19" height="21" viewBox="0 0 19 21" fill="none" xmlns="http://www.w3.org/2000/svg">
<path d="M15.2354 10.7788C15.2256 9.11377 15.98 7.85889 17.5034 6.93359C16.6514 5.71289 15.3623 5.0415 13.6631 4.91211C12.0542 4.78516 10.2939 5.84961 9.64941 5.84961C8.96826 5.84961 7.41065 4.95606 6.18506 4.95606C3.65576 4.99512 0.967773 6.97266 0.967773 10.9961C0.967773 12.1851 1.18506 13.4131 1.61963 14.6777C2.20068 16.3428 4.29541 20.4224 6.48047 20.3564C7.62305 20.3296 8.43115 19.5459 9.91797 19.5459C11.3608 19.5459 12.1079 20.3564 13.3823 20.3564C15.5869 20.3247 17.4814 16.6162 18.0332 14.9463C15.0767 13.5522 15.2354 10.8643 15.2354 10.7788ZM12.6694 3.33252C13.9072 1.86279 13.7949 0.524902 13.7583 0.0439453C12.6646 0.107422 11.3999 0.788574 10.6797 1.62598C9.88623 2.52441 9.41992 3.63525 9.52002 4.8877C10.7017 4.97803 11.7808 4.37012 12.6694 3.33252Z" fill="#48CC7F"/>
</svg>
