<svg width="21" height="21" viewBox="0 0 21 21" fill="none" xmlns="http://www.w3.org/2000/svg">
<path d="M10.4999 2.16665C15.0947 2.16665 18.8333 5.90519 18.8333 10.5C18.8333 15.0948 15.0947 18.8333 10.4999 18.8333C5.90513 18.8333 2.16659 15.0948 2.16659 10.5C2.16659 5.90519 5.90513 2.16665 10.4999 2.16665ZM10.4999 0.083313C4.74679 0.083313 0.083252 4.74685 0.083252 10.5C0.083252 16.2531 4.74679 20.9166 10.4999 20.9166C16.253 20.9166 20.9166 16.2531 20.9166 10.5C20.9166 4.74685 16.253 0.083313 10.4999 0.083313ZM5.8645 11.5416C5.84471 11.7146 5.81242 11.8844 5.81242 12.0625C5.81242 13.3057 6.30628 14.498 7.18536 15.377C8.06443 16.2561 9.25672 16.75 10.4999 16.75C11.7431 16.75 12.9354 16.2561 13.8145 15.377C14.6936 14.498 15.1874 13.3057 15.1874 12.0625C15.1874 11.8844 15.1541 11.7146 15.1353 11.5416H5.8645ZM8.41658 8.41665V6.33331C8.41658 6.05705 8.30684 5.79209 8.11149 5.59674C7.91614 5.40139 7.65119 5.29165 7.37492 5.29165C7.09865 5.29165 6.8337 5.40139 6.63835 5.59674C6.443 5.79209 6.33325 6.05705 6.33325 6.33331V8.41665C6.33325 8.69291 6.443 8.95786 6.63835 9.15322C6.8337 9.34857 7.09865 9.45831 7.37492 9.45831C7.65119 9.45831 7.91614 9.34857 8.11149 9.15322C8.30684 8.95786 8.41658 8.69291 8.41658 8.41665ZM14.6666 8.41665V6.33331C14.6666 6.05705 14.5568 5.79209 14.3615 5.59674C14.1661 5.40139 13.9012 5.29165 13.6249 5.29165C13.3487 5.29165 13.0837 5.40139 12.8883 5.59674C12.693 5.79209 12.5833 6.05705 12.5833 6.33331V8.41665C12.5833 8.69291 12.693 8.95786 12.8883 9.15322C13.0837 9.34857 13.3487 9.45831 13.6249 9.45831C13.9012 9.45831 14.1661 9.34857 14.3615 9.15322C14.5568 8.95786 14.6666 8.69291 14.6666 8.41665Z" fill="white"/>
</svg>
