<svg width="22" height="22" viewBox="0 0 22 22" fill="none" xmlns="http://www.w3.org/2000/svg">
<path d="M20.6354 16.1354L21.8229 15.0938L20.7812 13.2917L19.2708 13.8021C18.9375 13.5208 18.5625 13.3021 18.1458 13.1458L17.8333 11.5833H15.75L15.4375 13.1354C15.0208 13.2917 14.6458 13.5104 14.3125 13.7917L12.8021 13.2812L11.7604 15.0833L12.9479 16.125C12.8646 16.6458 12.8646 16.9167 12.9479 17.4375L11.7604 18.4792L12.8021 20.2812L14.3125 19.7708C14.6458 20.0521 15.0208 20.2708 15.4375 20.4271L15.75 22H17.8333L18.1458 20.4479C18.5625 20.2917 18.9375 20.0729 19.2708 19.7917L20.7812 20.3021L21.8229 18.5L20.6354 17.4583C20.7188 16.9271 20.7188 16.6562 20.6354 16.1354ZM16.7917 18.875C15.6458 18.875 14.7083 17.9375 14.7083 16.7917C14.7083 15.6458 15.6458 14.7083 16.7917 14.7083C17.9375 14.7083 18.875 15.6458 18.875 16.7917C18.875 17.9375 17.9375 18.875 16.7917 18.875ZM8.45833 4.29167V9.92708L10.9167 12.3854L12 10.5208L10.5417 9.07292V4.29167H8.45833ZM18.875 9.5C18.875 7.0136 17.8873 4.62903 16.1291 2.87087C14.371 1.11272 11.9864 0.125 9.5 0.125C6.55208 0.125 3.92708 1.5 2.20833 3.625V1.16667H0.125V7.41667H6.375V5.33333H3.52083C4.19268 4.36999 5.08699 3.58293 6.12788 3.03891C7.16877 2.49489 8.32552 2.20997 9.5 2.20833C13.5208 2.20833 16.7917 5.47917 16.7917 9.5H18.875ZM8.3125 16.6979C5.19792 16.1875 2.73958 13.6771 2.29167 10.5417H0.1875C0.708333 15.2292 4.67708 18.875 9.5 18.875H9.57292L8.3125 16.6979Z" fill="white"/>
</svg>
