<svg width="21" height="21" viewBox="0 0 21 21" fill="none" xmlns="http://www.w3.org/2000/svg">
<path d="M19.6211 4.00244L17.021 1.40479C16.8376 1.22057 16.6196 1.0744 16.3795 0.974684C16.1394 0.874968 15.882 0.823668 15.6221 0.823731C15.0923 0.823731 14.5942 1.03125 14.2207 1.40479L11.4229 4.20264C11.2386 4.38605 11.0925 4.60405 10.9928 4.84413C10.893 5.0842 10.8417 5.34161 10.8418 5.60156C10.8418 6.13135 11.0493 6.62939 11.4229 7.00293L13.4688 9.04883C12.9899 10.1044 12.324 11.0647 11.5034 11.8833C10.6849 12.7059 9.72468 13.3742 8.66895 13.856L6.62305 11.8101C6.43964 11.6258 6.22163 11.4797 5.98156 11.38C5.74149 11.2802 5.48408 11.2289 5.22412 11.229C4.69434 11.229 4.19629 11.4365 3.82276 11.8101L1.02246 14.6055C0.838016 14.7892 0.691725 15.0076 0.592004 15.2481C0.492284 15.4886 0.441104 15.7465 0.441408 16.0068C0.441408 16.5366 0.648927 17.0347 1.02246 17.4082L3.61768 20.0034C4.21338 20.6016 5.03613 20.9409 5.88086 20.9409C6.05908 20.9409 6.22998 20.9263 6.39844 20.897C9.68946 20.355 12.9536 18.6045 15.5879 15.9727C18.2197 13.3433 19.9678 10.0815 20.5171 6.78076C20.6831 5.77246 20.3486 4.73486 19.6211 4.00244Z" fill="white"/>
</svg>
