<svg width="12" height="8" viewBox="0 0 12 8" fill="none" xmlns="http://www.w3.org/2000/svg">
<mask id="path-1-inside-1_272_2164" fill="white">
<path d="M1.27315 0.983903C0.382244 0.983903 -0.0639263 2.06104 0.566039 2.69101L5.18788 7.31285C5.57689 7.70186 6.20705 7.70359 6.59819 7.31673L11.2712 2.69489C11.9065 2.06653 11.4615 0.983902 10.568 0.983902L1.27315 0.983903Z"/>
</mask>
<path d="M5.18788 7.31285L6.39958 6.10116L5.18788 7.31285ZM0.566039 2.69101L1.77773 1.47931L0.566039 2.69101ZM-0.645657 3.90271L3.97619 8.52455L6.39958 6.10116L1.77773 1.47931L-0.645657 3.90271ZM7.80321 8.53507L12.4762 3.91323L10.0661 1.47655L5.39318 6.09839L7.80321 8.53507ZM10.568 -0.729694L1.27315 -0.729694V2.6975L10.568 2.6975V-0.729694ZM12.4762 3.91323C14.2001 2.20812 12.9927 -0.729694 10.568 -0.729694V2.6975C9.93031 2.6975 9.61279 1.92494 10.0661 1.47655L12.4762 3.91323ZM3.97619 8.52455C5.03179 9.58016 6.74181 9.58485 7.80321 8.53507L5.39318 6.09839C5.6723 5.82233 6.12198 5.82356 6.39958 6.10116L3.97619 8.52455ZM1.77773 1.47931C2.22728 1.92886 1.90888 2.6975 1.27315 2.6975V-0.729694C-1.1444 -0.729694 -2.35513 2.19323 -0.645657 3.90271L1.77773 1.47931Z" fill="white" mask="url(#path-1-inside-1_272_2164)"/>
</svg>
