<svg width="21" height="23" viewBox="0 0 21 23" fill="none" xmlns="http://www.w3.org/2000/svg">
<path d="M20.6559 12.3519V12.3822C20.6559 13.7963 20.3588 15.1407 19.8241 16.3567L19.8489 16.2934C18.2697 19.9717 14.6795 22.5 10.4977 22.5C6.31599 22.5 2.72575 19.9708 1.17227 16.3594L1.14659 16.2934C0.609867 15.0596 0.335071 13.7277 0.339586 12.3822V12.3189C0.339586 9.02213 1.92516 6.09675 4.3746 4.26173L4.40119 4.24339C4.57976 4.10471 4.78474 4.0039 5.0036 3.94714C5.22246 3.89037 5.45059 3.87884 5.67406 3.91326L5.66489 3.91234C6.12433 3.96644 6.51683 4.21313 6.76535 4.56803L6.76901 4.57261C6.90759 4.74786 7.00791 4.95021 7.06351 5.1666C7.1191 5.38299 7.12875 5.60863 7.09182 5.82897L7.09273 5.8198C7.06491 6.03972 6.99299 6.25176 6.88127 6.44321C6.76954 6.63467 6.62032 6.8016 6.44255 6.93401L6.43796 6.93677C5.59269 7.56818 4.90643 8.38813 4.43376 9.3314C3.96109 10.2747 3.71506 11.3152 3.71524 12.3703C3.7154 13.5261 4.01088 14.6627 4.57365 15.6722C5.13643 16.6818 5.94782 17.5308 6.93085 18.1387C7.91387 18.7466 9.03593 19.0933 10.1905 19.1458C11.3452 19.1983 12.494 18.9549 13.5282 18.4387C14.5623 17.9225 15.4474 17.1506 16.0995 16.1963C16.7515 15.242 17.1489 14.1369 17.254 12.9858C17.359 11.8348 17.1682 10.676 16.6997 9.61946C16.2311 8.56288 15.5004 7.64355 14.5768 6.94869L14.5593 6.93585C14.3818 6.80411 14.2325 6.63812 14.1202 6.44769C14.0079 6.25726 13.9349 6.04625 13.9055 5.82714L13.9046 5.81888C13.8691 5.59929 13.8799 5.37472 13.9361 5.15951C13.9923 4.94429 14.0927 4.74316 14.231 4.56895L14.2283 4.57261C14.3552 4.39102 14.5191 4.23837 14.7092 4.12472C14.8994 4.01107 15.1115 3.939 15.3315 3.91326L15.3388 3.91234C15.5607 3.87831 15.7871 3.89038 16.0041 3.94782C16.2211 4.00525 16.4238 4.10681 16.5998 4.24614L16.5961 4.24339C19.074 6.09675 20.6605 9.02397 20.6605 12.3217V12.3529V12.351L20.6559 12.3519ZM12.1915 2.19379V10.693C12.1915 11.142 12.0132 11.5726 11.6957 11.89C11.3782 12.2075 10.9476 12.3859 10.4987 12.3859C10.0497 12.3859 9.61909 12.2075 9.30161 11.89C8.98414 11.5726 8.80578 11.142 8.80578 10.693V10.6563V10.6581V2.17912C8.80578 1.71692 8.99836 1.29967 9.30741 1.00346L9.30832 1.00254C9.61003 0.69258 10.0319 0.5 10.4987 0.5C10.9654 0.5 11.3873 0.69258 11.689 1.00254C11.9989 1.29967 12.1915 1.71601 12.1915 2.1782V2.19379V2.19287V2.19379Z" fill="white"/>
</svg>
