<svg width="41" height="40" viewBox="0 0 41 40" fill="none" xmlns="http://www.w3.org/2000/svg">
<path d="M35.6158 32.4401C37.6353 30.0103 39.0399 27.1298 39.7108 24.0423C40.3817 20.9548 40.299 17.7511 39.4699 14.7023C38.6407 11.6535 37.0895 8.84921 34.9473 6.52671C32.8052 4.20422 30.1352 2.43182 27.1632 1.35946C24.1912 0.287094 21.0046 -0.0536894 17.8731 0.365936C14.7415 0.78556 11.7571 1.95325 9.17226 3.77022C6.58743 5.58719 4.47824 8 3.02312 10.8045C1.56799 13.609 0.80974 16.7228 0.812508 19.8823C0.81357 24.4754 2.43215 28.9214 5.38423 32.4401L5.3561 32.464C5.45454 32.5822 5.56704 32.6834 5.66829 32.8001C5.79485 32.945 5.93126 33.0814 6.06204 33.222C6.45579 33.6495 6.86079 34.0601 7.28548 34.4454C7.41485 34.5636 7.54844 34.6733 7.67923 34.7858C8.12923 35.1739 8.59188 35.5423 9.07141 35.8854C9.13329 35.9276 9.18954 35.9825 9.25141 36.0261V36.0092C12.545 38.3269 16.4741 39.5708 20.5014 39.5708C24.5288 39.5708 28.4578 38.3269 31.7514 36.0092V36.0261C31.8133 35.9825 31.8681 35.9276 31.9314 35.8854C32.4095 35.5409 32.8736 35.1739 33.3236 34.7858C33.4544 34.6733 33.588 34.5622 33.7174 34.4454C34.142 34.0587 34.547 33.6495 34.9408 33.222C35.0716 33.0814 35.2066 32.945 35.3345 32.8001C35.4344 32.6834 35.5483 32.5822 35.6467 32.4626L35.6158 32.4401ZM20.5 8.63232C21.7516 8.63232 22.9751 9.00346 24.0157 9.6988C25.0564 10.3941 25.8675 11.3825 26.3464 12.5388C26.8254 13.6951 26.9507 14.9675 26.7065 16.195C26.4624 17.4225 25.8597 18.5501 24.9747 19.4351C24.0897 20.3201 22.9621 20.9228 21.7346 21.167C20.507 21.4112 19.2347 21.2858 18.0783 20.8069C16.922 20.3279 15.9337 19.5168 15.2384 18.4762C14.543 17.4355 14.1719 16.212 14.1719 14.9604C14.1719 13.2821 14.8386 11.6725 16.0253 10.4858C17.2121 9.29904 18.8217 8.63232 20.5 8.63232V8.63232ZM9.25985 32.4401C9.28425 30.5937 10.0346 28.8311 11.3486 27.5336C12.6627 26.2362 14.4346 25.5083 16.2813 25.5073H24.7188C26.5654 25.5083 28.3374 26.2362 29.6514 27.5336C30.9654 28.8311 31.7158 30.5937 31.7402 32.4401C28.656 35.2194 24.6516 36.7574 20.5 36.7574C16.3484 36.7574 12.344 35.2194 9.25985 32.4401V32.4401Z" fill="white"/>
</svg>
