<svg width="26" height="25" viewBox="0 0 26 25" fill="none" xmlns="http://www.w3.org/2000/svg">
<path fill-rule="evenodd" clip-rule="evenodd" d="M0.578125 7.96405C0.578125 3.69358 4.04037 0.231445 8.31151 0.231445C12.5821 0.231445 16.0442 3.69358 16.0442 7.96405C16.0442 12.2353 12.5821 15.6974 8.31151 15.6974C4.04037 15.6974 0.578125 12.2353 0.578125 7.96405ZM7.18103 2.29221H9.26804L6.4696 8.41093H8.84122L9.12565 4.90097L10.5962 4.47408V8.45836H11.6397V10.0711H10.5962V12.6324L8.69882 13.0118V10.1659H4.33512V8.6481L7.18103 2.29221Z" fill="#091F2C"/>
<path d="M17.8452 8.64355C13.5741 8.64355 10.1118 12.1057 10.1118 16.3762C10.1118 20.6474 13.5741 24.1095 17.8452 24.1095C22.1158 24.1095 25.5779 20.6474 25.5779 16.3762C25.5779 12.1057 22.1158 8.64355 17.8452 8.64355ZM20.9155 17.8328C20.5184 22.6925 14.5686 21.4034 14.5686 21.4034V19.9153C14.6464 19.9228 16.1456 20.3894 17.345 19.9153C17.5551 19.8331 18.6318 19.3754 18.833 18.3286C18.9325 17.8104 18.8218 17.2009 18.4577 16.8129C17.5088 15.8041 15.1638 16.7426 15.1638 16.7426L15.4613 11.0895H20.5184L20.3696 12.7256H17.2957L17.0974 14.8081C21.3621 14.6099 20.9155 17.8328 20.9155 17.8328Z" fill="#091F2C"/>
</svg>
