<svg width="25" height="25" viewBox="0 0 25 25" fill="none" xmlns="http://www.w3.org/2000/svg">
<path d="M12.5304 7.53673C10.8462 7.53673 9.47632 5.88687 9.47632 3.85919C9.47632 1.8315 10.8462 0.181641 12.5304 0.181641C14.2142 0.181641 15.585 1.8315 15.585 3.85919C15.585 5.88687 14.2142 7.53673 12.5304 7.53673ZM12.5304 1.17902C11.3959 1.17902 10.4732 2.38129 10.4732 3.85919C10.4732 5.33708 11.3959 6.53935 12.5304 6.53935C13.6644 6.53935 14.5876 5.33708 14.5876 3.85919C14.5876 2.38129 13.6644 1.17902 12.5304 1.17902Z" fill="#48CC7F"/>
<path d="M3.01942 22.4544C1.85744 22.4544 0.808493 21.9301 0.302874 20.972C-0.0876783 20.2321 -0.100958 19.3576 0.265569 18.5086C0.616274 17.6974 1.27751 17.0036 2.12902 16.5541C3.92136 15.6078 6.02073 16.049 6.80689 17.5382C7.59296 19.0274 6.77408 21.0094 4.98075 21.9562C4.34154 22.2937 3.66305 22.4544 3.01942 22.4544ZM4.7478 21.515H4.75272H4.7478ZM4.1027 17.0479C3.61536 17.0479 3.0916 17.1736 2.59443 17.436C1.94392 17.7794 1.44171 18.3012 1.18092 18.9041C0.936684 19.4701 0.937671 20.039 1.18584 20.5063C1.71509 21.5091 3.20811 21.7636 4.51606 21.0742C5.82292 20.3844 6.45578 19.0068 5.92609 18.0035C5.59789 17.3824 4.89928 17.0479 4.10378 17.0479H4.1027Z" fill="#48CC7F"/>
<path d="M22.0592 22.487C21.3344 22.487 20.5655 22.2757 19.8644 21.8379C18.1443 20.7634 17.4707 18.7279 18.3625 17.2996C18.8056 16.5896 19.5554 16.1381 20.4736 16.0285C21.3487 15.9229 22.2828 16.1464 23.0998 16.6564H23.0993C23.9163 17.1659 24.5261 17.9064 24.817 18.7406C25.121 19.6137 25.0444 20.4853 24.6018 21.1948C24.073 22.0413 23.1126 22.487 22.0592 22.487ZM20.904 17.0004C20.799 17.0004 20.6947 17.0063 20.5916 17.019C19.9799 17.0922 19.4886 17.3792 19.209 17.8278C18.6082 18.7893 19.1392 20.2092 20.393 20.9919C21.645 21.7745 23.1553 21.6291 23.7552 20.6666C24.0358 20.2185 24.0779 19.651 23.8751 19.0693C23.6583 18.4488 23.1961 17.8921 22.5716 17.5025C22.0463 17.1743 21.4647 17.0004 20.9045 17.0004L20.904 17.0004Z" fill="#48CC7F"/>
<path d="M23.8957 17.9934L22.9302 17.7423L23.056 17.2593C23.5591 15.3275 23.4667 13.799 22.7813 12.7166C22.0375 11.5413 20.8121 11.2972 20.7999 11.2947L20.3125 11.2028L20.4893 10.2266L20.9778 10.3135C21.0446 10.3258 22.6257 10.624 23.6117 12.1638C24.4616 13.4909 24.5992 15.2896 24.0209 17.5109L23.8957 17.9934Z" fill="#48CC7F"/>
<path d="M5.13717 8.94864L4.96468 8.48483C4.94551 8.43324 4.50129 7.20051 5.20098 5.75701C5.89085 4.33365 7.41094 3.23456 9.71824 2.48972L10.1928 2.33691L10.4989 3.28566L10.0242 3.43895C7.99955 4.09241 6.68178 5.01118 6.10889 6.16972C5.58711 7.22557 5.88782 8.10405 5.90114 8.14139L6.06619 8.60766L5.13717 8.94864Z" fill="#48CC7F"/>
<path d="M8.25295 24.7672C6.93626 24.7672 5.51969 24.0612 4.03497 22.6619L3.67188 22.3194L4.35584 21.5938L4.71893 21.9357C6.16042 23.2942 7.47327 23.902 8.60921 23.7457C9.83894 23.5762 10.4821 22.5282 10.4885 22.5174L10.744 22.0924L11.5984 22.597L11.3473 23.025C11.312 23.0844 10.4698 24.4876 8.76298 24.7313C8.59495 24.7554 8.42447 24.7672 8.25295 24.7672Z" fill="#48CC7F"/>
<path d="M11.0303 8.12971C10.9393 8.07075 10.8333 8.0344 10.7178 8.04471C6.31892 8.45448 3.32636 9.81986 1.82336 12.1035C0.141024 14.6594 0.99404 17.3793 1.03084 17.4938C1.09972 17.7041 1.29521 17.8382 1.50501 17.8382C1.55566 17.8382 1.60717 17.8304 1.65783 17.8142C1.91965 17.7301 2.06361 17.4491 1.98014 17.1872C1.97277 17.1637 1.2411 14.7891 2.66446 12.64C3.77436 10.9637 5.86695 9.84443 8.89103 9.29857C9.50219 8.76303 10.2284 8.35916 11.0303 8.12971Z" fill="#48CC7F"/>
<path d="M16.1 9.17964C16.5962 9.58793 17.0163 10.0832 17.3479 10.6374C17.3326 9.89501 17.175 8.50702 16.2813 7.57498L15.9364 7.21484L15.217 7.90515L15.5619 8.2648C15.8115 8.52569 15.9815 8.848 16.1 9.17964Z" fill="#48CC7F"/>
<path d="M19.4002 5.42109C18.0024 2.9915 15.3561 2.65495 15.2441 2.64168C14.9696 2.6068 14.7244 2.8048 14.6919 3.07749C14.6589 3.35017 14.8536 3.59829 15.1267 3.63219C15.1493 3.63465 17.4025 3.93435 18.5424 5.92961C19.5766 7.74062 19.4346 10.3608 18.1292 13.723C18.1071 14.2467 18.0162 14.7528 17.8589 15.2303C17.8997 15.2687 17.9445 15.3045 17.9995 15.3281C18.0638 15.3566 18.1311 15.3694 18.1975 15.3694C18.3901 15.3694 18.5739 15.2574 18.6554 15.0697C20.4536 10.9342 20.7037 7.68756 19.4002 5.42109V5.42109Z" fill="#48CC7F"/>
<path d="M15.9539 19.4205C15.1487 19.5816 14.2947 19.2338 13.7493 18.9375C13.3661 19.021 12.9696 19.0677 12.5613 19.0677C12.435 19.0677 12.3117 19.0569 12.1879 19.0485L12.1746 19.0657L12.5691 19.3694C12.6343 19.4195 14.0037 20.4577 15.5351 20.4577C15.7381 20.4577 15.9439 20.4395 16.1498 20.3982L16.6387 20.3004L16.4432 19.3222L15.9538 19.4205H15.9539Z" fill="#48CC7F"/>
<path d="M21.1778 21.5895C20.9694 21.4092 20.6545 21.4318 20.4746 21.6406C20.4589 21.6583 18.905 23.4162 16.4945 23.2703C14.2639 23.1377 12.0096 21.4711 9.78946 18.3237C9.47688 18.1439 9.18405 17.935 8.91334 17.7002C8.87207 17.714 8.82986 17.7253 8.79159 17.7508C8.56356 17.9051 8.50307 18.2151 8.65784 18.4431C11.1597 22.1486 13.7765 24.1075 16.4355 24.2657C16.552 24.2731 16.6674 24.2761 16.7805 24.2761C19.4812 24.2761 21.1556 22.3766 21.2289 22.2926C21.4092 22.0843 21.386 21.7693 21.1778 21.5895Z" fill="#48CC7F"/>
<path d="M7.3407 11.5415V11.541C6.70399 11.9036 5.5322 12.7172 5.13958 13.9696L4.99072 14.4452L5.94242 14.7435L6.09128 14.2674C6.25396 13.748 6.62484 13.3181 7.00807 12.988C7.05376 12.4829 7.16977 11.9989 7.3407 11.5415V11.5415Z" fill="#48CC7F"/>
<path d="M12.5617 8.4082C9.75536 8.4082 7.48047 10.683 7.48047 13.489C7.48047 16.2954 9.75536 18.5702 12.5617 18.5702C15.3678 18.5702 17.6425 16.2954 17.6425 13.489C17.6425 10.683 15.3678 8.4082 12.5617 8.4082ZM14.5791 14.4461C14.3182 17.6392 10.4088 16.7921 10.4088 16.7921V15.8144C10.4599 15.8193 11.445 16.1259 12.2331 15.8144C12.3711 15.7603 13.0786 15.4597 13.2108 14.7718C13.2761 14.4313 13.2035 14.0309 12.9642 13.7759C12.3407 13.1131 10.7999 13.7297 10.7999 13.7297L10.9954 10.0153H14.3182L14.2204 11.0903H12.2007L12.0704 12.4587C14.8725 12.3285 14.5791 14.4461 14.5791 14.4461Z" fill="#48CC7F"/>
</svg>
