<svg width="12" height="8" viewBox="0 0 12 8" fill="none" xmlns="http://www.w3.org/2000/svg">
<path d="M0.973552 2.08515C0.942473 2.05407 0.934396 2.02974 0.931366 2.01224C0.927523 1.99006 0.929513 1.96047 0.942511 1.92909C0.955511 1.89771 0.97503 1.87537 0.993432 1.8624C1.00795 1.85217 1.03086 1.84069 1.07481 1.84069L10.3696 1.84069C10.4138 1.84069 10.4367 1.85225 10.4512 1.86247C10.4696 1.87547 10.4891 1.8979 10.5021 1.92945C10.515 1.961 10.5169 1.99069 10.513 2.01286C10.5099 2.03029 10.5017 2.05463 10.4703 2.0857L5.79735 6.70754C5.74134 6.76294 5.6511 6.76269 5.5954 6.70699L0.973552 2.08515Z" stroke="#091F2C" stroke-width="1.7136" stroke-linecap="round" stroke-linejoin="round"/>
</svg>
