<svg width="25" height="18" viewBox="0 0 25 18" fill="none" xmlns="http://www.w3.org/2000/svg">
<path d="M24.8796 6.2932C23.9298 2.05391 17.6188 -0.136019 10.781 1.39575C3.94326 2.92751 -0.829387 7.60689 0.120413 11.8396C1.07021 16.0723 7.38119 18.2649 14.219 16.7331C21.0567 15.2013 25.8294 10.5246 24.8796 6.2932ZM23.3307 4.15844C23.4316 4.15818 23.5303 4.18786 23.6143 4.24371C23.6983 4.29956 23.7638 4.37907 23.8026 4.47219C23.8414 4.5653 23.8517 4.66783 23.8321 4.76679C23.8126 4.86575 23.7642 4.9567 23.6929 5.02811C23.6217 5.09953 23.5309 5.1482 23.432 5.16798C23.3331 5.18775 23.2305 5.17773 23.1373 5.13919C23.0441 5.10065 22.9644 5.03532 22.9083 4.95147C22.8523 4.86762 22.8223 4.76902 22.8223 4.66816C22.8223 4.5332 22.8759 4.40375 22.9712 4.3082C23.0665 4.21265 23.1958 4.15879 23.3307 4.15844M9.88903 1.71497C9.99001 1.71498 10.0887 1.74497 10.1726 1.80116C10.2565 1.85734 10.3219 1.93718 10.3603 2.03055C10.3988 2.12392 10.4086 2.22661 10.3886 2.32559C10.3687 2.42457 10.3197 2.51538 10.248 2.58651C10.1764 2.65763 10.0852 2.70586 9.98604 2.72508C9.8869 2.7443 9.7843 2.73364 9.69123 2.69446C9.59816 2.65528 9.51883 2.58933 9.4633 2.50499C9.40777 2.42065 9.37854 2.32172 9.37932 2.22075C9.37932 2.15387 9.39252 2.08765 9.41815 2.02589C9.44378 1.96412 9.48134 1.90802 9.52869 1.86079C9.57604 1.81356 9.63224 1.77614 9.69408 1.75067C9.75591 1.7252 9.82216 1.71217 9.88903 1.71235M1.74414 13.9297C1.64333 13.9297 1.54478 13.8998 1.46096 13.8438C1.37713 13.7878 1.3118 13.7082 1.27322 13.615C1.23465 13.5219 1.22455 13.4194 1.24422 13.3205C1.26389 13.2217 1.31243 13.1308 1.38372 13.0596C1.455 12.9883 1.54582 12.9397 1.6447 12.9201C1.74357 12.9004 1.84606 12.9105 1.9392 12.9491C2.03233 12.9876 2.11194 13.053 2.16795 13.1368C2.22396 13.2206 2.25385 13.3192 2.25385 13.42C2.25385 13.5552 2.20015 13.6848 2.10456 13.7804C2.00897 13.876 1.87932 13.9297 1.74414 13.9297M15.1872 16.3732C15.0862 16.3734 14.9875 16.3437 14.9035 16.2878C14.8195 16.2319 14.7539 16.1523 14.7152 16.0591C14.6764 15.9659 14.6662 15.8633 14.6859 15.7643C14.7055 15.6653 14.7541 15.5744 14.8254 15.503C14.8968 15.4317 14.9877 15.3831 15.0867 15.3635C15.1857 15.3438 15.2883 15.354 15.3815 15.3928C15.4747 15.4315 15.5543 15.4971 15.6102 15.5811C15.6661 15.6651 15.6958 15.7638 15.6956 15.8648C15.6952 15.9995 15.6415 16.1286 15.5463 16.2239C15.451 16.3191 15.3219 16.3728 15.1872 16.3732M13.1365 15.5166C6.63764 16.1577 1.08335 13.7891 0.73128 10.2251C0.37921 6.66103 5.36336 3.25331 11.8635 2.61485C18.3637 1.9764 23.9166 4.34236 24.2687 7.9051C24.6208 11.4678 19.6353 14.8782 13.1365 15.5245" fill="#48CC7F"/>
<path d="M5.27139 6.74887V8.82844H4.69599V6.74887H3.96558V6.25098H6.0018V6.74887H5.27139Z" fill="#48CC7F"/>
<path d="M8.40717 7.10619C8.40717 7.51869 8.24295 7.78537 7.91716 7.90623L8.574 8.82581H7.86067L7.2879 8.00082H6.89379V8.82844H6.31445V6.25098H7.29184C7.69295 6.25098 7.9789 6.31841 8.14968 6.45329C8.32046 6.58816 8.40629 6.80579 8.40717 7.10619ZM7.71354 7.41228C7.75202 7.37198 7.78151 7.32398 7.80008 7.27145C7.81865 7.21891 7.82587 7.16303 7.82126 7.1075C7.82819 7.05372 7.82147 6.99906 7.80173 6.94855C7.78199 6.89804 7.74985 6.85332 7.70828 6.81849C7.58946 6.75664 7.45554 6.72977 7.32206 6.74098H6.88985V7.50424H7.31023C7.45082 7.52078 7.59281 7.4883 7.71222 7.41228H7.71354Z" fill="#48CC7F"/>
<path d="M10.8953 8.82844L10.6549 8.27144H9.575L9.33459 8.82844H8.72241L9.83642 6.25098H10.3934L11.5074 8.82844H10.8953ZM10.1149 7.01817L9.79044 7.76566H10.4368L10.1149 7.01817Z" fill="#48CC7F"/>
<path d="M13.6619 6.58728C13.7873 6.70815 13.8852 6.85461 13.9489 7.0167C14.0126 7.17878 14.0406 7.35268 14.0311 7.52657C14.039 7.70205 14.0102 7.87724 13.9466 8.04099C13.8831 8.20474 13.7861 8.35347 13.6619 8.47769C13.4229 8.71152 13.0563 8.82844 12.565 8.82844H11.6914V6.25098H12.6031C13.0603 6.25098 13.4132 6.36308 13.6619 6.58728ZM13.2403 8.12036C13.3143 8.04408 13.3715 7.95309 13.4082 7.85329C13.4448 7.75349 13.4601 7.64711 13.4531 7.54102C13.4597 7.43418 13.4443 7.32711 13.4077 7.22652C13.371 7.12593 13.314 7.03398 13.2403 6.95643C13.0565 6.80491 12.8206 6.73177 12.5834 6.75281H12.2629V8.32004H12.6281C12.8486 8.33439 13.0661 8.26283 13.235 8.12036H13.2403Z" fill="#48CC7F"/>
<path d="M14.4646 6.25098H15.04V8.82844H14.4646V6.25098Z" fill="#48CC7F"/>
<path d="M17.4218 6.25098H17.9972V8.82844H17.4218L16.1948 7.2126V8.82844H15.6194V6.25098H16.158L17.4218 7.91017V6.25098Z" fill="#48CC7F"/>
<path d="M20.174 7.51645H20.756V8.43603C20.6207 8.58044 20.4555 8.69349 20.2719 8.76725C20.0883 8.841 19.8908 8.87368 19.6932 8.86298C19.5171 8.86748 19.342 8.83653 19.1782 8.77199C19.0143 8.70744 18.8651 8.61062 18.7394 8.48727C18.613 8.36422 18.5136 8.21626 18.4473 8.05277C18.381 7.88927 18.3495 7.7138 18.3545 7.53747C18.3502 7.35942 18.383 7.18243 18.4509 7.01777C18.5187 6.85311 18.6201 6.70439 18.7486 6.5811C18.8726 6.4567 19.0203 6.3586 19.1831 6.29269C19.3459 6.22677 19.5202 6.1944 19.6958 6.1975C20.0502 6.19104 20.3938 6.31921 20.6574 6.55614L20.3619 6.98834C20.268 6.90153 20.1601 6.83134 20.0426 6.78078C19.9421 6.74184 19.8351 6.72223 19.7273 6.72298C19.6248 6.72079 19.5229 6.73946 19.4279 6.77785C19.3328 6.81624 19.2465 6.87355 19.1743 6.9463C19.0984 7.02369 19.0393 7.11589 19.0006 7.21715C18.962 7.31842 18.9446 7.42656 18.9496 7.53484C18.9448 7.64172 18.9613 7.7485 18.9983 7.84889C19.0353 7.94928 19.092 8.04127 19.1651 8.11943C19.2312 8.18945 19.3111 8.24507 19.3997 8.28282C19.4883 8.32057 19.5837 8.33963 19.68 8.33882C19.8533 8.34519 20.0252 8.30529 20.1779 8.22321L20.174 7.51645Z" fill="#48CC7F"/>
<path d="M5.36335 11.5651C5.4973 11.5678 5.62999 11.5387 5.75055 11.4802C5.87111 11.4218 5.97612 11.3356 6.05698 11.2288L6.42481 11.6098C6.30309 11.7542 6.15319 11.8724 5.98428 11.957C5.81536 12.0416 5.63097 12.0909 5.44236 12.1018C5.25376 12.1128 5.06491 12.0851 4.88734 12.0206C4.70977 11.9561 4.54722 11.8561 4.40961 11.7267C4.28323 11.6039 4.18376 11.4562 4.1175 11.2929C4.05124 11.1296 4.01964 10.9543 4.02469 10.7782C4.0205 10.6 4.05337 10.4228 4.12121 10.258C4.18905 10.0931 4.29039 9.94416 4.4188 9.82052C4.54459 9.69494 4.69456 9.59619 4.85962 9.53025C5.02469 9.46432 5.20142 9.43256 5.37911 9.43692C5.58012 9.43457 5.77916 9.47669 5.96199 9.56027C6.14481 9.64384 6.30689 9.76681 6.43663 9.92036L6.08194 10.3263C6.00373 10.2202 5.90156 10.1341 5.78377 10.075C5.66597 10.0158 5.53587 9.98536 5.40407 9.98604C5.19815 9.98165 4.99869 10.058 4.84838 10.1989C4.77104 10.2718 4.71043 10.3607 4.67074 10.4594C4.63105 10.558 4.61323 10.6641 4.61848 10.7703C4.61352 10.8762 4.63031 10.9821 4.66782 11.0812C4.70532 11.1804 4.76275 11.2709 4.83656 11.347C4.90465 11.4176 4.98658 11.4735 5.07722 11.511C5.16786 11.5485 5.26526 11.5669 5.36335 11.5651V11.5651Z" fill="#48CC7F"/>
<path d="M8.57143 9.49609V10.0084H7.28795V10.5339H8.44269V11.0252H7.28795V11.5599H8.61215V12.0736H6.71387V9.49609H8.57143Z" fill="#48CC7F"/>
<path d="M10.7444 9.49609H11.3198V12.0736H10.7444L9.51607 10.459V12.0736H8.94067V9.49609H9.47929L10.7444 11.154V9.49609Z" fill="#48CC7F"/>
<path d="M12.9381 9.99398V12.0736H12.3627V9.99398H11.6323V9.49609H13.6685V9.99398H12.9381Z" fill="#48CC7F"/>
<path d="M16.0725 10.3513C16.0725 10.7656 15.9091 11.0322 15.5825 11.1513L16.2393 12.0709H15.5273L14.9558 11.2486H14.5617V12.0736H13.9863V9.49609H14.9637C15.3578 9.49609 15.6508 9.56441 15.8216 9.6984C15.9923 9.8324 16.0725 10.0518 16.0725 10.3513ZM15.3788 10.6574C15.4178 10.6177 15.4476 10.57 15.4662 10.5176C15.4848 10.4652 15.4918 10.4093 15.4866 10.3539C15.493 10.3008 15.4863 10.2469 15.4671 10.197C15.4478 10.1471 15.4166 10.1026 15.3762 10.0676C15.2549 10.0047 15.1182 9.97782 14.9821 9.99004H14.5499V10.7599H14.9755C15.1178 10.7736 15.2604 10.7374 15.3788 10.6574Z" fill="#48CC7F"/>
<path d="M18.4885 12.0736L18.2481 11.5166H17.1683L16.9279 12.0736H16.3157L17.4297 9.49609H17.9867L19.1007 12.0736H18.4885ZM17.7095 10.2633L17.385 11.0121H18.0314L17.7095 10.2633Z" fill="#48CC7F"/>
<path d="M19.207 12.0736V9.49609H19.7824V11.5612H20.8872V12.0736H19.207Z" fill="#48CC7F"/>
</svg>
