<svg width="25" height="26" viewBox="0 0 25 26" fill="none" xmlns="http://www.w3.org/2000/svg">
<path d="M0 23.6325H2.27273V20.5985C4.53409 23.803 8.27273 25.9053 12.5 25.9053C19.4091 25.9053 25 20.3144 25 13.4053H22.7273C22.7273 16.1177 21.6498 18.7191 19.7318 20.637C17.8138 22.555 15.2124 23.6325 12.5 23.6325C8.95455 23.6325 5.82955 21.8257 4 19.0871H6.81818V16.8144H0V23.6325Z" fill="#48CC7F"/>
<path d="M12.5 0.905273C5.59091 0.905273 0 6.49618 0 13.4053H2.27273C2.27273 10.6928 3.35024 8.09149 5.26823 6.1735C7.18621 4.25551 9.78756 3.178 12.5 3.178C16.0455 3.178 19.1705 4.98482 21 7.72346H18.1818V9.99618H25V3.178H22.7273V6.21209C20.4659 3.00755 16.7273 0.905273 12.5 0.905273Z" fill="#48CC7F"/>
<path d="M10.2401 16.5822V10.9602H12.3029V9.87811H6.83282V10.9602H8.86338V16.5822H10.2401Z" fill="#48CC7F"/>
<path d="M18.2242 14.3582H16.8475C16.8291 14.6284 16.7692 14.854 16.6679 15.0351C16.5697 15.2162 16.4269 15.3528 16.2397 15.4449C16.0525 15.537 15.8146 15.583 15.526 15.583C15.2804 15.583 15.0702 15.5385 14.8952 15.4495C14.7233 15.3574 14.5821 15.2223 14.4716 15.0443C14.3642 14.8632 14.2843 14.6422 14.2322 14.3813C14.18 14.1173 14.1539 13.8118 14.1539 13.465V12.9907C14.1539 12.6346 14.1815 12.3246 14.2368 12.0606C14.2951 11.7936 14.3826 11.5725 14.4992 11.3976C14.6159 11.2226 14.7601 11.0922 14.932 11.0062C15.1039 10.9203 15.305 10.8773 15.5352 10.8773C15.8422 10.8773 16.0878 10.9264 16.2719 11.0246C16.4592 11.1198 16.5988 11.2625 16.6909 11.4528C16.783 11.6401 16.8367 11.8688 16.8521 12.1389H18.2334C18.1905 11.6846 18.0615 11.2794 17.8467 10.9233C17.6348 10.5672 17.3356 10.2879 16.9488 10.0853C16.5651 9.88272 16.0939 9.78142 15.5352 9.78142C15.1147 9.78142 14.734 9.85663 14.3933 10.007C14.0526 10.1574 13.7594 10.3723 13.5139 10.6517C13.2714 10.931 13.0841 11.2702 12.9521 11.6692C12.8232 12.0652 12.7587 12.5088 12.7587 12.9999V13.465C12.7587 13.9561 12.8217 14.3997 12.9475 14.7957C13.0734 15.1916 13.256 15.5293 13.4955 15.8086C13.738 16.088 14.0296 16.3028 14.3703 16.4533C14.711 16.6006 15.0963 16.6743 15.526 16.6743C16.0755 16.6743 16.5451 16.576 16.935 16.3796C17.3279 16.1831 17.6333 15.9099 17.8513 15.56C18.0723 15.2101 18.1966 14.8095 18.2242 14.3582Z" fill="#48CC7F"/>
</svg>
