<svg width="26" height="26" viewBox="0 0 26 26" fill="none" xmlns="http://www.w3.org/2000/svg">
<path d="M14.005 11.7337C12.1509 11.1191 11.255 10.7337 11.255 9.75456C11.255 8.69206 12.4113 8.30664 13.1405 8.30664C14.505 8.30664 15.005 9.33789 15.1196 9.70247L16.7655 9.00456C16.6092 8.53581 15.9113 7.00456 14.1196 6.67122V5.37956H12.0363V6.69206C9.45296 7.27539 9.44255 9.67122 9.44255 9.77539C9.44255 12.14 11.7863 12.8066 12.9321 13.2233C14.578 13.8066 15.3071 14.3379 15.3071 15.3379C15.3071 16.515 14.2134 17.015 13.2446 17.015C11.3488 17.015 10.8071 15.0671 10.7446 14.8379L9.01546 15.5358C9.67171 17.8171 11.3905 18.4316 12.0363 18.6191V19.9629H14.1196V18.6712C14.5363 18.5775 17.1405 18.0566 17.1405 15.3171C17.1405 13.8691 16.505 12.5983 14.005 11.7337V11.7337ZM3.70296 22.0462H1.61963V15.7962H7.86963V17.8796H5.2863C6.96338 20.39 9.82796 22.0462 13.078 22.0462C15.5644 22.0462 17.9489 21.0585 19.7071 19.3003C21.4652 17.5422 22.453 15.1576 22.453 12.6712H24.5363C24.5363 19.0046 19.4113 24.1296 13.078 24.1296C9.20296 24.1296 5.77588 22.2025 3.70296 19.265V22.0462ZM1.61963 12.6712C1.61963 6.33789 6.74463 1.21289 13.078 1.21289C16.953 1.21289 20.38 3.13997 22.453 6.07747V3.29622H24.5363V9.54622H18.2863V7.46289H20.8696C19.1925 4.95247 16.328 3.29622 13.078 3.29622C10.5916 3.29622 8.20699 4.28394 6.44884 6.0421C4.69068 7.80025 3.70296 10.1848 3.70296 12.6712H1.61963Z" fill="#091F2C"/>
</svg>
