<svg width="25" height="26" viewBox="0 0 25 26" fill="none" xmlns="http://www.w3.org/2000/svg">
<path d="M1.74432 6.22589C1.74432 5.51991 2.02478 4.84283 2.52398 4.34363C3.02319 3.84442 3.70027 3.56396 4.40625 3.56396H16.8286C17.5346 3.56396 18.2116 3.84442 18.7109 4.34363C19.2101 4.84283 19.4905 5.51991 19.4905 6.22589V9.55289H13.2701C13.2178 8.9283 12.9462 8.33942 12.4997 7.89286C12.0005 7.39366 11.3234 7.1132 10.6174 7.1132C9.91143 7.1132 9.23436 7.39366 8.73515 7.89286C8.2755 8.35252 8.00131 8.96297 7.96074 9.60794C7.31459 9.72796 6.71448 10.0407 6.24322 10.512C5.62911 11.1261 5.2841 11.959 5.2841 12.8275V15.9863H4.40625C3.70027 15.9863 3.02319 15.7058 2.52398 15.2066C2.02478 14.7074 1.74432 14.0304 1.74432 13.3244V6.22589Z" fill="white"/>
<path d="M11.2448 9.14771C11.3578 9.26064 11.4371 9.40087 11.4765 9.55289H9.75839C9.79772 9.40087 9.87707 9.26064 9.99 9.14771C10.1564 8.98131 10.3821 8.88782 10.6174 8.88782C10.8527 8.88782 11.0784 8.98131 11.2448 9.14771Z" fill="white"/>
<path fill-rule="evenodd" clip-rule="evenodd" d="M8.55872 10.5529C7.95546 10.5529 7.3769 10.7925 6.95032 11.2191C6.52375 11.6457 6.2841 12.2242 6.2841 12.8275V19.926C6.2841 20.5293 6.52375 21.1078 6.95032 21.5344C7.3769 21.961 7.95546 22.2006 8.55872 22.2006H20.9811C21.5843 22.2006 22.1629 21.961 22.5895 21.5344C23.016 21.1078 23.2557 20.5293 23.2557 19.926V12.8275C23.2557 12.2242 23.016 11.6457 22.5895 11.2191C22.1629 10.7925 21.5843 10.5529 20.9811 10.5529H8.55872ZM8.55872 11.5529C8.22067 11.5529 7.89647 11.6872 7.65743 11.9262C7.41839 12.1653 7.2841 12.4895 7.2841 12.8275V13.395L9.12624 11.5529H8.55872ZM9.48247 12.6109L8.42667 13.6667C8.5233 13.6126 8.6182 13.5527 8.71012 13.4865C9.00648 13.2731 9.27971 12.9897 9.48247 12.6109ZM7.2841 15.0694C7.89839 14.9919 8.64235 14.7675 9.29441 14.2981C10.0676 13.7414 10.6842 12.8576 10.8099 11.5529H18.7299C18.8555 12.8576 19.4721 13.7414 20.2454 14.2981C20.8974 14.7675 21.6414 14.9919 22.2557 15.0694V17.6841C21.6414 17.7616 20.8974 17.986 20.2454 18.4554C19.4721 19.0121 18.8555 19.8959 18.7299 21.2006H10.8099C10.6842 19.8959 10.0676 19.0121 9.29441 18.4554C8.64235 17.986 7.89839 17.7616 7.2841 17.6841V15.0694ZM7.2841 19.3585V19.926C7.2841 20.264 7.41839 20.5882 7.65743 20.8273C7.89647 21.0663 8.22067 21.2006 8.55872 21.2006H9.12623L7.2841 19.3585ZM9.48247 20.1426L8.42667 19.0868C8.5233 19.1409 8.6182 19.2008 8.71012 19.267C9.00648 19.4804 9.27971 19.7638 9.48247 20.1426ZM20.4135 21.2006H20.9811C21.3191 21.2006 21.6433 21.0663 21.8823 20.8273C22.1214 20.5882 22.2557 20.264 22.2557 19.926V19.3585L20.4135 21.2006ZM21.1131 19.0868L20.0573 20.1426C20.2601 19.7638 20.5333 19.4804 20.8297 19.267C20.9216 19.2008 21.0165 19.1409 21.1131 19.0868ZM22.2557 13.395L20.4135 11.5529H20.9811C21.3191 11.5529 21.6433 11.6872 21.8823 11.9262C22.1214 12.1653 22.2557 12.4895 22.2557 12.8275V13.395ZM20.0573 12.6109L21.1131 13.6667C21.0165 13.6126 20.9216 13.5527 20.8297 13.4865C20.5333 13.2731 20.2601 12.9897 20.0573 12.6109Z" fill="white"/>
<path d="M17.8978 12.5529C18.1341 13.4219 18.5738 14.1231 19.129 14.6637C19.0146 14.8603 18.8745 15.043 18.7109 15.2066C18.4961 15.4214 18.2483 15.5957 17.9796 15.7246C17.6772 14.2285 16.3551 13.1021 14.7699 13.1021C13.0935 13.1021 11.7113 14.3618 11.5183 15.9863H8.2841V15.8792C8.81233 15.7248 9.36524 15.4793 9.87869 15.1096C10.6821 14.5312 11.3343 13.6843 11.642 12.5529H17.8978Z" fill="white"/>
<path fill-rule="evenodd" clip-rule="evenodd" d="M14.7699 14.1021C13.5137 14.1021 12.4953 15.1205 12.4953 16.3768C12.4953 17.633 13.5137 18.6514 14.7699 18.6514C16.0261 18.6514 17.0445 17.633 17.0445 16.3768C17.0445 15.1205 16.0261 14.1021 14.7699 14.1021ZM14.7699 15.1021C14.0659 15.1021 13.4953 15.6728 13.4953 16.3768C13.4953 17.0807 14.0659 17.6514 14.7699 17.6514C15.4738 17.6514 16.0445 17.0807 16.0445 16.3768C16.0445 15.6728 15.4738 15.1021 14.7699 15.1021Z" fill="white"/>
</svg>
