<svg width="25" height="26" viewBox="0 0 25 26" fill="none" xmlns="http://www.w3.org/2000/svg">
<path fill-rule="evenodd" clip-rule="evenodd" d="M19.7916 3.50724C19.7916 2.93195 19.3253 2.46558 18.75 2.46558C18.1747 2.46558 17.7083 2.93195 17.7083 3.50724V5.59058H15.625C15.0497 5.59058 14.5833 6.05695 14.5833 6.63224C14.5833 7.20754 15.0497 7.67391 15.625 7.67391H17.7083V9.75724C17.7083 10.3325 18.1747 10.7989 18.75 10.7989C19.3253 10.7989 19.7916 10.3325 19.7916 9.75724V7.67391H21.875C22.4503 7.67391 22.9166 7.20754 22.9166 6.63224C22.9166 6.05695 22.4503 5.59058 21.875 5.59058H19.7916V3.50724ZM7.29165 10.7989C7.29165 9.64834 8.22439 8.7156 9.37498 8.7156C10.5256 8.7156 11.4583 9.64833 11.4583 10.7989C11.4583 11.9496 10.5256 12.8823 9.37498 12.8823C8.22438 12.8823 7.29165 11.9496 7.29165 10.7989ZM9.37498 6.63226C7.0738 6.63226 5.20831 8.49775 5.20831 10.7989C5.20831 13.1002 7.07381 14.9656 9.37498 14.9656C11.6762 14.9656 13.5416 13.1002 13.5416 10.7989C13.5416 8.49776 11.6762 6.63226 9.37498 6.63226ZM4.16665 21.2156C4.16665 19.4897 5.56576 18.0906 7.29165 18.0906H11.4583C13.1842 18.0906 14.5833 19.4897 14.5833 21.2156V22.2573C14.5833 22.8326 15.0497 23.2989 15.625 23.2989C16.2003 23.2989 16.6666 22.8326 16.6666 22.2573V21.2156C16.6666 18.3392 14.3348 16.0073 11.4583 16.0073H7.29165C4.41516 16.0073 2.08331 18.3392 2.08331 21.2156V22.2573C2.08331 22.8326 2.54968 23.2989 3.12498 23.2989C3.70028 23.2989 4.16665 22.8326 4.16665 22.2573V21.2156Z" fill="white"/>
</svg>
