<svg width="38" height="38" viewBox="0 0 38 38" fill="none" xmlns="http://www.w3.org/2000/svg">
<g filter="url(#filter0_d_208_1888)">
<path d="M18.5833 29.3334C26.6375 29.3334 33.1667 22.8042 33.1667 14.75C33.1667 6.69587 26.6375 0.166687 18.5833 0.166687C10.5292 0.166687 4 6.69587 4 14.75C4 22.8042 10.5292 29.3334 18.5833 29.3334Z" fill="#F26B3E"/>
</g>
<path d="M12.5957 17.7091L12.5958 17.709C12.7436 17.5615 12.944 17.4787 13.1528 17.4787C13.3617 17.4787 13.562 17.5615 13.7099 17.709L13.71 17.7091C13.7831 17.7822 13.8412 17.869 13.8808 17.9645C13.9204 18.06 13.9407 18.1623 13.9407 18.2657C13.9407 18.3691 13.9204 18.4715 13.8808 18.567C13.8412 18.6625 13.7831 18.7492 13.71 18.8223L13.71 18.8223L12.5684 19.9622L12.5684 19.9622C12.4918 20.0387 12.431 20.1295 12.3895 20.2295C12.348 20.3295 12.3267 20.4367 12.3267 20.5449C12.3267 20.6532 12.348 20.7603 12.3895 20.8603C12.431 20.9603 12.4917 21.0511 12.5683 21.1275C12.7235 21.2823 12.9337 21.3692 13.1528 21.3692C13.3719 21.3692 13.5821 21.2823 13.7373 21.1275L16.4002 18.4685C16.4269 18.4419 16.448 18.4103 16.4624 18.3755C16.4769 18.3407 16.4843 18.3034 16.4843 18.2657C16.4843 18.228 16.4769 18.1908 16.4624 18.156C16.448 18.1212 16.4269 18.0895 16.4002 18.0629C16.327 17.9899 16.2689 17.9031 16.2293 17.8076C16.1896 17.712 16.1692 17.6096 16.1692 17.5061C16.1692 17.4026 16.1896 17.3001 16.2293 17.2046C16.2689 17.109 16.3271 17.0222 16.4003 16.9491L12.5957 17.7091ZM12.5957 17.7091L11.4536 18.849C11.2306 19.0716 11.0536 19.3359 10.9329 19.627C10.8121 19.9181 10.75 20.2301 10.75 20.5452C10.75 20.8603 10.8121 21.1723 10.9329 21.4634C11.0536 21.7544 11.2306 22.0188 11.4536 22.2414L11.4536 22.2414C11.9044 22.6913 12.5153 22.944 13.1523 22.944C13.7892 22.944 14.4001 22.6913 14.8509 22.2414L14.8509 22.2414L17.5145 19.5823C17.6876 19.4095 17.825 19.2043 17.9187 18.9784C18.0125 18.7525 18.0607 18.5103 18.0607 18.2657C18.0607 18.0211 18.0125 17.7789 17.9187 17.553C17.825 17.3271 17.6876 17.1219 17.5145 16.9491L17.5145 16.9491M12.5957 17.7091L17.5145 16.9491M17.5145 16.9491C17.3666 16.8016 17.1663 16.7188 16.9574 16.7188C16.7485 16.7188 16.5482 16.8016 16.4003 16.9491L17.5145 16.9491ZM24.0985 12.985L24.0985 12.985C23.9506 13.1325 23.7503 13.2153 23.5414 13.2153C23.3325 13.2153 23.1322 13.1325 22.9843 12.985L22.9842 12.9849C22.9111 12.9118 22.853 12.825 22.8134 12.7295C22.7738 12.634 22.7535 12.5317 22.7535 12.4283C22.7535 12.3249 22.7738 12.2225 22.8134 12.127C22.853 12.0315 22.9111 11.9448 22.9842 11.8717L22.9842 11.8717L24.1258 10.7318L24.1258 10.7318C24.2024 10.6553 24.2632 10.5645 24.3047 10.4645C24.3462 10.3645 24.3675 10.2573 24.3675 10.1491C24.3675 10.0408 24.3462 9.93366 24.3047 9.83368C24.2632 9.73371 24.2025 9.64291 24.1259 9.56646C23.9707 9.41171 23.7605 9.3248 23.5414 9.3248C23.3223 9.3248 23.1122 9.41166 22.957 9.56634L24.0985 12.985ZM24.0985 12.985L25.2411 11.8451L25.2412 11.845C25.4642 11.6225 25.6411 11.3581 25.7619 11.067C25.8826 10.7759 25.9448 10.4639 25.9448 10.1488C25.9448 9.8337 25.8826 9.52169 25.7619 9.23063C25.6411 8.93956 25.4642 8.67517 25.2412 8.45258L25.2412 8.45257C24.7903 8.00268 24.1794 7.75001 23.5425 7.75001C22.9056 7.75001 22.2947 8.00268 21.8439 8.45257L21.8438 8.45261M24.0985 12.985L21.8438 8.45261M21.8438 8.45261L19.1803 11.1117C19.1803 11.1117 19.1802 11.1117 19.1802 11.1118L21.8438 8.45261ZM20.2945 12.2255L22.9569 9.56646L20.1179 13.5679L20.2944 13.7449C20.2944 13.7449 20.2944 13.7449 20.2944 13.7449C20.3677 13.6718 20.4258 13.585 20.4655 13.4894C20.5051 13.3939 20.5256 13.2914 20.5256 13.1879C20.5256 13.0844 20.5051 12.982 20.4655 12.8864C20.4258 12.7909 20.3678 12.7041 20.2945 12.6311C20.2679 12.6045 20.2467 12.5728 20.2323 12.538C20.2179 12.5033 20.2105 12.466 20.2105 12.4283C20.2105 12.3906 20.2179 12.3533 20.2323 12.3185C20.2467 12.2837 20.2679 12.2521 20.2945 12.2255L20.1296 12.0604L20.2945 12.2255Z" fill="white" stroke="white" stroke-width="0.5"/>
<defs>
<filter id="filter0_d_208_1888" x="0" y="0.166687" width="37.1666" height="37.1667" filterUnits="userSpaceOnUse" color-interpolation-filters="sRGB">
<feFlood flood-opacity="0" result="BackgroundImageFix"/>
<feColorMatrix in="SourceAlpha" type="matrix" values="0 0 0 0 0 0 0 0 0 0 0 0 0 0 0 0 0 0 127 0" result="hardAlpha"/>
<feOffset dy="4"/>
<feGaussianBlur stdDeviation="2"/>
<feComposite in2="hardAlpha" operator="out"/>
<feColorMatrix type="matrix" values="0 0 0 0 0 0 0 0 0 0 0 0 0 0 0 0 0 0 0.25 0"/>
<feBlend mode="normal" in2="BackgroundImageFix" result="effect1_dropShadow_208_1888"/>
<feBlend mode="normal" in="SourceGraphic" in2="effect1_dropShadow_208_1888" result="shape"/>
</filter>
</defs>
</svg>
