<svg width="77" height="78" viewBox="0 0 77 78" fill="none" xmlns="http://www.w3.org/2000/svg">
<path d="M1.2002 74V4C1.2002 3.33696 1.46359 2.70107 1.93243 2.23223C2.40127 1.76339 3.03715 1.5 3.70019 1.5H73.7002C74.3632 1.5 74.9991 1.76339 75.468 2.23223C75.9368 2.70107 76.2002 3.33696 76.2002 4V74C76.2002 74.663 75.9368 75.2989 75.468 75.7678C74.9991 76.2366 74.3632 76.5 73.7002 76.5H3.70019C3.03715 76.5 2.40127 76.2366 1.93243 75.7678C1.46359 75.2989 1.2002 74.663 1.2002 74V74Z" stroke="#74788D" stroke-width="1.5625"/>
<path d="M13.7002 64H63.7002M38.7002 47.3333V14M38.7002 14L53.2835 28.5833M38.7002 14L24.1169 28.5833" stroke="#74788D" stroke-width="1.5625" stroke-linecap="round" stroke-linejoin="round"/>
</svg>
