<svg id="trade" xmlns="http://www.w3.org/2000/svg" viewBox="0 0 18 18"><defs><style>.cls-1{fill:none;stroke:#003B4D;stroke-linecap:round;stroke-miterlimit:10;stroke-width:0.25px;}</style></defs><title>Trade </title><path class="cls-1" d="M4.46,8.46a3.17,3.17,0,0,1-.66-2A3.24,3.24,0,1,1,9.14,9"/><path class="cls-1" d="M9.78,12.65a3.24,3.24,0,1,1-3-4.39,3.33,3.33,0,0,1,.78.09"/><path class="cls-1" d="M10.87,5.94l.38,0a3.24,3.24,0,1,1-3,4.56"/><path class="cls-1" d="M7.74,4.83H6.68a.5.5,0,0,0-.5.51v.29a.27.27,0,0,0,.27.27h1a.25.25,0,0,1,.25.24v.32a.5.5,0,0,1-.51.5H6.18"/><line class="cls-1" x1="7.08" y1="4.25" x2="7.08" y2="4.83"/><line class="cls-1" x1="7.08" y1="6.96" x2="7.08" y2="7.49"/><path class="cls-1" d="M7.42,12.9H7a1.45,1.45,0,0,1-1.45-1.45h0A1.45,1.45,0,0,1,7,10h.4"/><line class="cls-1" x1="5.22" y1="10.99" x2="6.64" y2="10.99"/><polyline class="cls-1" points="5.21 11.77 5.77 11.77 6.64 11.77"/><line class="cls-1" x1="10.72" y1="7.8" x2="11.48" y2="8.93"/><polyline class="cls-1" points="12.24 7.8 11.48 8.93 11.48 10.86"/><line class="cls-1" x1="10.83" y1="9.62" x2="12.14" y2="9.62"/><line class="cls-1" x1="10.83" y1="10.26" x2="12.14" y2="10.26"/></svg>