<svg id="register" xmlns="http://www.w3.org/2000/svg" viewBox="0 0 18 18"><defs><style>.cls-1{fill:none;stroke:#003B4D;stroke-linecap:round;stroke-linejoin:round;stroke-width:0.25px;}</style></defs><title>Register</title><path class="cls-1" d="M2.93,5.81v6.47a1,1,0,0,0,1,1h7"/><path class="cls-1" d="M5.89,2.94h6.22a1,1,0,0,1,1,1v7.17"/><line class="cls-1" x1="6.69" y1="5.35" x2="11.76" y2="5.35"/><line class="cls-1" x1="4.27" y1="8.13" x2="6.56" y2="8.13"/><line class="cls-1" x1="4.35" y1="10.9" x2="8.77" y2="10.9"/><path class="cls-1" d="M12.87,14,7.78,9c-.33-.32-.88-1.34-.57-1.66s1.34.23,1.67.57l5.09,5Z"/><polygon class="cls-1" points="15.04 13.95 13.96 15.06 13.37 14.49 14.46 13.37 15.04 13.95"/><line class="cls-1" x1="9.88" y1="8.13" x2="11.76" y2="8.13"/><path class="cls-1" d="M5.89,2.94V5.15a.67.67,0,0,1-.66.66H2.93Z"/></svg>