<svg id="fund" xmlns="http://www.w3.org/2000/svg" viewBox="0 0 18 18"><defs><style>.cls-1{fill:none;stroke:#003B4D;stroke-linecap:round;stroke-miterlimit:10;stroke-width:0.25px;}</style></defs><title>Fund</title><path class="cls-1" d="M12,6.65h2a.65.65,0,0,1,.65.65V9.05"/><path class="cls-1" d="M14.71,11.26v2a.64.64,0,0,1-.65.64H4.13a1.19,1.19,0,0,1-1.19-1.19V5.79"/><line class="cls-1" x1="13.85" y1="6.65" x2="12.04" y2="6.65"/><path class="cls-1" d="M3.68,6.63a.84.84,0,0,1-.74-.84.87.87,0,0,1,.87-.86H8.28"/><path class="cls-1" d="M11.4,4.93h1.13a.87.87,0,0,1,.86.86,1,1,0,0,1,0,.3"/><path class="cls-1" d="M15.06,9.39v1.53a.35.35,0,0,1-.35.34h-2a1.11,1.11,0,0,1,0-2.21h2A.35.35,0,0,1,15.06,9.39Z"/><circle class="cls-1" cx="12.84" cy="10.16" r="0.48"/><path class="cls-1" d="M12,6.65H3.81a.3.3,0,0,1-.13,0l4.6-1.7,2.23-.82a.55.55,0,0,1,.71.32Z"/><path class="cls-1" d="M11.26,6.65H5.94L10.1,5.11a.56.56,0,0,1,.71.32Z"/></svg>