<svg width="16" height="16" viewBox="0 0 16 16" fill="none" xmlns="http://www.w3.org/2000/svg">
<path d="M6.30801 4.80522C6.30778 4.0546 6.50055 3.31654 6.86779 2.6619C7.23503 2.00726 7.76442 1.45804 8.40511 1.06697C9.0458 0.675905 9.77628 0.456131 10.5264 0.428755C11.2765 0.40138 12.0211 0.567322 12.6886 0.910645C12.7684 0.95188 12.8374 1.01139 12.89 1.08432C12.9425 1.15725 12.9771 1.24156 12.9909 1.33037C13.0047 1.41919 12.9973 1.51001 12.9694 1.59544C12.9415 1.68088 12.8938 1.75852 12.8302 1.82204L10.7249 3.92884L11.532 4.73593L13.6479 2.62075C13.7111 2.55761 13.7883 2.51018 13.8732 2.48228C13.9581 2.45439 14.0483 2.4468 14.1367 2.46013C14.225 2.47346 14.309 2.50734 14.3819 2.55904C14.4548 2.61074 14.5145 2.67882 14.5563 2.75781C14.9508 3.50229 15.1222 4.34481 15.0498 5.18427C14.9774 6.02374 14.6643 6.82447 14.148 7.49038C13.6318 8.15629 12.9344 8.65909 12.1394 8.93845C11.3445 9.2178 10.4859 9.26183 9.66655 9.06526L4.05882 14.8656C3.63072 15.3086 3.04419 15.5633 2.42826 15.5738C1.81233 15.5843 1.21746 15.3497 0.774516 14.9216C0.331568 14.4935 0.0768265 13.907 0.0663314 13.291C0.0611348 12.986 0.116059 12.683 0.227967 12.3993C0.339875 12.1155 0.506576 11.8566 0.718552 11.6373L6.41003 5.74859C6.3421 5.43899 6.30789 5.12295 6.30801 4.80598V4.80522ZM10.6861 1.56926C10.1804 1.5691 9.68172 1.68746 9.23005 1.91483C8.77838 2.1422 8.38628 2.47226 8.08521 2.87853C7.78413 3.2848 7.58245 3.75598 7.49636 4.25427C7.41026 4.75256 7.44215 5.26409 7.58945 5.74783C7.61918 5.8453 7.62229 5.94895 7.59846 6.04802C7.57463 6.1471 7.52472 6.23799 7.45392 6.31127L1.53934 12.4299C1.43161 12.5414 1.34688 12.673 1.29001 12.8172C1.23314 12.9615 1.20523 13.1155 1.20788 13.2705C1.21053 13.4255 1.24369 13.5785 1.30546 13.7207C1.36723 13.8629 1.45641 13.9915 1.5679 14.0993C1.67938 14.207 1.811 14.2917 1.95523 14.3486C2.09946 14.4055 2.25348 14.4334 2.4085 14.4307C2.56351 14.4281 2.71649 14.3949 2.85869 14.3332C3.00089 14.2714 3.12953 14.1822 3.23727 14.0707L9.08179 8.02519C9.1564 7.94772 9.25137 7.89291 9.35577 7.86704C9.46016 7.84118 9.56974 7.84532 9.67188 7.879C10.2195 8.06005 10.8056 8.09144 11.3695 7.96991C11.9333 7.84838 12.4544 7.57834 12.8789 7.18776C13.3033 6.79718 13.6156 6.30025 13.7835 5.74842C13.9514 5.19659 13.9687 4.60992 13.8337 4.04914L11.9363 5.94732C11.8833 6.00039 11.8203 6.04248 11.751 6.0712C11.6817 6.09992 11.6074 6.11471 11.5324 6.11471C11.4573 6.11471 11.3831 6.09992 11.3138 6.0712C11.2444 6.04248 11.1815 6.00039 11.1284 5.94732L9.51351 4.33163C9.40657 4.22455 9.3465 4.07941 9.3465 3.92808C9.3465 3.77675 9.40657 3.63161 9.51351 3.52454L11.3911 1.64616C11.1596 1.59488 10.9232 1.56909 10.6861 1.56926Z" fill="white"/>
</svg>
