<svg width="21" height="21" viewBox="0 0 21 21" fill="none" xmlns="http://www.w3.org/2000/svg">
<path fill-rule="evenodd" clip-rule="evenodd" d="M17.7916 1.12498C17.7916 0.549683 17.3253 0.083313 16.75 0.083313C16.1747 0.083313 15.7083 0.549683 15.7083 1.12498V3.20831H13.625C13.0497 3.20831 12.5833 3.67468 12.5833 4.24998C12.5833 4.82528 13.0497 5.29165 13.625 5.29165H15.7083V7.37498C15.7083 7.95028 16.1747 8.41665 16.75 8.41665C17.3253 8.41665 17.7916 7.95028 17.7916 7.37498V5.29165H19.875C20.4503 5.29165 20.9166 4.82528 20.9166 4.24998C20.9166 3.67468 20.4503 3.20831 19.875 3.20831H17.7916V1.12498ZM5.29165 8.41667C5.29165 7.26608 6.22439 6.33333 7.37498 6.33333C8.52561 6.33333 9.45831 7.26607 9.45831 8.41667C9.45831 9.56731 8.52562 10.5 7.37498 10.5C6.22438 10.5 5.29165 9.5673 5.29165 8.41667ZM7.37498 4.25C5.0738 4.25 3.20831 6.11548 3.20831 8.41667C3.20831 10.7179 5.07381 12.5833 7.37498 12.5833C9.67621 12.5833 11.5416 10.7179 11.5416 8.41667C11.5416 6.1155 9.67622 4.25 7.37498 4.25ZM2.16665 18.8333C2.16665 17.1075 3.56576 15.7083 5.29165 15.7083H9.45831C11.1842 15.7083 12.5833 17.1075 12.5833 18.8333V19.875C12.5833 20.4503 13.0497 20.9167 13.625 20.9167C14.2003 20.9167 14.6666 20.4503 14.6666 19.875V18.8333C14.6666 15.9569 12.3348 13.625 9.45831 13.625H5.29165C2.41516 13.625 0.083313 15.9569 0.083313 18.8333V19.875C0.083313 20.4503 0.549683 20.9167 1.12498 20.9167C1.70028 20.9167 2.16665 20.4503 2.16665 19.875V18.8333Z" fill="white"/>
</svg>
