<svg width="23" height="19" viewBox="0 0 23 19" fill="none" xmlns="http://www.w3.org/2000/svg">
<path fill-rule="evenodd" clip-rule="evenodd" d="M7.73223 4.48223C7.26339 4.95107 7 5.58696 7 6.25C7 6.91304 7.26339 7.54893 7.73223 8.01777C8.20107 8.48661 8.83696 8.75 9.5 8.75C10.163 8.75 10.7989 8.48661 11.2678 8.01777C11.7366 7.54893 12 6.91304 12 6.25C12 5.58696 11.7366 4.95107 11.2678 4.48223C10.7989 4.01339 10.163 3.75 9.5 3.75C8.83696 3.75 8.20107 4.01339 7.73223 4.48223ZM8.61612 5.36612C8.85054 5.1317 9.16848 5 9.5 5C9.83152 5 10.1495 5.1317 10.3839 5.36612C10.6183 5.60054 10.75 5.91848 10.75 6.25C10.75 6.58152 10.6183 6.89946 10.3839 7.13388C10.1495 7.3683 9.83152 7.5 9.5 7.5C9.16848 7.5 8.85054 7.3683 8.61612 7.13388C8.3817 6.89946 8.25 6.58152 8.25 6.25C8.25 5.91848 8.3817 5.60054 8.61612 5.36612Z" fill="white"/>
<path fill-rule="evenodd" clip-rule="evenodd" d="M1.29917 0.549175C1.65081 0.197544 2.12772 0 2.625 0H16.375C16.8723 0 17.3492 0.197544 17.7008 0.549175C18.0525 0.900805 18.25 1.37772 18.25 1.875V6.50875C17.8414 6.39323 17.4229 6.31581 17 6.2775V5H15.75C15.087 5 14.4511 4.73661 13.9822 4.26777C13.5134 3.79893 13.25 3.16304 13.25 2.5V1.25H5.75V2.5C5.75 3.16304 5.48661 3.79893 5.01777 4.26777C4.54893 4.73661 3.91304 5 3.25 5H2V7.5H3.25C3.91304 7.5 4.54893 7.76339 5.01777 8.23223C5.48661 8.70107 5.75 9.33696 5.75 10V11.25H9.75875C9.64309 11.6586 9.56567 12.0771 9.5275 12.5H2.625C2.12772 12.5 1.65081 12.3025 1.29917 11.9508C0.947544 11.5992 0.75 11.1223 0.75 10.625V1.875C0.75 1.37772 0.947544 0.900805 1.29917 0.549175ZM2.18306 1.43306C2.06585 1.55027 2 1.70924 2 1.875V3.75H3.25C3.58152 3.75 3.89946 3.6183 4.13388 3.38388C4.3683 3.14946 4.5 2.83152 4.5 2.5V1.25H2.625C2.45924 1.25 2.30027 1.31585 2.18306 1.43306ZM16.375 1.25H14.5V2.5C14.5 2.83152 14.6317 3.14946 14.8661 3.38388C15.1005 3.6183 15.4185 3.75 15.75 3.75H17V1.875C17 1.70924 16.9342 1.55027 16.8169 1.43306C16.6997 1.31585 16.5408 1.25 16.375 1.25ZM2.625 11.25H4.5V10C4.5 9.66848 4.3683 9.35054 4.13388 9.11612C3.89946 8.8817 3.58152 8.75 3.25 8.75H2V10.625C2 10.7908 2.06585 10.9497 2.18306 11.0669C2.30027 11.1842 2.45924 11.25 2.625 11.25Z" fill="white"/>
<path d="M9.5275 13.75H3.35625C3.48555 14.1157 3.7251 14.4323 4.04189 14.6562C4.35867 14.8801 4.73709 15.0002 5.125 15H9.75875C9.64323 14.5914 9.56581 14.1729 9.5275 13.75Z" fill="white"/>
<path d="M20.75 7.82125V4.375C20.7502 3.98709 20.6301 3.60867 20.4062 3.29189C20.1823 2.9751 19.8657 2.73555 19.5 2.60625V7C19.9453 7.22755 20.3644 7.50292 20.75 7.82125Z" fill="white"/>
<path fill-rule="evenodd" clip-rule="evenodd" d="M22.25 13.5C22.25 16.5376 19.7876 19 16.75 19C13.7124 19 11.25 16.5376 11.25 13.5C11.25 10.4624 13.7124 8 16.75 8C19.7876 8 22.25 10.4624 22.25 13.5ZM13.6925 13.0942C13.8099 12.9768 13.969 12.9109 14.135 12.9109H19.4383C19.5205 12.9109 19.6019 12.927 19.6778 12.9585C19.7537 12.9899 19.8227 13.036 19.8808 13.0942C19.9389 13.1523 19.985 13.2212 20.0165 13.2972C20.0479 13.3731 20.0641 13.4545 20.0641 13.5367C20.0641 13.6188 20.0479 13.7002 20.0165 13.7761C19.985 13.8521 19.9389 13.921 19.8808 13.9792C19.8227 14.0373 19.7537 14.0834 19.6778 14.1148C19.6019 14.1463 19.5205 14.1624 19.4383 14.1624L14.135 14.1624C13.969 14.1624 13.8099 14.0965 13.6925 13.9792C13.5751 13.8618 13.5092 13.7026 13.5092 13.5367C13.5092 13.3707 13.5751 13.2115 13.6925 13.0942Z" fill="white"/>
</svg>
