<svg width="23" height="19" viewBox="0 0 23 19" fill="none" xmlns="http://www.w3.org/2000/svg">
<path d="M0.744324 2.8436C0.744324 2.13761 1.02478 1.46054 1.52398 0.961332C2.02319 0.462124 2.70027 0.181671 3.40625 0.181671H15.8286C16.5346 0.181671 17.2116 0.462124 17.7109 0.961332C18.2101 1.46054 18.4905 2.13761 18.4905 2.8436V6.1706H12.2701C12.2178 5.54601 11.9462 4.95713 11.4997 4.51057C11.0005 4.01136 10.3234 3.73091 9.61742 3.73091C8.91143 3.73091 8.23436 4.01136 7.73515 4.51057C7.2755 4.97023 7.00131 5.58068 6.96074 6.22565C6.31459 6.34566 5.71448 6.65845 5.24322 7.12971C4.62911 7.74382 4.2841 8.57674 4.2841 9.44522V12.604H3.40625C2.70027 12.604 2.02319 12.3236 1.52398 11.8243C1.02478 11.3251 0.744324 10.6481 0.744324 9.94208V2.8436Z" fill="white"/>
<path d="M10.2448 5.76542C10.3578 5.87834 10.4371 6.01858 10.4765 6.1706H8.75839C8.79772 6.01858 8.87707 5.87834 8.99 5.76542C9.1564 5.59901 9.38209 5.50553 9.61742 5.50553C9.85275 5.50553 10.0784 5.59901 10.2448 5.76542Z" fill="white"/>
<path fill-rule="evenodd" clip-rule="evenodd" d="M7.55872 7.1706C6.95546 7.1706 6.3769 7.41025 5.95032 7.83682C5.52375 8.26339 5.2841 8.84195 5.2841 9.44522V16.5437C5.2841 17.147 5.52375 17.7255 5.95032 18.1521C6.3769 18.5787 6.95546 18.8183 7.55872 18.8183H19.9811C20.5843 18.8183 21.1629 18.5787 21.5895 18.1521C22.016 17.7255 22.2557 17.147 22.2557 16.5437V9.44522C22.2557 8.84195 22.016 8.26339 21.5895 7.83682C21.1629 7.41025 20.5843 7.1706 19.9811 7.1706H7.55872ZM7.55872 8.1706C7.22067 8.1706 6.89647 8.30489 6.65743 8.54393C6.41839 8.78296 6.2841 9.10717 6.2841 9.44522V10.0127L8.12624 8.1706H7.55872ZM8.48247 9.22857L7.42667 10.2844C7.5233 10.2303 7.6182 10.1704 7.71012 10.1042C8.00648 9.89085 8.27971 9.60742 8.48247 9.22857ZM6.2841 11.6871C6.89839 11.6096 7.64235 11.3852 8.29441 10.9158C9.06763 10.3591 9.68423 9.47532 9.80988 8.1706H17.7299C17.8555 9.47532 18.4721 10.3591 19.2454 10.9158C19.8974 11.3852 20.6414 11.6096 21.2557 11.6871V14.3018C20.6414 14.3793 19.8974 14.6037 19.2454 15.0732C18.4721 15.6298 17.8555 16.5136 17.7299 17.8183H9.80988C9.68423 16.5136 9.06763 15.6298 8.29441 15.0732C7.64235 14.6037 6.89839 14.3793 6.2841 14.3018V11.6871ZM6.2841 15.9762V16.5437C6.2841 16.8817 6.41839 17.2059 6.65743 17.445C6.89647 17.684 7.22067 17.8183 7.55872 17.8183H8.12623L6.2841 15.9762ZM8.48247 16.7603L7.42667 15.7045C7.5233 15.7586 7.6182 15.8185 7.71012 15.8847C8.00648 16.0981 8.27971 16.3815 8.48247 16.7603ZM19.4135 17.8183H19.9811C20.3191 17.8183 20.6433 17.684 20.8823 17.445C21.1214 17.2059 21.2557 16.8817 21.2557 16.5437V15.9762L19.4135 17.8183ZM20.1131 15.7045L19.0573 16.7603C19.2601 16.3815 19.5333 16.0981 19.8297 15.8847C19.9216 15.8185 20.0165 15.7586 20.1131 15.7045ZM21.2557 10.0127L19.4135 8.1706H19.9811C20.3191 8.1706 20.6433 8.30489 20.8823 8.54393C21.1214 8.78296 21.2557 9.10717 21.2557 9.44522V10.0127ZM19.0573 9.22857L20.1131 10.2844C20.0165 10.2303 19.9216 10.1704 19.8297 10.1042C19.5333 9.89085 19.2601 9.60742 19.0573 9.22857Z" fill="white"/>
<path d="M16.8978 9.1706C17.1341 10.0396 17.5738 10.7408 18.129 11.2814C18.0146 11.478 17.8745 11.6607 17.7109 11.8243C17.4961 12.0391 17.2483 12.2134 16.9796 12.3423C16.6772 10.8462 15.3551 9.71984 13.7699 9.71984C12.0935 9.71984 10.7113 10.9795 10.5183 12.604H7.2841V12.4969C7.81233 12.3425 8.36524 12.097 8.87869 11.7273C9.68208 11.1489 10.3343 10.302 10.642 9.1706H16.8978Z" fill="white"/>
<path fill-rule="evenodd" clip-rule="evenodd" d="M13.7699 10.7198C12.5137 10.7198 11.4953 11.7382 11.4953 12.9945C11.4953 14.2507 12.5137 15.2691 13.7699 15.2691C15.0261 15.2691 16.0445 14.2507 16.0445 12.9945C16.0445 11.7382 15.0261 10.7198 13.7699 10.7198ZM13.7699 11.7198C13.0659 11.7198 12.4953 12.2905 12.4953 12.9945C12.4953 13.6984 13.0659 14.2691 13.7699 14.2691C14.4738 14.2691 15.0445 13.6984 15.0445 12.9945C15.0445 12.2905 14.4738 11.7198 13.7699 11.7198Z" fill="white"/>
</svg>
