<svg width="19" height="21" viewBox="0 0 19 21" fill="none" xmlns="http://www.w3.org/2000/svg">
<path d="M2.20833 20.9167H16.7917C17.3442 20.9167 17.8741 20.6972 18.2648 20.3065C18.6555 19.9158 18.875 19.3859 18.875 18.8333V9.45834C18.8758 9.32125 18.8495 9.18536 18.7977 9.05844C18.7458 8.93153 18.6695 8.81609 18.5729 8.71876L10.2396 0.385429C10.0444 0.191417 9.7804 0.0825195 9.50521 0.0825195C9.23001 0.0825195 8.966 0.191417 8.77083 0.385429L0.4375 8.71876C0.339075 8.81524 0.260773 8.93028 0.20713 9.05724C0.153488 9.18419 0.125572 9.32053 0.125 9.45834V18.8333C0.125 19.3859 0.344493 19.9158 0.735194 20.3065C1.12589 20.6972 1.6558 20.9167 2.20833 20.9167ZM7.41667 18.8333V13.625H11.5833V18.8333H7.41667ZM2.20833 9.88543L9.5 2.59376L16.7917 9.88543V18.8333H13.6667V13.625C13.6667 13.0725 13.4472 12.5426 13.0565 12.1519C12.6658 11.7612 12.1359 11.5417 11.5833 11.5417H7.41667C6.86413 11.5417 6.33423 11.7612 5.94353 12.1519C5.55283 12.5426 5.33333 13.0725 5.33333 13.625V18.8333H2.20833V9.88543Z" fill="black"/>
</svg>
