<svg width="19" height="23" viewBox="0 0 19 23" fill="none" xmlns="http://www.w3.org/2000/svg">
<path d="M3.58252 17.3979C3.58252 17.9692 4.04883 18.4355 4.62256 18.4355H5.81152V21.375C5.81152 22.1196 6.40967 22.7275 7.14453 22.7275C7.88184 22.7275 8.47754 22.1221 8.47754 21.375V18.4331H10.5527V21.3726C10.5527 22.1172 11.1509 22.7251 11.8857 22.7251C12.623 22.7251 13.2188 22.1196 13.2188 21.3726V18.4331H14.4077C14.9814 18.4331 15.4478 17.9668 15.4478 17.3955V7.74707H3.58252V17.3979ZM12.3008 2.74707L13.397 1.16015C13.4605 1.06738 13.4458 0.942868 13.3604 0.881833C13.2749 0.823239 13.1528 0.852536 13.0894 0.94531L11.9517 2.5957C11.2021 2.30029 10.3672 2.13672 9.49072 2.13672C8.61426 2.13672 7.7793 2.30029 7.02979 2.5957L5.89209 0.947751C5.82861 0.854978 5.70654 0.823239 5.62109 0.884274C5.53565 0.942868 5.521 1.06494 5.58447 1.16259L6.68066 2.74951C4.9375 3.56006 3.7168 5.0957 3.56055 6.89013H15.4258C15.2646 5.09326 14.0415 3.55761 12.3008 2.74707ZM6.98584 5.24951C6.85595 5.24951 6.72898 5.21099 6.62098 5.13883C6.51298 5.06666 6.4288 4.9641 6.37909 4.84409C6.32939 4.72409 6.31638 4.59204 6.34172 4.46465C6.36706 4.33725 6.42961 4.22023 6.52146 4.12839C6.6133 4.03654 6.73032 3.97399 6.85772 3.94865C6.98511 3.92331 7.11716 3.93632 7.23716 3.98602C7.35717 4.03573 7.45974 4.11991 7.5319 4.22791C7.60406 4.33591 7.64258 4.46288 7.64258 4.59277C7.64213 4.76681 7.57279 4.93359 7.44973 5.05666C7.32666 5.17972 7.15988 5.24906 6.98584 5.24951ZM12.0737 5.24951C11.9438 5.24951 11.8169 5.21099 11.7089 5.13883C11.6009 5.06666 11.5167 4.9641 11.467 4.84409C11.4173 4.72409 11.4043 4.59204 11.4296 4.46465C11.455 4.33725 11.5175 4.22023 11.6093 4.12839C11.7012 4.03654 11.8182 3.97399 11.9456 3.94865C12.073 3.92331 12.2051 3.93632 12.3251 3.98602C12.4451 4.03573 12.5476 4.11991 12.6198 4.22791C12.692 4.33591 12.7305 4.46288 12.7305 4.59277C12.73 4.76681 12.6607 4.93359 12.5376 5.05666C12.4146 5.17972 12.2478 5.24906 12.0737 5.24951ZM17.5278 7.708C16.7905 7.708 16.1948 8.31347 16.1948 9.06054V14.3437C16.1948 15.0884 16.793 15.6963 17.5278 15.6963C18.2651 15.6963 18.8608 15.0908 18.8608 14.3437V9.0581C18.8633 8.31103 18.2676 7.708 17.5278 7.708ZM1.44873 7.708C0.711426 7.708 0.115723 8.31347 0.115723 9.06054V14.3437C0.115723 15.0884 0.713867 15.6963 1.44873 15.6963C2.18604 15.6963 2.78174 15.0908 2.78174 14.3437V9.0581C2.78174 8.31103 2.18359 7.708 1.44873 7.708Z" fill="#091F2C"/>
</svg>
