<svg width="19" height="23" viewBox="0 0 19 23" fill="none" xmlns="http://www.w3.org/2000/svg">
<path d="M3.58252 16.8081C3.58252 17.3794 4.04883 17.8457 4.62256 17.8457H5.81152V20.7852C5.81152 21.5298 6.40967 22.1377 7.14453 22.1377C7.88184 22.1377 8.47754 21.5322 8.47754 20.7852V17.8433H10.5527V20.7827C10.5527 21.5273 11.1509 22.1353 11.8857 22.1353C12.623 22.1353 13.2188 21.5298 13.2188 20.7827V17.8433H14.4077C14.9814 17.8433 15.4478 17.3769 15.4478 16.8057V7.15722H3.58252V16.8081ZM12.3008 2.15722L13.397 0.570309C13.4605 0.477536 13.4458 0.353024 13.3604 0.291989C13.2749 0.233395 13.1528 0.262692 13.0894 0.355466L11.9517 2.00586C11.2021 1.71045 10.3672 1.54687 9.49072 1.54687C8.61426 1.54687 7.7793 1.71045 7.02979 2.00586L5.89209 0.357907C5.82861 0.265134 5.70654 0.233396 5.62109 0.294431C5.53565 0.353024 5.521 0.475095 5.58447 0.572751L6.68066 2.15966C4.9375 2.97021 3.7168 4.50586 3.56055 6.30029H15.4258C15.2646 4.50341 14.0415 2.96777 12.3008 2.15722ZM6.98584 4.65967C6.85595 4.65967 6.72898 4.62115 6.62098 4.54898C6.51298 4.47682 6.4288 4.37425 6.37909 4.25425C6.32939 4.13425 6.31638 4.0022 6.34172 3.8748C6.36706 3.74741 6.42961 3.63039 6.52146 3.53854C6.6133 3.4467 6.73032 3.38415 6.85772 3.35881C6.98511 3.33347 7.11716 3.34647 7.23716 3.39618C7.35717 3.44589 7.45974 3.53006 7.5319 3.63806C7.60406 3.74606 7.64258 3.87304 7.64258 4.00293C7.64213 4.17697 7.57279 4.34375 7.44973 4.46681C7.32666 4.58988 7.15988 4.65921 6.98584 4.65967ZM12.0737 4.65967C11.9438 4.65967 11.8169 4.62115 11.7089 4.54898C11.6009 4.47682 11.5167 4.37425 11.467 4.25425C11.4173 4.13425 11.4043 4.0022 11.4296 3.8748C11.455 3.74741 11.5175 3.63039 11.6093 3.53854C11.7012 3.4467 11.8182 3.38415 11.9456 3.35881C12.073 3.33347 12.2051 3.34647 12.3251 3.39618C12.4451 3.44589 12.5476 3.53006 12.6198 3.63806C12.692 3.74606 12.7305 3.87304 12.7305 4.00293C12.73 4.17697 12.6607 4.34375 12.5376 4.46681C12.4146 4.58988 12.2478 4.65921 12.0737 4.65967ZM17.5278 7.11816C16.7905 7.11816 16.1948 7.72363 16.1948 8.4707V13.7539C16.1948 14.4985 16.793 15.1064 17.5278 15.1064C18.2651 15.1064 18.8608 14.501 18.8608 13.7539V8.46826C18.8633 7.72119 18.2676 7.11816 17.5278 7.11816ZM1.44873 7.11816C0.711426 7.11816 0.115723 7.72363 0.115723 8.4707V13.7539C0.115723 14.4985 0.713867 15.1064 1.44873 15.1064C2.18604 15.1064 2.78174 14.501 2.78174 13.7539V8.46826C2.78174 7.72119 2.18359 7.11816 1.44873 7.11816Z" fill="#48CC7F"/>
</svg>
