<svg width="19" height="21" viewBox="0 0 19 21" fill="none" xmlns="http://www.w3.org/2000/svg">
<path d="M9.49989 6.81254C9.81069 6.81254 10.1088 6.68908 10.3285 6.46931C10.5483 6.24954 10.6718 5.95147 10.6718 5.64067C10.6718 5.32987 10.5483 5.0318 10.3285 4.81203C10.1088 4.59226 9.81069 4.46879 9.49989 4.46879C9.18909 4.46879 8.89102 4.59226 8.67125 4.81203C8.45148 5.0318 8.32801 5.32987 8.32801 5.64067C8.32801 5.95147 8.45148 6.24954 8.67125 6.46931C8.89102 6.68908 9.18909 6.81254 9.49989 6.81254ZM10.6499 1.27348C10.3248 1.00932 9.91875 0.865112 9.49989 0.865112C9.08103 0.865112 8.67494 1.00932 8.34989 1.27348L0.534264 7.62504C-0.415736 8.40004 0.131139 9.93754 1.35614 9.93754H1.68739V16.5C0.759264 16.9735 0.124889 17.9375 0.124889 19.0516V20.0938C0.124889 20.301 0.207199 20.4997 0.353712 20.6462C0.500225 20.7927 0.698938 20.875 0.906139 20.875H18.0936C18.3008 20.875 18.4996 20.7927 18.6461 20.6462C18.7926 20.4997 18.8749 20.301 18.8749 20.0938V19.0516C18.8749 17.9391 18.2405 16.9735 17.3124 16.5V9.93754H17.6436C18.8686 9.93754 19.4155 8.39848 18.464 7.62504L10.6515 1.27192L10.6499 1.27348ZM9.33739 2.48598C9.38383 2.44843 9.44174 2.42795 9.50145 2.42795C9.56117 2.42795 9.61908 2.44843 9.66551 2.48598L16.9077 8.37504H2.09051L9.33739 2.48442V2.48598ZM15.7499 16.1875H14.1874V9.93754H15.7499V16.1875ZM12.6249 16.1875H10.2811V9.93754H12.6249V16.1875ZM8.71864 16.1875H6.37489V9.93754H8.71864V16.1875ZM16.0108 17.75C16.7296 17.75 17.3124 18.3329 17.3124 19.0516V19.3125H1.68739V19.0516C1.68739 18.3329 2.2702 17.75 2.98895 17.75H16.0108ZM4.81239 16.1875H3.24989V9.93754H4.81239V16.1875Z" fill="black"/>
</svg>
