<?xml version="1.0" standalone="no"?><!DOCTYPE svg PUBLIC "-//W3C//DTD SVG 1.1//EN" "http://www.w3.org/Graphics/SVG/1.1/DTD/svg11.dtd"><svg t="1631765077821" class="icon" viewBox="0 0 1024 1024" version="1.1" xmlns="http://www.w3.org/2000/svg" p-id="1201" width="32" height="32" xmlns:xlink="http://www.w3.org/1999/xlink"><defs><style type="text/css"></style></defs><path d="M512 51.2C258.048 51.2 51.2 258.048 51.2 512s206.848 460.8 460.8 460.8 460.8-206.848 460.8-460.8S765.952 51.2 512 51.2z m239.616 321.536l-307.2 307.2c-4.096 4.096-9.216 6.144-14.336 6.144s-10.24-2.048-14.336-6.144l-153.6-153.6c-8.192-8.192-8.192-20.48 0-28.672s20.48-8.192 28.672 0L430.08 636.928l292.864-292.864c8.192-8.192 20.48-8.192 28.672 0 8.192 8.192 8.192 20.48 0 28.672z" p-id="1202" fill="#20bf55"></path></svg>