<svg width="17" height="21" viewBox="0 0 17 21" fill="none" xmlns="http://www.w3.org/2000/svg">
<path d="M9 20.5L8.75 17.5H8.5C6.13333 17.5 4.125 16.675 2.475 15.025C0.825 13.375 0 11.3667 0 9C0 6.63333 0.825 4.625 2.475 2.975C4.125 1.325 6.13333 0.5 8.5 0.5C9.68333 0.5 10.7875 0.720833 11.8125 1.1625C12.8375 1.60417 13.7375 2.2125 14.5125 2.9875C15.2875 3.7625 15.8958 4.6625 16.3375 5.6875C16.7792 6.7125 17 7.81667 17 9C17 10.25 16.7958 11.45 16.3875 12.6C15.9792 13.75 15.4208 14.8167 14.7125 15.8C14.0042 16.7833 13.1625 17.675 12.1875 18.475C11.2125 19.275 10.15 19.95 9 20.5ZM11 16.85C12.1833 15.85 13.1458 14.6792 13.8875 13.3375C14.6292 11.9958 15 10.55 15 9C15 7.18333 14.3708 5.64583 13.1125 4.3875C11.8542 3.12917 10.3167 2.5 8.5 2.5C6.68333 2.5 5.14583 3.12917 3.8875 4.3875C2.62917 5.64583 2 7.18333 2 9C2 10.8167 2.62917 12.3542 3.8875 13.6125C5.14583 14.8708 6.68333 15.5 8.5 15.5H11V16.85ZM8.475 14.475C8.75833 14.475 9 14.375 9.2 14.175C9.4 13.975 9.5 13.7333 9.5 13.45C9.5 13.1667 9.4 12.925 9.2 12.725C9 12.525 8.75833 12.425 8.475 12.425C8.19167 12.425 7.95 12.525 7.75 12.725C7.55 12.925 7.45 13.1667 7.45 13.45C7.45 13.7333 7.55 13.975 7.75 14.175C7.95 14.375 8.19167 14.475 8.475 14.475ZM7.75 11.3H9.25C9.25 10.8 9.3 10.45 9.4 10.25C9.5 10.05 9.81667 9.68333 10.35 9.15C10.65 8.85 10.9 8.525 11.1 8.175C11.3 7.825 11.4 7.45 11.4 7.05C11.4 6.2 11.1125 5.5625 10.5375 5.1375C9.9625 4.7125 9.28333 4.5 8.5 4.5C7.76667 4.5 7.15 4.70417 6.65 5.1125C6.15 5.52083 5.8 6.01667 5.6 6.6L7 7.15C7.08333 6.86667 7.24167 6.5875 7.475 6.3125C7.70833 6.0375 8.05 5.9 8.5 5.9C8.95 5.9 9.2875 6.025 9.5125 6.275C9.7375 6.525 9.85 6.8 9.85 7.1C9.85 7.38333 9.76667 7.6375 9.6 7.8625C9.43333 8.0875 9.23333 8.31667 9 8.55C8.41667 9.05 8.0625 9.44583 7.9375 9.7375C7.8125 10.0292 7.75 10.55 7.75 11.3Z" fill="#0BAB47"/>
</svg>
