<svg width="16" height="15" viewBox="0 0 16 15" fill="none" xmlns="http://www.w3.org/2000/svg">
<path d="M14.6995 1.35H11.5495V0.15C11.5495 0.0675 11.482 0 11.3995 0H10.3495C10.267 0 10.1995 0.0675 10.1995 0.15V1.35H5.3995V0.15C5.3995 0.0675 5.332 0 5.2495 0H4.1995C4.117 0 4.0495 0.0675 4.0495 0.15V1.35H0.8995C0.567625 1.35 0.2995 1.61813 0.2995 1.95V14.4C0.2995 14.7319 0.567625 15 0.8995 15H14.6995C15.0314 15 15.2995 14.7319 15.2995 14.4V1.95C15.2995 1.61813 15.0314 1.35 14.6995 1.35ZM13.9495 13.65H1.6495V6.525H13.9495V13.65ZM1.6495 5.25V2.7H4.0495V3.6C4.0495 3.6825 4.117 3.75 4.1995 3.75H5.2495C5.332 3.75 5.3995 3.6825 5.3995 3.6V2.7H10.1995V3.6C10.1995 3.6825 10.267 3.75 10.3495 3.75H11.3995C11.482 3.75 11.5495 3.6825 11.5495 3.6V2.7H13.9495V5.25H1.6495Z" fill="#74788D"/>
</svg>
