<svg width="25" height="25" viewBox="0 0 25 25" fill="none" xmlns="http://www.w3.org/2000/svg">
<g clip-path="url(#clip0_361_4270)">
<path d="M22.222 4.16663H2.77756C2.4092 4.16663 2.05594 4.31295 1.79547 4.57342C1.535 4.83389 1.38867 5.18716 1.38867 5.55551V19.4444C1.38867 19.8128 1.535 20.166 1.79547 20.4265C2.05594 20.687 2.4092 20.8333 2.77756 20.8333H13.1942L13.5901 20.3472L14.2359 19.5555L14.1734 19.4444H2.77756V5.55551H22.222V11.5C22.7496 11.8415 23.2186 12.2659 23.6109 12.7569V5.55551C23.6109 5.18716 23.4646 4.83389 23.2041 4.57342C22.9436 4.31295 22.5904 4.16663 22.222 4.16663Z" fill="black"/>
<path d="M4.86133 8.33337H16.6669V9.44449H4.86133V8.33337Z" fill="black"/>
<path d="M4.86133 11.1111H12.5002V12.2222H4.86133V11.1111Z" fill="black"/>
<path d="M4.86133 15.9722H11.8058V17.0833H4.86133V15.9722Z" fill="black"/>
<path d="M19.0694 11.9652C18.1808 11.9582 17.3106 12.2194 16.5728 12.7147C15.8349 13.21 15.2636 13.9163 14.9336 14.7414C14.6035 15.5666 14.5301 16.4721 14.7228 17.3396C14.9155 18.2071 15.3655 18.9964 16.0139 19.6041L14.6666 21.2499L15.2916 23.7569L17.8333 20.6597C18.6378 20.8976 19.494 20.8976 20.2986 20.6597L22.8402 23.7569L23.4652 21.2499L22.118 19.6041C22.7664 18.9964 23.2164 18.2071 23.4091 17.3396C23.6018 16.4721 23.5284 15.5666 23.1983 14.7414C22.8683 13.9163 22.297 13.21 21.5591 12.7147C20.8212 12.2194 19.9511 11.9582 19.0625 11.9652H19.0694ZM19.0694 19.3819C18.4793 19.3737 17.9048 19.1912 17.4181 18.8573C16.9314 18.5235 16.5542 18.0532 16.3341 17.5057C16.1139 16.9581 16.0606 16.3576 16.1807 15.7798C16.3009 15.202 16.5892 14.6726 17.0094 14.2581C17.4295 13.8437 17.9629 13.5628 18.5423 13.4506C19.1218 13.3385 19.7214 13.4001 20.2659 13.6278C20.8104 13.8555 21.2754 14.2391 21.6025 14.7304C21.9295 15.2217 22.1041 15.7987 22.1041 16.3888C22.0968 17.1876 21.7734 17.9509 21.2047 18.5119C20.6359 19.0728 19.8682 19.3856 19.0694 19.3819Z" fill="black"/>
</g>
<defs>
<clipPath id="clip0_361_4270">
<rect width="25" height="25" fill="white"/>
</clipPath>
</defs>
</svg>
