<svg id="feedback" xmlns="http://www.w3.org/2000/svg" viewBox="0 0 18 18"><defs><style>.cls-1,.cls-2,.cls-3,.cls-4{fill:none;stroke:#7a7a7a;}.cls-1{stroke-linecap:round;}.cls-1,.cls-3,.cls-4{stroke-linejoin:round;}.cls-1,.cls-2,.cls-3{stroke-width:0.5px;}.cls-2{stroke-miterlimit:10;}.cls-4{stroke-width:0.5px;}</style></defs><title>Icon_index(F)</title><path class="cls-1" d="M13.27,9v7.64a.89.89,0,0,1-.88.88h-11a.88.88,0,0,1-.88-.88V5a1,1,0,0,1,.3-.62L4.69.72A.94.94,0,0,1,5.3.48h7.09a.89.89,0,0,1,.88.88v.72"/><path class="cls-2" d="M4.94.48V4a.69.69,0,0,1-.69.69H.54"/><path class="cls-3" d="M15.82,4.26,8.09,12.14c-.5.51-2,1.41-2.42,1s.47-1.94,1-2.45l7.72-7.88Z"/><rect class="cls-4" x="15.68" y="1.29" width="1.27" height="2.04" transform="translate(3.24 12.34) rotate(-45.55)"/></svg>