<svg id="callback" xmlns="http://www.w3.org/2000/svg" viewBox="0 0 18 18"><defs><style>.cls-1,.cls-2{fill:none;stroke:#7a7a7a;stroke-width:0.5px;}.cls-1{stroke-linecap:round;stroke-linejoin:round;}.cls-2{stroke-miterlimit:10;}</style></defs><title>Icon_index(F)</title><path class="cls-1" d="M10.09,4.26a3.82,3.82,0,0,1,2.19,1,3,3,0,0,1,1,2.3"/><path class="cls-1" d="M10.45,1.46A6.41,6.41,0,0,1,14.21,3.2a5.13,5.13,0,0,1,1.72,3.86"/><path class="cls-2" d="M17.18,13.86a4.09,4.09,0,0,1-1.47,2.39,3.14,3.14,0,0,1-1.83.94h-.1a13.43,13.43,0,0,1-5.84-2,15.34,15.34,0,0,1-4.13-3.77A16.16,16.16,0,0,1,1.42,7.2,7.45,7.45,0,0,1,.86,3.72a4.05,4.05,0,0,1,.92-1.5A4.79,4.79,0,0,1,3.47.93a1.31,1.31,0,0,1,1.37.16A14.13,14.13,0,0,1,6.67,3.14c1.15,1.56,1.06,2.17.89,2.49A3.89,3.89,0,0,1,6.07,6.91a7.84,7.84,0,0,0-.73.47c-.18.16-.18.23-.18.23A2.68,2.68,0,0,0,5.81,9a13.69,13.69,0,0,0,1.67,1.88,15.13,15.13,0,0,0,1.83,1.51c.78.53,1.06.54,1.08.54s.11,0,.33-.28a9.45,9.45,0,0,0,.58-.9,4,4,0,0,1,1.07-1.37c.38-.25,1-.15,1.76.29a10.24,10.24,0,0,1,2,1.5,5.55,5.55,0,0,1,.72.82A1.56,1.56,0,0,1,17.18,13.86Z"/></svg>