<svg width="26" height="25" viewBox="0 0 26 25" fill="none" xmlns="http://www.w3.org/2000/svg">
<path d="M12.5663 7.81242C12.8771 7.81242 13.1752 7.68895 13.3949 7.46919C13.6147 7.24942 13.7382 6.95135 13.7382 6.64054C13.7382 6.32974 13.6147 6.03167 13.3949 5.8119C13.1752 5.59213 12.8771 5.46867 12.5663 5.46867C12.2555 5.46867 11.9574 5.59213 11.7377 5.8119C11.5179 6.03167 11.3944 6.32974 11.3944 6.64054C11.3944 6.95135 11.5179 7.24942 11.7377 7.46919C11.9574 7.68895 12.2555 7.81242 12.5663 7.81242ZM13.7163 2.27336C13.3912 2.00919 12.9852 1.86499 12.5663 1.86499C12.1474 1.86499 11.7413 2.00919 11.4163 2.27336L3.60067 8.62492C2.65067 9.39992 3.19755 10.9374 4.42255 10.9374H4.7538V17.4999C3.82567 17.9734 3.1913 18.9374 3.1913 20.0515V21.0937C3.1913 21.3009 3.27361 21.4996 3.42012 21.6461C3.56663 21.7926 3.76534 21.8749 3.97255 21.8749H21.16C21.3672 21.8749 21.566 21.7926 21.7125 21.6461C21.859 21.4996 21.9413 21.3009 21.9413 21.0937V20.0515C21.9413 18.939 21.3069 17.9734 20.3788 17.4999V10.9374H20.71C21.935 10.9374 22.4819 9.39836 21.5304 8.62492L13.7179 2.27179L13.7163 2.27336ZM12.4038 3.48586C12.4502 3.44831 12.5081 3.42783 12.5679 3.42783C12.6276 3.42783 12.6855 3.44831 12.7319 3.48586L19.9741 9.37492H5.15692L12.4038 3.48429V3.48586ZM18.8163 17.1874H17.2538V10.9374H18.8163V17.1874ZM15.6913 17.1874H13.3475V10.9374H15.6913V17.1874ZM11.785 17.1874H9.4413V10.9374H11.785V17.1874ZM19.0772 18.7499C19.796 18.7499 20.3788 19.3327 20.3788 20.0515V20.3124H4.7538V20.0515C4.7538 19.3327 5.33661 18.7499 6.05536 18.7499H19.0772ZM7.8788 17.1874H6.3163V10.9374H7.8788V17.1874Z" fill="black"/>
</svg>
