<svg width="21" height="20" viewBox="0 0 21 20" fill="none" xmlns="http://www.w3.org/2000/svg">
<path d="M10.8233 0C5.30334 0 0.833344 4.48 0.833344 10C0.833344 15.52 5.30334 20 10.8233 20C16.3533 20 20.8333 15.52 20.8333 10C20.8333 4.48 16.3533 0 10.8233 0ZM17.7533 6H14.8033C14.4833 4.75 14.0233 3.55 13.4233 2.44C15.2633 3.07 16.7933 4.35 17.7533 6ZM10.8333 2.04C11.6633 3.24 12.3133 4.57 12.7433 6H8.92334C9.35334 4.57 10.0033 3.24 10.8333 2.04ZM3.09334 12C2.93334 11.36 2.83334 10.69 2.83334 10C2.83334 9.31 2.93334 8.64 3.09334 8H6.47334C6.39334 8.66 6.33334 9.32 6.33334 10C6.33334 10.68 6.39334 11.34 6.47334 12H3.09334ZM3.91334 14H6.86334C7.18334 15.25 7.64334 16.45 8.24334 17.56C6.40334 16.93 4.87334 15.66 3.91334 14ZM6.86334 6H3.91334C4.87334 4.34 6.40334 3.07 8.24334 2.44C7.64334 3.55 7.18334 4.75 6.86334 6ZM10.8333 17.96C10.0033 16.76 9.35334 15.43 8.92334 14H12.7433C12.3133 15.43 11.6633 16.76 10.8333 17.96ZM13.1733 12H8.49334C8.40334 11.34 8.33334 10.68 8.33334 10C8.33334 9.32 8.40334 8.65 8.49334 8H13.1733C13.2633 8.65 13.3333 9.32 13.3333 10C13.3333 10.68 13.2633 11.34 13.1733 12ZM13.4233 17.56C14.0233 16.45 14.4833 15.25 14.8033 14H17.7533C16.7933 15.65 15.2633 16.93 13.4233 17.56ZM15.1933 12C15.2733 11.34 15.3333 10.68 15.3333 10C15.3333 9.32 15.2733 8.66 15.1933 8H18.5733C18.7333 8.64 18.8333 9.31 18.8333 10C18.8333 10.69 18.7333 11.36 18.5733 12H15.1933Z" fill="white"/>
</svg>
