<svg width="24" height="21" viewBox="0 0 24 21" fill="none" xmlns="http://www.w3.org/2000/svg">
<path fill-rule="evenodd" clip-rule="evenodd" d="M6.54722 6.33897L6.55046 6.33346L6.56863 6.30304C6.58573 6.27468 6.6127 6.23061 6.6491 6.17308C6.72198 6.05791 6.83219 5.88951 6.97622 5.68571C7.26563 5.27621 7.68472 4.73355 8.20479 4.195C9.01003 3.36118 9.95492 2.64253 10.9584 2.33133V18.6652C9.95963 18.349 9.01669 17.6207 8.21074 16.7722C7.69019 16.2242 7.27065 15.6719 6.98086 15.2551C6.83664 15.0476 6.72626 14.8761 6.65322 14.7588C6.61674 14.7002 6.58969 14.6552 6.57252 14.6263L6.55424 14.5952L6.55117 14.5899L6.55063 14.5889C6.36543 14.2635 6.0198 14.0625 5.64533 14.0625H2.62502V6.85942L5.64533 6.85942C6.01734 6.85942 6.36109 6.66103 6.54722 6.33897ZM5.06812 16.1459C5.12782 16.2364 5.1953 16.3364 5.27025 16.4442C5.6023 16.9219 6.08785 17.5623 6.70024 18.207C7.88437 19.4536 9.73315 20.9167 12 20.9167C12.5753 20.9167 13.0417 20.4503 13.0417 19.875V1.12504C13.0417 0.549744 12.5753 0.083374 12 0.083374C9.73996 0.083374 7.89279 1.51904 6.70618 2.74779C6.09332 3.38241 5.60733 4.01293 5.27489 4.48332C5.20015 4.58908 5.13282 4.68723 5.07322 4.77608H2.62502C2.07249 4.77608 1.54258 4.99557 1.15188 5.38628C0.76118 5.77698 0.541687 6.30688 0.541687 6.85942V14.0625C0.541687 14.6151 0.76118 15.145 1.15188 15.5357C1.54258 15.9264 2.07249 16.1459 2.62502 16.1459H5.06812Z" fill="#091F2C"/>
<path fill-rule="evenodd" clip-rule="evenodd" d="M15.3899 5.11847C15.7733 4.68948 16.4318 4.65247 16.8608 5.0358C17.2411 5.37563 17.5844 5.75467 17.8851 6.16662C18.8025 7.42523 19.2955 8.94396 19.2917 10.5014L19.2917 10.5028L19.2917 10.5V10.5014C19.2914 12.1074 18.7787 13.597 17.9081 14.8026C17.6018 15.2263 17.2506 15.616 16.8607 15.9643C16.4317 16.3476 15.7732 16.3106 15.3899 15.8816C15.0066 15.4525 15.0437 14.794 15.4727 14.4107C15.7505 14.1625 16.0008 13.8849 16.2191 13.5829C16.8397 12.7233 17.2084 11.658 17.2084 10.5L17.2084 10.4973C17.2113 9.38244 16.8588 8.29564 16.2022 7.39464C15.988 7.10126 15.7435 6.83132 15.4726 6.58928C15.0436 6.20596 15.0066 5.54745 15.3899 5.11847Z" fill="#091F2C"/>
<path fill-rule="evenodd" clip-rule="evenodd" d="M16.5865 1.08748C16.8892 0.598217 17.5311 0.446934 18.0204 0.749575C21.2816 2.76685 23.4584 6.37841 23.4584 10.5C23.4584 14.6864 21.2129 18.3476 17.8651 20.3456C17.3711 20.6404 16.7316 20.4789 16.4368 19.9849C16.142 19.4909 16.3034 18.8514 16.7975 18.5566C19.5413 16.9191 21.375 13.9231 21.375 10.5C21.375 7.13001 19.5976 4.1749 16.9244 2.52134C16.4352 2.2187 16.2839 1.57674 16.5865 1.08748Z" fill="#091F2C"/>
</svg>
