<svg width="26" height="26" viewBox="0 0 26 26" fill="none" xmlns="http://www.w3.org/2000/svg">
<path d="M12.5735 21.0406C15.9287 21.0406 18.6485 18.3208 18.6485 14.9656C18.6485 11.6105 15.9287 8.89062 12.5735 8.89062C9.21841 8.89062 6.49854 11.6105 6.49854 14.9656C6.49854 18.3208 9.21841 21.0406 12.5735 21.0406Z" fill="#E58613"/>
<path d="M12.5734 19.806C15.2465 19.806 17.4134 17.639 17.4134 14.966C17.4134 12.2929 15.2465 10.126 12.5734 10.126C9.90034 10.126 7.7334 12.2929 7.7334 14.966C7.7334 17.639 9.90034 19.806 12.5734 19.806Z" fill="white"/>
<path d="M14.4183 16.6057H13.6983V17.8457H12.4683V16.6057H9.96826V15.7257L12.5383 11.8857H13.6983V15.6507H14.4183V16.6057ZM12.4683 15.6057V14.4557C12.4683 14.3857 12.4683 14.3107 12.4683 14.2257C12.4683 14.1407 12.4683 14.0557 12.4683 13.9657V13.7057C12.4683 13.6257 12.4683 13.5557 12.4683 13.4907C12.4683 13.4257 12.4683 13.3857 12.4683 13.3607H12.4333L12.2683 13.7257C12.2083 13.8507 12.1333 13.9807 12.0583 14.1107L11.0583 15.6107L12.4683 15.6057Z" fill="black"/>
<path d="M12.5934 6.94574C13.9438 6.94574 15.0384 5.58916 15.0384 3.91574C15.0384 2.24232 13.9438 0.885742 12.5934 0.885742C11.2431 0.885742 10.1484 2.24232 10.1484 3.91574C10.1484 5.58916 11.2431 6.94574 12.5934 6.94574Z" fill="#678925"/>
<path d="M16.4832 9.43074C16.6703 8.92971 16.8109 8.41253 16.9032 7.88574C17.2882 8.07574 17.5782 9.57074 17.5382 10.3507C18.6505 11.5295 19.3049 13.067 19.3832 14.6857C20.1832 13.4607 22.5282 4.98574 15.4532 2.88574C15.8332 7.04574 12.9982 7.51574 12.6682 7.52574C12.3382 7.53574 9.26325 7.14074 9.66825 2.96074C5.01825 3.97574 4.62825 8.25574 4.76325 9.82574C5.772 9.25213 6.89591 8.91052 8.05325 8.82574C8.12983 8.47937 8.2894 8.15679 8.51825 7.88574C8.51825 8.25574 8.54325 8.46574 8.54825 8.77074C8.77325 8.74074 9.37325 8.68074 10.1532 8.65074C11.1926 8.25517 12.313 8.12035 13.4166 8.25807C14.5201 8.39579 15.573 8.80186 16.4832 9.44074V9.43074Z" fill="#678925"/>
<path d="M24.8083 21.9049C25.4837 20.7356 24.8565 19.1092 23.4074 18.2722C21.9583 17.4353 20.2361 17.7047 19.5608 18.874C18.8854 20.0433 19.5126 21.6697 20.9617 22.5067C22.4108 23.3436 24.133 23.0742 24.8083 21.9049Z" fill="#2F6FA8"/>
<path d="M19.0036 18.6354C19.1736 18.3354 21.0386 15.8804 24.4486 18.3354C25.9186 13.7954 22.4086 11.3354 20.9786 10.6504C20.9822 11.8134 20.7224 12.9622 20.2186 14.0104C20.4768 14.2524 20.6739 14.5523 20.7936 14.8854L20.0086 14.4704C19.9236 14.6754 19.6886 15.2004 19.3386 15.8704C19.1959 16.9898 18.7777 18.0563 18.1215 18.9743C17.4653 19.8923 16.5915 20.6331 15.5786 21.1304C15.8928 21.4907 16.2356 21.8251 16.6036 22.1304C16.2836 22.3404 15.1036 21.9604 14.3686 21.5754C12.7926 21.9991 11.1172 21.8466 9.64355 21.1454C10.8336 22.8854 16.5786 28.1604 21.6286 23.3854C17.8336 21.6204 18.8436 18.9254 19.0036 18.6354Z" fill="#2F6FA8"/>
<path d="M5.57835 18.8561C4.89835 17.6861 3.17835 17.4212 1.72835 18.2562C0.278351 19.0912 -0.326649 20.7212 0.353351 21.8862C1.03335 23.0512 2.75335 23.3262 4.19835 22.4862C5.64335 21.6462 6.26835 20.0261 5.57835 18.8561Z" fill="#C1A840"/>
<path d="M5.76337 15.0109C5.76337 14.7509 5.76337 14.5109 5.80837 14.2409C5.27283 14.3305 4.74709 14.4711 4.23837 14.6609C4.20837 14.2159 5.43337 13.1609 6.11837 12.8409C6.49098 11.7321 7.14374 10.7383 8.01337 9.95593C8.31315 9.6397 8.64874 9.35948 9.01337 9.12093C8.07837 8.88593 -1.14163 10.9809 0.668374 18.3859C4.07337 15.9709 5.90337 18.1859 6.07337 18.4709C6.24337 18.7559 7.45337 21.6259 3.62837 23.3859C6.82337 26.8859 10.7234 25.0909 12.0184 24.1859C11.0078 23.6091 10.1411 22.8108 9.48337 21.8509C9.14603 21.9507 8.79051 21.9729 8.44337 21.9159L9.19337 21.4159C9.08337 21.2709 8.83337 20.9159 8.52837 20.4609C7.6742 19.8312 6.97926 19.0104 6.49914 18.064C6.01901 17.1177 5.76704 16.0721 5.76337 15.0109Z" fill="#C1A840"/>
</svg>
