<svg width="25" height="25" viewBox="0 0 25 25" fill="none" xmlns="http://www.w3.org/2000/svg">
<path d="M13.7583 8.82087H15.6219C15.8803 8.82106 16.1346 8.88533 16.362 9.00791C16.5895 9.13049 16.783 9.30757 16.9252 9.52329C17.0674 9.73901 17.154 9.98663 17.177 10.244C17.2001 10.5013 17.1589 10.7604 17.0573 10.998L12.9323 20.6261C12.8327 20.8566 12.6568 21.0458 12.434 21.1619C12.2113 21.2779 11.9554 21.3137 11.7094 21.2632C11.4634 21.2127 11.2423 21.079 11.0834 20.8846C10.9244 20.6902 10.8372 20.447 10.8365 20.1959V12.9875L9.32292 12.9407C8.91761 12.9271 8.53343 12.7566 8.25158 12.465C7.96973 12.1734 7.81227 11.7837 7.8125 11.3782V5.20837C7.8125 4.79397 7.97712 4.39655 8.27015 4.10352C8.56317 3.81049 8.9606 3.64587 9.375 3.64587H12.1958C12.6102 3.64587 13.0077 3.81049 13.3007 4.10352C13.5937 4.39655 13.7583 4.79397 13.7583 5.20837V8.82087Z" stroke="#48CC7F" stroke-width="1.5"/>
</svg>
