<svg width="26" height="18" viewBox="0 0 26 18" fill="none" xmlns="http://www.w3.org/2000/svg">
<path d="M25.3796 6.22874C24.4298 1.98945 18.1188 -0.200472 11.281 1.33129C4.44326 2.86306 -0.329387 7.54243 0.620413 11.7752C1.57021 16.0079 7.88119 18.2004 14.719 16.6687C21.5567 15.1369 26.3294 10.4601 25.3796 6.22874ZM23.8307 4.09399C23.9316 4.09373 24.0303 4.1234 24.1143 4.17925C24.1983 4.2351 24.2638 4.31462 24.3026 4.40773C24.3414 4.50085 24.3517 4.60337 24.3321 4.70234C24.3126 4.8013 24.2642 4.89224 24.1929 4.96366C24.1217 5.03507 24.0309 5.08375 23.932 5.10352C23.8331 5.1233 23.7305 5.11328 23.6373 5.07474C23.5441 5.0362 23.4644 4.97087 23.4083 4.88702C23.3523 4.80317 23.3223 4.70457 23.3223 4.6037C23.3223 4.46875 23.3759 4.3393 23.4712 4.24375C23.5665 4.14819 23.6958 4.09434 23.8307 4.09399ZM10.389 1.65052C10.49 1.65052 10.5887 1.68052 10.6726 1.73671C10.7565 1.79289 10.8219 1.87273 10.8603 1.9661C10.8988 2.05946 10.9086 2.16215 10.8886 2.26113C10.8687 2.36011 10.8197 2.45093 10.748 2.52205C10.6764 2.59318 10.5852 2.64141 10.486 2.66063C10.3869 2.67985 10.2843 2.66919 10.1912 2.63001C10.0982 2.59082 10.0188 2.52488 9.9633 2.44054C9.90777 2.3562 9.87854 2.25727 9.87932 2.15629C9.87932 2.08942 9.89252 2.0232 9.91815 1.96143C9.94378 1.89967 9.98134 1.84356 10.0287 1.79634C10.076 1.74911 10.1322 1.71169 10.1941 1.68622C10.2559 1.66074 10.3222 1.64772 10.389 1.64789M2.24414 13.8652C2.14333 13.8652 2.04478 13.8353 1.96096 13.7793C1.87713 13.7233 1.8118 13.6437 1.77322 13.5506C1.73465 13.4574 1.72455 13.355 1.74422 13.2561C1.76389 13.1572 1.81243 13.0664 1.88372 12.9951C1.955 12.9238 2.04582 12.8753 2.1447 12.8556C2.24357 12.8359 2.34606 12.846 2.4392 12.8846C2.53233 12.9232 2.61194 12.9885 2.66795 13.0723C2.72396 13.1562 2.75385 13.2547 2.75385 13.3555C2.75385 13.4907 2.70015 13.6204 2.60456 13.7159C2.50897 13.8115 2.37932 13.8652 2.24414 13.8652ZM15.6872 16.3087C15.5862 16.309 15.4875 16.2793 15.4035 16.2234C15.3195 16.1674 15.2539 16.0879 15.2152 15.9947C15.1764 15.9015 15.1662 15.7989 15.1859 15.6999C15.2055 15.6009 15.2541 15.5099 15.3254 15.4386C15.3968 15.3672 15.4877 15.3186 15.5867 15.299C15.6857 15.2794 15.7883 15.2896 15.8815 15.3283C15.9747 15.3671 16.0543 15.4326 16.1102 15.5166C16.1661 15.6007 16.1958 15.6994 16.1956 15.8003C16.1952 15.935 16.1415 16.0642 16.0463 16.1594C15.951 16.2547 15.8219 16.3084 15.6872 16.3087ZM13.6365 15.4522C7.13764 16.0933 1.58335 13.7247 1.23128 10.1606C0.87921 6.59658 5.86336 3.18886 12.3635 2.5504C18.8637 1.91195 24.4167 4.27791 24.7687 7.84064C25.1208 11.4034 20.1353 14.8137 13.6365 15.4601" fill="white"/>
<path d="M5.77139 6.68441V8.76399H5.19599V6.68441H4.46558V6.18652H6.5018V6.68441H5.77139Z" fill="#092335"/>
<path d="M8.90717 7.04174C8.90717 7.45424 8.74295 7.72092 8.41716 7.84178L9.074 8.76136H8.36067L7.7879 7.93636H7.39379V8.76399H6.81445V6.18652H7.79184C8.19295 6.18652 8.4789 6.25396 8.64968 6.38883C8.82046 6.5237 8.90629 6.74134 8.90717 7.04174ZM8.21354 7.34783C8.25202 7.30753 8.28151 7.25953 8.30008 7.20699C8.31865 7.15446 8.32587 7.09858 8.32126 7.04305C8.32819 6.98927 8.32147 6.9346 8.30173 6.8841C8.28199 6.83359 8.24985 6.78886 8.20828 6.75404C8.08946 6.69219 7.95554 6.66531 7.82206 6.67653H7.38985V7.43979H7.81023C7.95082 7.45633 8.09281 7.42385 8.21222 7.34783H8.21354Z" fill="#092335"/>
<path d="M11.3953 8.76399L11.1549 8.20698H10.075L9.83459 8.76399H9.22241L10.3364 6.18652H10.8934L12.0074 8.76399H11.3953ZM10.6149 6.95372L10.2904 7.70121H10.9368L10.6149 6.95372Z" fill="#092335"/>
<path d="M14.1619 6.52283C14.2873 6.6437 14.3852 6.79016 14.4489 6.95224C14.5126 7.11433 14.5406 7.28823 14.5311 7.46212C14.539 7.6376 14.5102 7.81279 14.4466 7.97654C14.3831 8.14029 14.2861 8.28901 14.1619 8.41323C13.9229 8.64707 13.5563 8.76399 13.065 8.76399H12.1914V6.18652H13.1031C13.5603 6.18652 13.9132 6.29863 14.1619 6.52283ZM13.7403 8.05591C13.8143 7.97962 13.8715 7.88864 13.9082 7.78884C13.9448 7.68904 13.9601 7.58265 13.9531 7.47657C13.9597 7.36973 13.9443 7.26266 13.9077 7.16207C13.871 7.06147 13.814 6.96952 13.7403 6.89198C13.5565 6.74046 13.3206 6.66732 13.0834 6.68835H12.7629V8.25559H13.1281C13.3486 8.26994 13.5661 8.19838 13.735 8.05591H13.7403Z" fill="#092335"/>
<path d="M14.9646 6.18652H15.54V8.76399H14.9646V6.18652Z" fill="#092335"/>
<path d="M17.9218 6.18652H18.4972V8.76399H17.9218L16.6948 7.14815V8.76399H16.1194V6.18652H16.658L17.9218 7.84572V6.18652Z" fill="#092335"/>
<path d="M20.674 7.45199H21.256V8.37158C21.1207 8.51599 20.9555 8.62904 20.7719 8.70279C20.5883 8.77655 20.3908 8.80923 20.1932 8.79853C20.0171 8.80302 19.842 8.77208 19.6782 8.70753C19.5143 8.64299 19.3651 8.54616 19.2394 8.42281C19.113 8.29976 19.0136 8.15181 18.9473 7.98831C18.881 7.82482 18.8495 7.64935 18.8545 7.47301C18.8502 7.29497 18.883 7.11798 18.9509 6.95332C19.0187 6.78866 19.1201 6.63994 19.2486 6.51664C19.3726 6.39225 19.5203 6.29415 19.6831 6.22824C19.8459 6.16232 20.0202 6.12994 20.1958 6.13304C20.5502 6.12659 20.8938 6.25475 21.1574 6.49168L20.8619 6.92389C20.768 6.83708 20.6601 6.76689 20.5426 6.71632C20.4421 6.67739 20.3351 6.65778 20.2273 6.65852C20.1248 6.65633 20.0229 6.675 19.9279 6.71339C19.8328 6.75178 19.7465 6.8091 19.6743 6.88185C19.5984 6.95923 19.5393 7.05144 19.5006 7.1527C19.462 7.25396 19.4446 7.36211 19.4496 7.47038C19.4448 7.57727 19.4613 7.68404 19.4983 7.78444C19.5353 7.88483 19.592 7.97681 19.6651 8.05498C19.7312 8.125 19.8111 8.18062 19.8997 8.21837C19.9883 8.25612 20.0837 8.27518 20.18 8.27436C20.3533 8.28074 20.5252 8.24084 20.6779 8.15876L20.674 7.45199Z" fill="#092335"/>
<path d="M5.86335 11.5006C5.9973 11.5033 6.12999 11.4742 6.25055 11.4158C6.37111 11.3573 6.47612 11.2712 6.55698 11.1643L6.92481 11.5453C6.80309 11.6898 6.65319 11.8079 6.48428 11.8925C6.31536 11.9771 6.13097 12.0264 5.94236 12.0374C5.75376 12.0483 5.56491 12.0207 5.38734 11.9562C5.20977 11.8917 5.04722 11.7917 4.90961 11.6622C4.78323 11.5394 4.68376 11.3917 4.6175 11.2284C4.55124 11.0651 4.51964 10.8899 4.52469 10.7137C4.5205 10.5355 4.55337 10.3584 4.62121 10.1935C4.68905 10.0287 4.79039 9.87971 4.9188 9.75606C5.04459 9.63048 5.19456 9.53174 5.35962 9.4658C5.52469 9.39986 5.70142 9.36811 5.87911 9.37246C6.08012 9.37011 6.27916 9.41224 6.46199 9.49581C6.64481 9.57939 6.80689 9.70235 6.93663 9.8559L6.58194 10.2618C6.50373 10.1557 6.40156 10.0696 6.28377 10.0105C6.16597 9.95138 6.03587 9.92091 5.90407 9.92159C5.69815 9.9172 5.49869 9.99359 5.34838 10.1344C5.27104 10.2074 5.21043 10.2963 5.17074 10.3949C5.13105 10.4936 5.11323 10.5997 5.11848 10.7059C5.11352 10.8118 5.13031 10.9176 5.16782 11.0168C5.20532 11.116 5.26275 11.2064 5.33656 11.2826C5.40465 11.3532 5.48658 11.409 5.57722 11.4465C5.66786 11.4841 5.76526 11.5025 5.86335 11.5006Z" fill="#092335"/>
<path d="M9.07143 9.43164V9.94398H7.78795V10.4695H8.94269V10.9608H7.78795V11.4955H9.11215V12.0091H7.21387V9.43164H9.07143Z" fill="#092335"/>
<path d="M11.2444 9.43164H11.8198V12.0091H11.2444L10.0161 10.3946V12.0091H9.44067V9.43164H9.97929L11.2444 11.0895V9.43164Z" fill="#092335"/>
<path d="M13.4381 9.92953V12.0091H12.8627V9.92953H12.1323V9.43164H14.1685V9.92953H13.4381Z" fill="#092335"/>
<path d="M16.5725 10.2869C16.5725 10.7011 16.4091 10.9678 16.0825 11.0869L16.7393 12.0065H16.0273L15.4558 11.1841H15.0617V12.0091H14.4863V9.43164H15.4637C15.8578 9.43164 16.1508 9.49995 16.3216 9.63395C16.4923 9.76795 16.5725 9.98733 16.5725 10.2869ZM15.8788 10.5929C15.9178 10.5532 15.9476 10.5055 15.9662 10.4531C15.9848 10.4007 15.9918 10.3449 15.9866 10.2895C15.993 10.2364 15.9863 10.1825 15.9671 10.1325C15.9478 10.0826 15.9166 10.0382 15.8762 10.0031C15.7549 9.94026 15.6182 9.91337 15.4821 9.92559H15.0499V10.6954H15.4755C15.6178 10.7092 15.7604 10.6729 15.8788 10.5929Z" fill="#092335"/>
<path d="M18.9885 12.0091L18.7481 11.4521H17.6683L17.4279 12.0091H16.8157L17.9297 9.43164H18.4867L19.6007 12.0091H18.9885ZM18.2095 10.1988L17.885 10.9476H18.5314L18.2095 10.1988Z" fill="#092335"/>
<path d="M19.707 12.0091V9.43164H20.2824V11.4968H21.3872V12.0091H19.707Z" fill="#092335"/>
</svg>
