<svg width="13" height="12" viewBox="0 0 13 12" fill="none" xmlns="http://www.w3.org/2000/svg">
<path d="M10.8233 1.25556C11.0434 1.04602 11.3363 0.930168 11.6402 0.932468C11.9441 0.934767 12.2352 1.05503 12.4521 1.26789C12.669 1.48074 12.7947 1.76954 12.8028 2.07334C12.8108 2.37713 12.7005 2.67217 12.4952 2.89619L6.26078 10.6931C6.15357 10.8085 6.02419 10.9012 5.88036 10.9655C5.73652 11.0298 5.5812 11.0645 5.42367 11.0674C5.26614 11.0703 5.10963 11.0414 4.96352 10.9825C4.81741 10.9235 4.68468 10.8357 4.57327 10.7243L0.4389 6.58994C0.323764 6.48265 0.231417 6.35328 0.167367 6.20953C0.103317 6.06578 0.0688766 5.9106 0.0661003 5.75326C0.0633241 5.59591 0.0922692 5.43961 0.151208 5.29369C0.210147 5.14777 0.297873 5.01522 0.409153 4.90394C0.520432 4.79266 0.652985 4.70494 0.798904 4.646C0.944823 4.58706 1.10112 4.55811 1.25847 4.56089C1.41581 4.56367 1.57099 4.59811 1.71474 4.66216C1.85849 4.72621 1.98787 4.81855 2.09515 4.93369L5.36703 8.204L10.7936 1.28994C10.8034 1.27791 10.8138 1.26643 10.8248 1.25556H10.8233Z" fill="#48CC7F"/>
</svg>
