<svg width="26" height="26" viewBox="0 0 26 26" fill="none" xmlns="http://www.w3.org/2000/svg">
<path d="M12.5735 21.0406C15.9287 21.0406 18.6485 18.3208 18.6485 14.9656C18.6485 11.6105 15.9287 8.89062 12.5735 8.89062C9.21841 8.89062 6.49854 11.6105 6.49854 14.9656C6.49854 18.3208 9.21841 21.0406 12.5735 21.0406Z" fill="#E58613"/>
<path d="M12.5734 19.806C15.2465 19.806 17.4134 17.639 17.4134 14.966C17.4134 12.2929 15.2465 10.126 12.5734 10.126C9.90034 10.126 7.7334 12.2929 7.7334 14.966C7.7334 17.639 9.90034 19.806 12.5734 19.806Z" fill="white"/>
<path d="M12.7835 14.0811C13.027 14.0791 13.269 14.1197 13.4985 14.2011C13.7125 14.2771 13.9096 14.3943 14.0785 14.5461C14.2452 14.7091 14.3763 14.9049 14.4635 15.1211C14.5485 15.3669 14.5875 15.6262 14.5785 15.8861C14.5834 16.183 14.5325 16.4781 14.4285 16.7561C14.3344 17.0068 14.1819 17.2314 13.9835 17.4111C13.7722 17.5996 13.5234 17.741 13.2535 17.8261C12.9294 17.9245 12.592 17.9718 12.2535 17.9661C12.1052 17.9736 11.9567 17.9736 11.8085 17.9661C11.6655 17.9567 11.5234 17.9366 11.3835 17.9061C11.2526 17.8834 11.1238 17.85 10.9985 17.8061C10.8845 17.7694 10.774 17.7226 10.6685 17.6661V16.5711C10.7768 16.6296 10.8887 16.6814 11.0035 16.7261C11.1308 16.7744 11.261 16.8144 11.3935 16.8461C11.5269 16.8816 11.662 16.91 11.7985 16.9311C11.9276 16.9503 12.0579 16.9603 12.1885 16.9611C12.4849 16.9822 12.7796 16.901 13.0235 16.7311C13.1255 16.6428 13.205 16.5314 13.2554 16.4062C13.3059 16.281 13.3258 16.1456 13.3135 16.0111C13.3214 15.8847 13.3003 15.7582 13.2517 15.6412C13.2032 15.5242 13.1285 15.4198 13.0335 15.3361C12.778 15.163 12.4712 15.0819 12.1635 15.1061H11.9385L11.6985 15.1411L11.4785 15.1811L11.2935 15.2311L10.7935 14.9611L11.0185 11.9111H14.1785V12.9811H12.1285L12.0285 14.1561L12.3335 14.1011C12.4826 14.0821 12.6332 14.0754 12.7835 14.0811Z" fill="black"/>
<path d="M12.5934 6.94574C13.9438 6.94574 15.0384 5.58916 15.0384 3.91574C15.0384 2.24232 13.9438 0.885742 12.5934 0.885742C11.2431 0.885742 10.1484 2.24232 10.1484 3.91574C10.1484 5.58916 11.2431 6.94574 12.5934 6.94574Z" fill="#678925"/>
<path d="M16.4832 9.43074C16.6703 8.92971 16.8109 8.41253 16.9032 7.88574C17.2882 8.07574 17.5782 9.57074 17.5382 10.3507C18.6505 11.5295 19.3049 13.067 19.3832 14.6857C20.1832 13.4607 22.5282 4.98574 15.4532 2.88574C15.8332 7.04574 12.9982 7.51574 12.6682 7.52574C12.3382 7.53574 9.26325 7.14074 9.66825 2.96074C5.01825 3.97574 4.62825 8.25574 4.76325 9.82574C5.772 9.25213 6.89591 8.91052 8.05325 8.82574C8.12983 8.47937 8.2894 8.15679 8.51825 7.88574C8.51825 8.25574 8.54325 8.46574 8.54825 8.77074C8.77325 8.74074 9.37325 8.68074 10.1532 8.65074C11.1926 8.25517 12.313 8.12035 13.4166 8.25807C14.5201 8.39579 15.573 8.80186 16.4832 9.44074V9.43074Z" fill="#678925"/>
<path d="M24.8083 21.9049C25.4837 20.7356 24.8565 19.1092 23.4074 18.2722C21.9583 17.4353 20.2361 17.7047 19.5608 18.874C18.8854 20.0433 19.5126 21.6697 20.9617 22.5067C22.4108 23.3436 24.133 23.0742 24.8083 21.9049Z" fill="#2F6FA8"/>
<path d="M19.0036 18.6354C19.1736 18.3354 21.0386 15.8804 24.4486 18.3354C25.9186 13.7954 22.4086 11.3354 20.9786 10.6504C20.9822 11.8134 20.7224 12.9622 20.2186 14.0104C20.4768 14.2524 20.6739 14.5523 20.7936 14.8854L20.0086 14.4704C19.9236 14.6754 19.6886 15.2004 19.3386 15.8704C19.1959 16.9898 18.7777 18.0563 18.1215 18.9743C17.4653 19.8923 16.5915 20.6331 15.5786 21.1304C15.8928 21.4907 16.2356 21.8251 16.6036 22.1304C16.2836 22.3404 15.1036 21.9604 14.3686 21.5754C12.7926 21.9991 11.1172 21.8466 9.64355 21.1454C10.8336 22.8854 16.5786 28.1604 21.6286 23.3854C17.8336 21.6204 18.8436 18.9254 19.0036 18.6354Z" fill="#2F6FA8"/>
<path d="M5.57835 18.8561C4.89835 17.6861 3.17835 17.4212 1.72835 18.2562C0.278351 19.0912 -0.326649 20.7212 0.353351 21.8862C1.03335 23.0512 2.75335 23.3262 4.19835 22.4862C5.64335 21.6462 6.26835 20.0261 5.57835 18.8561Z" fill="#C1A840"/>
<path d="M5.76337 15.0109C5.76337 14.7509 5.76337 14.5109 5.80837 14.2409C5.27283 14.3305 4.74709 14.4711 4.23837 14.6609C4.20837 14.2159 5.43337 13.1609 6.11837 12.8409C6.49098 11.7321 7.14374 10.7383 8.01337 9.95593C8.31315 9.6397 8.64874 9.35948 9.01337 9.12093C8.07837 8.88593 -1.14163 10.9809 0.668374 18.3859C4.07337 15.9709 5.90337 18.1859 6.07337 18.4709C6.24337 18.7559 7.45337 21.6259 3.62837 23.3859C6.82337 26.8859 10.7234 25.0909 12.0184 24.1859C11.0078 23.6091 10.1411 22.8108 9.48337 21.8509C9.14603 21.9507 8.79051 21.9729 8.44337 21.9159L9.19337 21.4159C9.08337 21.2709 8.83337 20.9159 8.52837 20.4609C7.6742 19.8312 6.97926 19.0104 6.49914 18.064C6.01901 17.1177 5.76704 16.0721 5.76337 15.0109Z" fill="#C1A840"/>
</svg>
