<svg width="88" height="88" viewBox="0 0 88 88" fill="none" xmlns="http://www.w3.org/2000/svg">
<path d="M44 0.25C55.6032 0.25 66.7312 4.85936 74.9359 13.0641C83.1406 21.2688 87.75 32.3968 87.75 44C87.75 55.6032 83.1406 66.7312 74.9359 74.9359C66.7312 83.1406 55.6032 87.75 44 87.75C32.3968 87.75 21.2688 83.1406 13.0641 74.9359C4.85936 66.7312 0.25 55.6032 0.25 44C0.25 32.3968 4.85936 21.2688 13.0641 13.0641C21.2688 4.85936 32.3968 0.25 44 0.25ZM44 81.5C53.9456 81.5 63.4839 77.5491 70.5165 70.5165C77.5491 63.4839 81.5 53.9456 81.5 44C81.5 34.0544 77.5491 24.5161 70.5165 17.4835C63.4839 10.4509 53.9456 6.5 44 6.5C34.0544 6.5 24.5161 10.4509 17.4835 17.4835C10.4509 24.5161 6.5 34.0544 6.5 44C6.5 53.9456 10.4509 63.4839 17.4835 70.5165C24.5161 77.5491 34.0544 81.5 44 81.5ZM48.6875 64.3125C48.6875 65.5557 48.1936 66.748 47.3146 67.6271C46.4355 68.5061 45.2432 69 44 69C42.7568 69 41.5645 68.5061 40.6854 67.6271C39.8064 66.748 39.3125 65.5557 39.3125 64.3125C39.3125 63.0693 39.8064 61.877 40.6854 60.9979C41.5645 60.1189 42.7568 59.625 44 59.625C45.2432 59.625 46.4355 60.1189 47.3146 60.9979C48.1936 61.877 48.6875 63.0693 48.6875 64.3125ZM44 19C44.8288 19 45.6237 19.3292 46.2097 19.9153C46.7958 20.5013 47.125 21.2962 47.125 22.125V50.25C47.125 51.0788 46.7958 51.8737 46.2097 52.4597C45.6237 53.0458 44.8288 53.375 44 53.375C43.1712 53.375 42.3763 53.0458 41.7903 52.4597C41.2042 51.8737 40.875 51.0788 40.875 50.25V22.125C40.875 21.2962 41.2042 20.5013 41.7903 19.9153C42.3763 19.3292 43.1712 19 44 19Z" fill="#0BAB47"/>
</svg>
