<svg width="26" height="25" viewBox="0 0 26 25" fill="none" xmlns="http://www.w3.org/2000/svg">
<path d="M1.06012 17.6601C0.336312 14.8156 1.129 11.952 3.97229 10.3102C5.92578 9.18215 8.2711 8.67627 10.6966 8.57464C10.7824 8.57013 10.8581 8.60174 10.9168 8.66498C10.9755 8.72821 11.0015 8.805 10.9913 8.89082L10.735 11.2282C10.7203 11.3581 10.6254 11.4586 10.4978 11.4789C9.90841 11.5738 9.33366 11.707 8.78826 11.8877V11.8865C8.35127 12.0299 7.92669 12.2038 7.52019 12.4161L7.51567 12.4173L7.47276 12.4398L7.46937 12.441L7.44905 12.4523L7.42646 12.4647L7.42421 12.4658L7.40388 12.4771L7.38017 12.4907L7.37904 12.4918L7.35758 12.5031L7.335 12.5166H7.33274L7.31129 12.529L7.2887 12.5426L7.28758 12.5437L7.26612 12.5573L7.24241 12.5697L7.23225 12.5765L7.22208 12.5833L7.22095 12.5844L7.21192 12.59L7.20176 12.5957L7.19837 12.5979L7.1916 12.6024L7.18143 12.6092L7.17579 12.6115L7.17014 12.6149L7.15998 12.6216L7.1532 12.6262L7.14869 12.6284L7.13965 12.6295L7.13062 12.6352L7.12949 12.6363L7.11933 12.642L7.10916 12.6476L7.099 12.6544L7.08884 12.6612V12.6623L7.0798 12.6679L7.06964 12.6747L7.06626 12.677L7.05045 12.6883L7.04593 12.6905L7.03125 12.7007L7.02448 12.7052L7.02109 12.7063C7.00189 12.7199 6.9827 12.7334 6.96463 12.7459L6.96237 12.747C6.85058 12.8238 6.74782 12.9039 6.65184 12.9886L6.65297 12.9875C6.44182 13.1716 6.2634 13.3726 6.11548 13.5939C6.34245 14.146 6.59877 14.6914 6.87994 15.2289C6.91946 15.3046 6.98382 15.3554 7.06851 15.3735C7.15207 15.3938 7.23224 15.3769 7.30113 15.326L9.19703 13.9338C9.30204 13.8581 9.34156 13.7249 9.29527 13.6029C9.15751 13.2416 9.03894 12.8791 8.93844 12.5155C9.94794 12.6962 10.9879 13.4516 11.6564 14.6101C12.326 15.7687 12.4604 17.0469 12.1115 18.0112C11.8529 17.7493 11.6056 17.4715 11.3673 17.179C11.3283 17.1303 11.2742 17.0959 11.2135 17.0812C11.1528 17.0665 11.089 17.0723 11.032 17.0977L8.87973 18.044C8.80068 18.0779 8.74648 18.1388 8.72164 18.2213C8.6968 18.3037 8.70696 18.385 8.75326 18.4573C9.81582 20.1319 11.085 21.6235 12.5789 22.729C12.2436 22.9774 11.8969 23.2055 11.539 23.4121C8.69567 25.054 5.81851 24.3087 3.71822 22.2604C2.35755 22.5923 1.00479 22.1712 0.392771 21.112C-0.219247 20.0551 0.0924079 18.6718 1.06012 17.6601ZM12.5778 18.4573C12.999 18.8333 13.4529 19.1709 13.9396 19.4532C14.4184 19.7287 14.9028 19.8868 15.385 19.9173C15.744 19.451 16.0828 18.962 16.4035 18.4573C16.4498 18.3839 16.4611 18.3037 16.4351 18.2213C16.4103 18.1377 16.3561 18.0779 16.277 18.044L14.1248 17.0977C14.0051 17.0458 13.8707 17.0774 13.7894 17.179C13.4111 17.6431 13.0069 18.0722 12.5778 18.4573Z" fill="url(#paint0_linear_1826_1237)"/>
<path fill-rule="evenodd" clip-rule="evenodd" d="M8.89239 20.4204L9.6591 19.7711C9.3418 19.3488 9.03918 18.9095 8.75237 18.4579C8.70607 18.3845 8.69478 18.3043 8.72075 18.2219C8.74559 18.1383 8.79979 18.0785 8.87884 18.0446L11.0311 17.0983C11.1508 17.0464 11.2851 17.078 11.3664 17.1796C11.4624 17.2971 11.5595 17.4122 11.6589 17.5252C11.6928 17.3738 11.7131 17.2191 11.721 17.0667C11.7639 16.3135 11.5358 15.5434 11.1609 14.8953C10.7872 14.2471 10.2339 13.6645 9.56086 13.3246C9.42423 13.2557 9.28083 13.1959 9.13177 13.1484C9.18259 13.2997 9.23679 13.4511 9.29438 13.6024C9.34067 13.7243 9.30115 13.8564 9.19614 13.9332L7.30024 15.3255C7.23136 15.3763 7.15118 15.3933 7.06762 15.3729C6.98293 15.3537 6.91857 15.3041 6.87905 15.2284C6.62611 14.744 6.3935 14.255 6.18347 13.7605L5.2406 14.0992C5.10284 14.5294 5.05203 14.9856 5.07687 15.452L8.48475 16.4411L7.63786 19.8874C8.02969 20.1404 8.45087 20.3244 8.89239 20.4204Z" fill="url(#paint1_radial_1826_1237)"/>
<path fill-rule="evenodd" clip-rule="evenodd" d="M5.18838 21.5788C5.57456 21.5427 5.95735 21.4693 6.32321 21.3699L6.12899 20.6427C5.8817 20.9905 5.56553 21.3089 5.18838 21.5788ZM6.2182 20.5117H7.19042L8.14346 16.6375L4.31213 15.5264L3.82545 16.3687C4.92641 16.31 5.93364 16.7493 6.43839 17.6221C6.94313 18.4939 6.81892 19.5869 6.2182 20.5117ZM3.66737 16.38L3.13552 15.8482C2.86452 16.1147 2.60932 16.4094 2.38574 16.7256C2.80806 16.5347 3.24279 16.4207 3.66737 16.38Z" fill="url(#paint2_linear_1826_1237)"/>
<path fill-rule="evenodd" clip-rule="evenodd" d="M5.08702 15.4507C5.01588 14.1295 5.55789 12.8874 6.96598 12.0744C7.95854 11.5019 9.07304 11.153 10.2011 10.952L10.3976 9.16113C8.27922 9.28308 6.10893 9.7404 4.2661 10.8041C1.63058 12.3262 0.96888 14.9414 1.61929 17.5092C1.93772 16.791 2.4594 16.0808 3.14821 15.4507L3.71054 16.013L4.18593 15.1899L5.08702 15.4507ZM10.1909 20.4428C9.26952 20.6054 8.40343 20.3785 7.64914 19.8861L7.42556 20.7963H6.47479L6.6803 21.5641C5.7905 21.8453 4.91425 21.9424 4.13399 21.8599C6.03215 23.7073 8.62701 24.4413 11.2625 22.9191C11.555 22.7497 11.8395 22.5657 12.1151 22.3681C11.4229 21.8035 10.7826 21.1531 10.1909 20.4428ZM14.1013 17.7068C13.7682 18.1031 13.4091 18.4814 13.0241 18.8315C13.3143 19.0596 13.6203 19.2685 13.9398 19.4537C14.2108 19.6106 14.4841 19.728 14.7574 19.8071C15.1119 19.3622 15.4416 18.9015 15.751 18.4317L14.1013 17.7068Z" fill="url(#paint3_radial_1826_1237)"/>
<path fill-rule="evenodd" clip-rule="evenodd" d="M5.58005 21.821C5.07644 21.8955 4.58863 21.9091 4.13357 21.8605C4.54459 22.2614 4.98949 22.6092 5.46036 22.8937C6.2937 23.3838 7.20043 23.6808 8.13653 23.735C9.14376 23.7801 10.1996 23.534 11.2632 22.9197C11.5557 22.7503 11.8403 22.5663 12.1158 22.3687C11.9961 22.2704 11.8775 22.1688 11.7612 22.066C9.5785 23.2923 7.34158 23.0236 5.58005 21.821ZM14.6101 19.7614C14.6587 19.7783 14.7073 19.793 14.7558 19.8077C15.0867 19.382 15.3961 18.9405 15.6851 18.4899C15.3486 18.9292 14.9907 19.3549 14.6101 19.7614ZM5.24017 10.8668C6.62342 10.0267 8.18847 9.50837 9.77385 9.20801C9.28604 9.25205 8.7971 9.31415 8.31268 9.39997C6.85039 9.67775 5.4231 10.1554 4.16067 10.9221C2.27154 12.0694 1.40997 13.8591 1.38965 15.781C1.39529 16.3512 1.47547 16.9316 1.62226 17.5098C1.80745 17.0931 2.06151 16.6776 2.37656 16.2801C2.2275 14.2013 3.10149 12.1653 5.24017 10.8668Z" fill="url(#paint4_radial_1826_1237)"/>
<path fill-rule="evenodd" clip-rule="evenodd" d="M0.886265 20.8267C0.264084 19.7495 0.891911 18.2217 2.28871 17.4154C3.68551 16.6092 5.32283 16.8294 5.94501 17.9066C6.5672 18.985 5.93937 20.5117 4.54257 21.319C3.14464 22.1241 1.50845 21.904 0.886265 20.8267Z" fill="url(#paint5_radial_1826_1237)"/>
<path fill-rule="evenodd" clip-rule="evenodd" d="M5.42871 16.6817L8.14327 16.6377L6.7476 18.9661C6.77357 18.4963 6.67646 18.0356 6.4382 17.6223C6.20107 17.2091 5.8499 16.894 5.42871 16.6817Z" fill="white"/>
<path d="M24.0955 17.6599C24.8193 14.8155 24.0266 11.9519 21.1834 10.31C20.8272 10.1044 20.4596 9.91928 20.0824 9.75559C19.8746 11.6097 19.2152 13.4616 18.2926 15.2265C18.2531 15.3021 18.1888 15.353 18.1041 15.371C18.0205 15.3914 17.9403 15.3744 17.8715 15.3236L15.9756 13.9313C15.9247 13.895 15.8874 13.8427 15.8696 13.7828C15.8518 13.7228 15.8545 13.6587 15.8773 13.6005C16.0139 13.2391 16.1348 12.8744 16.2353 12.5108C15.2201 12.6858 14.1734 13.4424 13.5004 14.6088C12.8308 15.7674 12.6964 17.0456 13.0453 18.0099C13.3039 17.748 13.5512 17.4702 13.7895 17.1777C13.8708 17.0772 14.0051 17.0445 14.1248 17.0964L16.277 18.0427C16.3561 18.0766 16.4103 18.1375 16.4351 18.22C16.46 18.3024 16.4498 18.3837 16.4035 18.456C16.0828 18.9607 15.7441 19.4496 15.385 19.916C15.123 19.8979 14.8588 19.8449 14.5968 19.7534L14.5923 19.7523L14.5855 19.75L14.5754 19.7466C14.555 19.7387 14.5358 19.7319 14.5144 19.724L14.5042 19.7207L14.502 19.7195L14.4941 19.7161L14.4737 19.7082L14.4636 19.7037L14.4557 19.7003L14.4523 19.6992L14.4421 19.6947L14.432 19.6913L14.4218 19.6868L14.4116 19.6823L14.4094 19.6811L14.3811 19.6687L14.371 19.6642L14.3653 19.6619L14.3608 19.6597L14.3507 19.654L14.3428 19.6506H14.3405L14.3303 19.645L14.3202 19.6405L14.31 19.636L14.2998 19.6314L14.2976 19.6303L14.2897 19.6258L14.2795 19.6224L14.275 19.6202L14.2694 19.6168L14.2581 19.6122L14.2524 19.6089L14.2479 19.6077L14.2377 19.6032L14.2298 19.5987L14.2276 19.5976L14.2174 19.5919L14.2072 19.5874H14.2061L14.196 19.5818L14.1858 19.5761L14.1847 19.575L14.1756 19.5705L14.1655 19.5648L14.1621 19.5626L14.1553 19.5592L14.1451 19.5535L14.1395 19.5501L14.1339 19.5479L14.1237 19.5422L14.1135 19.5377L14.1022 19.5309L14.0932 19.5264L14.0921 19.5253L14.0808 19.5197L14.0706 19.514H14.0695L14.0605 19.5084L14.0492 19.5027L14.0469 19.5016L14.039 19.4971L14.0288 19.4926L14.0255 19.4892L14.0187 19.4858L14.0085 19.479L14.0029 19.4756L13.9984 19.4734L13.9871 19.4677L13.9803 19.4632L13.9769 19.4621L13.9656 19.4553L13.9566 19.4508L13.9554 19.4496L13.9453 19.4429L13.9351 19.4372L13.9125 19.4237L13.8911 19.4101H13.8899L13.8674 19.3966L13.8459 19.383L13.8437 19.3819L13.8211 19.3672L13.8007 19.3548L13.7996 19.3537C13.7703 19.3367 13.7409 19.3187 13.7127 19.3006L13.7104 19.2983L13.6686 19.2724L13.6652 19.2701C13.2791 19.0239 12.9155 18.7439 12.5733 18.4379H12.5778C12.1487 18.0528 11.7456 17.6226 11.3673 17.1597C11.3283 17.1109 11.2742 17.0765 11.2135 17.0618C11.1529 17.0471 11.089 17.0529 11.032 17.0784L8.87975 18.0246C8.80071 18.0585 8.74651 18.1195 8.72167 18.2019C8.69683 18.2843 8.70699 18.3656 8.75329 18.4379C10.0541 20.4874 11.6655 22.2647 13.6189 23.3928C16.4622 25.0346 19.3383 24.2893 21.4397 22.241C22.8003 22.573 24.1531 22.1518 24.7651 21.0926C25.3749 20.0549 25.0632 18.6716 24.0955 17.6599ZM16.2274 8.72578C16.4509 9.16503 16.5605 9.67316 16.5605 10.2378C16.5605 10.7922 16.4961 11.3477 16.3832 11.892C15.8321 11.7091 15.2529 11.5747 14.6578 11.4787C14.5291 11.4584 14.4353 11.3579 14.4207 11.228L14.1632 8.89064C14.153 8.80482 14.179 8.72691 14.2389 8.6648C14.2976 8.6027 14.3732 8.57108 14.4591 8.57447C15.0553 8.60044 15.6458 8.64899 16.2274 8.72578ZM13.803 19.3729C13.7736 19.3559 13.7443 19.3379 13.7161 19.3198L13.803 19.3729Z" fill="url(#paint6_linear_1826_1237)"/>
<path fill-rule="evenodd" clip-rule="evenodd" d="M16.2636 20.421L15.4969 19.7717C15.8142 19.3494 16.1168 18.9101 16.4036 18.4585C16.4499 18.3851 16.4612 18.3049 16.4352 18.2225C16.4104 18.1389 16.3562 18.0791 16.2771 18.0452L14.1249 17.0989C14.0052 17.047 13.8708 17.0786 13.7895 17.1802C13.6936 17.2977 13.5965 17.4129 13.4971 17.5258C13.4632 17.3745 13.4418 17.2198 13.4338 17.0673C13.3909 16.3142 13.6202 15.5441 13.9939 14.8959C14.3677 14.2477 14.921 13.6651 15.594 13.3252C15.7363 13.2541 15.8864 13.1908 16.0411 13.1445C15.9903 13.297 15.935 13.4494 15.8774 13.603C15.8311 13.7249 15.8706 13.857 15.9756 13.9338L17.8715 15.3261C17.9404 15.3769 18.0206 15.3939 18.1042 15.3735C18.1888 15.3543 18.2521 15.3047 18.2927 15.229C18.543 14.7509 18.7743 14.2631 18.9861 13.7667L19.9142 14.0998C20.0531 14.53 20.1039 14.9862 20.0791 15.4526L16.6701 16.4418L17.5181 19.888C17.1263 20.141 16.7051 20.325 16.2636 20.421Z" fill="url(#paint7_radial_1826_1237)"/>
<path fill-rule="evenodd" clip-rule="evenodd" d="M19.9673 21.5788C19.5811 21.5427 19.1983 21.4693 18.8325 21.3699L19.0267 20.6427C19.274 20.9905 19.5901 21.3089 19.9673 21.5788ZM18.9375 20.5117H17.9641L17.0122 16.6375L20.8435 15.5264L21.3302 16.3687C20.2293 16.31 19.2209 16.7493 18.7173 17.6221C18.2125 18.4939 18.3356 19.5869 18.9375 20.5117ZM21.4883 16.38L22.0201 15.8482C22.29 16.1147 22.5463 16.4094 22.7699 16.7256C22.3465 16.5347 21.9129 16.4207 21.4883 16.38Z" fill="url(#paint8_linear_1826_1237)"/>
<path fill-rule="evenodd" clip-rule="evenodd" d="M19.7256 16.6817L17.0122 16.6377L18.4067 18.9661C18.3808 18.4963 18.4779 18.0356 18.7161 17.6223C18.9544 17.2091 19.3056 16.894 19.7256 16.6817Z" fill="white"/>
<path fill-rule="evenodd" clip-rule="evenodd" d="M18.4847 21.5641L18.6913 20.7963H17.7416L17.5181 19.8861C16.4092 20.6088 15.0632 20.7613 13.654 19.9471C12.6626 19.3746 11.8021 18.5831 11.0648 17.7068L9.41504 18.4317C10.5804 20.2057 12.0607 21.8566 13.9036 22.9203C16.5402 24.4424 19.1351 23.7073 21.0332 21.8611C20.2518 21.9435 19.3756 21.8464 18.4847 21.5641ZM20.8977 10.8041C20.6065 10.6364 20.3073 10.483 20.0012 10.3445C19.8577 11.2287 19.6161 12.1094 19.2965 12.9789C19.8916 13.6937 20.1265 14.5541 20.0791 15.4507L20.9779 15.1887L21.4533 16.0119L22.0156 15.4496C22.7044 16.0785 23.2272 16.7899 23.5445 17.5081C24.1949 14.9414 23.5344 12.3251 20.8977 10.8041ZM16.4826 11.3247C16.5334 10.9644 16.5605 10.6008 16.5605 10.2384C16.5605 9.91769 16.5255 9.61619 16.4533 9.3339C15.892 9.24921 15.3275 9.19388 14.7662 9.16113L14.9627 10.952C15.4754 11.0424 15.9858 11.1643 16.4826 11.3247Z" fill="url(#paint9_radial_1826_1237)"/>
<path fill-rule="evenodd" clip-rule="evenodd" d="M20.9758 10.9216C20.6574 10.729 20.3291 10.5533 19.9922 10.3954C19.9663 10.5535 19.9358 10.7127 19.903 10.8708C22.0236 12.1626 22.8988 14.1804 22.7633 16.2446C23.0907 16.6522 23.3549 17.079 23.5447 17.5081C23.5638 17.4302 23.583 17.3534 23.6 17.2755C24.1002 14.8195 23.3493 12.3624 20.9758 10.9216ZM16.4534 9.33396C16.0853 9.27863 15.7149 9.23685 15.3445 9.2041C15.7262 9.27637 16.1056 9.36106 16.4827 9.4593C16.4737 9.41752 16.4647 9.37461 16.4534 9.33396ZM19.5609 21.8171C17.7418 23.0615 15.4145 23.3099 13.1663 21.9447C11.7176 21.0651 10.4913 19.8455 9.46484 18.5075C10.6223 20.2532 12.0868 21.8713 13.9025 22.9203C14.9301 23.5131 15.9498 23.7638 16.9254 23.739C18.3357 23.6757 19.684 23.0615 20.8154 22.0633C20.8888 21.9978 20.9611 21.93 21.0322 21.8611C20.5704 21.9097 20.0735 21.895 19.5609 21.8171Z" fill="url(#paint10_radial_1826_1237)"/>
<path fill-rule="evenodd" clip-rule="evenodd" d="M24.2692 20.8267C24.8914 19.7495 24.2636 18.2217 22.8668 17.4154C21.4688 16.6092 19.8327 16.8294 19.2105 17.9066C18.5872 18.985 19.2161 20.5117 20.6129 21.319C22.0097 22.1241 23.647 21.904 24.2692 20.8267Z" fill="url(#paint11_radial_1826_1237)"/>
<path d="M8.78845 11.8874C8.90588 12.461 9.07978 13.0346 9.29545 13.6026C9.34175 13.7246 9.30222 13.8567 9.19721 13.9335L7.30131 15.3258C7.23243 15.3766 7.15226 15.3935 7.0687 15.3732C6.98401 15.354 6.91964 15.3043 6.88012 15.2286C6.59896 14.6912 6.34263 14.1458 6.11566 13.5936C6.38441 13.1893 6.76382 12.8461 7.24259 12.5705C7.7304 12.2871 8.25095 12.0635 8.78845 11.8874ZM15.2429 2.339C14.8499 0.995269 13.8099 0.0332031 12.5859 0.0332031C11.3641 0.0332031 10.3219 0.995269 9.93005 2.339C7.10483 3.13394 5.02148 5.25343 5.02148 8.53597C5.02148 8.93909 5.0452 9.34559 5.09036 9.74984C6.17551 9.27897 7.33293 8.97183 8.50615 8.78778V8.7889C9.22318 8.67599 9.95715 8.60711 10.699 8.57662C10.7848 8.5721 10.8605 8.60372 10.9192 8.66695C10.9779 8.73019 11.0039 8.80697 10.9937 8.89279L10.7374 11.2302C10.7227 11.3601 10.6279 11.4606 10.5003 11.4809C10.1243 11.5419 9.75503 11.6175 9.39595 11.7112C10.052 12.5096 11.2365 13.0425 12.5882 13.0425C13.9375 13.0425 15.1209 12.5107 15.7781 11.7146C15.4145 11.6198 15.0407 11.5419 14.6602 11.4809C14.5315 11.4606 14.4378 11.3601 14.4231 11.2302L14.1656 8.89279C14.1555 8.80697 14.1814 8.72906 14.2413 8.66695C14.3 8.60485 14.3757 8.57323 14.4615 8.57662C15.0577 8.60146 15.6482 8.65001 16.2309 8.72793C16.4172 9.09604 16.5256 9.51271 16.5561 9.9689L16.5572 9.97906V9.98132L16.5584 9.99262L16.5595 10.0039L16.5606 10.0152V10.031L16.5618 10.04L16.5629 10.0513V10.0638L16.564 10.0762V10.101L16.5651 10.1123V10.1496L16.5663 10.162V10.3494L16.5651 10.3754V10.4014L16.564 10.4522V10.4533L16.5629 10.4793V10.5053L16.5618 10.5064L16.5595 10.5572V10.5583L16.5572 10.6092V10.6103L16.5539 10.6622V10.6634C16.5527 10.6972 16.5493 10.7311 16.5471 10.7661V10.7672L16.5437 10.818V10.8203L16.5392 10.87L16.538 10.8734C16.5098 11.2189 16.4579 11.5611 16.3879 11.9009C16.2693 12.4723 16.0965 13.0448 15.8809 13.6105C15.8346 13.7325 15.8741 13.8646 15.9791 13.9414L17.875 15.3337C17.9439 15.3845 18.0241 15.4014 18.1076 15.3811C18.1923 15.3619 18.2555 15.3122 18.2962 15.2366C19.4209 13.0843 20.1548 10.8011 20.1548 8.545C20.1503 5.25343 18.067 3.13394 15.2429 2.339ZM16.5426 10.7582L16.5493 10.6554L16.5426 10.7582Z" fill="url(#paint12_linear_1826_1237)"/>
<path fill-rule="evenodd" clip-rule="evenodd" d="M8.93506 7.74166L9.10895 8.7026C9.6329 8.63824 10.1625 8.59646 10.6966 8.575C10.7824 8.57049 10.8581 8.6021 10.9168 8.66534C10.9755 8.72857 11.0015 8.80536 10.9913 8.89117L10.735 11.2286C10.7203 11.3584 10.6254 11.4589 10.4979 11.4793C10.342 11.5041 10.1873 11.5323 10.0349 11.5628C10.1557 11.6769 10.2878 11.7808 10.4245 11.87C11.0557 12.2832 11.8371 12.4707 12.5857 12.4707C13.3332 12.4707 14.1146 12.2832 14.7458 11.87C14.8813 11.7808 15.0135 11.678 15.1343 11.5651C14.9762 11.5335 14.8181 11.5052 14.6578 11.4793C14.529 11.4589 14.4353 11.3584 14.4206 11.2286L14.1632 8.89117C14.153 8.80536 14.179 8.72744 14.2388 8.66534C14.2976 8.60323 14.3732 8.57161 14.459 8.575C14.9988 8.59759 15.534 8.64049 16.0625 8.70486L16.2375 7.74166C15.9337 7.4063 15.5645 7.13416 15.1478 6.92188L12.5868 9.37898L10.0259 6.92188C9.60918 7.13416 9.23994 7.4063 8.93506 7.74166Z" fill="url(#paint13_radial_1826_1237)"/>
<path fill-rule="evenodd" clip-rule="evenodd" d="M7.2412 12.5686C6.97132 12.7233 6.7342 12.9005 6.53094 13.097C6.74097 13.6334 6.9781 14.1573 7.2333 14.6666L8.68543 13.6006C8.50702 13.1061 8.35571 12.5991 8.24505 12.083C7.89962 12.2215 7.5642 12.3837 7.2412 12.5686ZM5.59033 8.53624C5.59033 8.86823 5.60727 9.19795 5.63889 9.52654C6.49029 9.20585 7.37896 8.97776 8.27892 8.82419C8.60074 7.9581 9.22631 7.32802 10.0235 6.92377L9.34826 6.27449L9.82252 5.45131L9.05467 5.2458C9.25454 4.33342 9.61023 3.52718 10.0721 2.89258C7.52463 3.61187 5.59033 5.49196 5.59033 8.53624ZM15.0981 2.89258C15.5599 3.52718 15.9145 4.33455 16.1155 5.2458L15.3465 5.45131L15.8219 6.27449L15.1455 6.92377C16.3244 7.52224 17.1306 8.61303 17.1306 10.2391C17.1306 11.3852 16.8743 12.5245 16.4847 13.6029L17.938 14.6688C18.891 12.7729 19.5798 10.6648 19.5798 8.53737C19.5798 5.49196 17.6466 3.61187 15.0981 2.89258Z" fill="url(#paint14_radial_1826_1237)"/>
<path fill-rule="evenodd" clip-rule="evenodd" d="M6.53079 13.097C6.70469 13.5408 6.89778 13.9755 7.10329 14.4012C6.92601 13.9439 6.76679 13.4776 6.63016 13.0056C6.59628 13.036 6.56241 13.0665 6.53079 13.097ZM19.5717 8.52608C19.5717 6.42806 18.5961 4.82123 17.1022 3.7948C16.5049 3.39958 15.8274 3.09809 15.0979 2.89258C15.3644 3.25843 15.5948 3.68188 15.7811 4.15049C17.7086 5.0832 19.0568 6.91473 19.0568 9.47798C19.0568 11.1808 18.6481 12.8701 18.0327 14.4475C18.9326 12.607 19.5717 10.5756 19.5717 8.52608ZM5.8465 6.73294C5.68051 7.28059 5.59131 7.88132 5.59131 8.53624C5.59131 8.86823 5.60825 9.19795 5.63986 9.52654C5.79117 9.46895 5.94474 9.41588 6.09831 9.36507C6.13783 6.8515 7.48495 5.0561 9.3944 4.14033C9.57959 3.67623 9.80882 3.25618 10.0742 2.89371C9.10759 3.16584 8.23021 3.60622 7.51318 4.2126C6.74421 4.8743 6.16155 5.72119 5.8465 6.73294Z" fill="url(#paint15_radial_1826_1237)"/>
<path fill-rule="evenodd" clip-rule="evenodd" d="M9.78315 3.9541C9.62345 4.30481 9.49424 4.66862 9.39697 5.04151L10.1242 5.23686C9.94801 4.84955 9.82945 4.41594 9.78315 3.9541ZM10.1942 5.38139L9.7075 6.22376L12.5858 8.98575L15.4641 6.22376L14.9774 5.38139C14.4783 6.36378 13.5942 7.01645 12.5858 7.01645C11.5774 7.01645 10.6933 6.36378 10.1942 5.38139ZM15.0474 5.23686L15.7735 5.04151C15.6775 4.67565 15.5499 4.30641 15.3884 3.9541C15.3421 4.41594 15.2236 4.84955 15.0474 5.23686Z" fill="url(#paint16_linear_1826_1237)"/>
<path fill-rule="evenodd" clip-rule="evenodd" d="M13.9044 6.61328L12.5855 8.9857L11.2666 6.61328C11.6596 6.87186 12.109 7.01753 12.5855 7.01753C13.062 7.0164 13.5114 6.87074 13.9044 6.61328Z" fill="white"/>
<path fill-rule="evenodd" clip-rule="evenodd" d="M12.5857 6.44592C13.8267 6.44592 14.8396 5.13381 14.8396 3.52472C14.8396 1.91563 13.8278 0.603516 12.5857 0.603516C11.3448 0.603516 10.333 1.91563 10.333 3.52472C10.333 5.13381 11.3448 6.44592 12.5857 6.44592Z" fill="url(#paint17_radial_1826_1237)"/>
<path d="M13.9305 9.37056C13.9229 9.30102 13.8899 9.23673 13.8378 9.19005C13.7857 9.14337 13.7182 9.11757 13.6483 9.11763C12.9177 9.11311 12.1848 9.1436 11.4599 9.20232C11.392 9.20777 11.3284 9.23727 11.2803 9.28551C11.2323 9.33374 11.2031 9.39754 11.1979 9.46542L11.085 10.9864C11.0782 11.07 11.1053 11.1445 11.164 11.2044C11.2228 11.2653 11.295 11.2947 11.3797 11.2913C12.1882 11.2653 13.0046 11.2823 13.8052 11.3636C13.8944 11.3715 13.9735 11.3433 14.0367 11.28C14.0988 11.2157 14.127 11.1366 14.1169 11.0485L13.9305 9.37056ZM9.56625 14.4327C9.52673 14.3593 9.46462 14.3096 9.38332 14.2904C9.30089 14.2701 9.2241 14.2836 9.15522 14.3311L7.89505 15.1893C7.77875 15.2694 7.73697 15.4196 7.79794 15.5472C8.11073 16.2044 8.45061 16.8548 8.81873 17.486C8.85381 17.5468 8.91022 17.5923 8.97699 17.6138C9.04376 17.6353 9.11614 17.6312 9.18007 17.6023L10.7248 16.9259C10.7641 16.9098 10.7991 16.8846 10.827 16.8524C10.8548 16.8202 10.8747 16.782 10.8851 16.7408C10.9088 16.6538 10.8942 16.5702 10.8422 16.498C10.3714 15.8453 9.94678 15.1463 9.56625 14.4327ZM17.2616 15.1893L16.0015 14.3311C15.9326 14.2836 15.8535 14.2701 15.7734 14.2904C15.6921 14.3096 15.63 14.3582 15.5904 14.4327C15.2099 15.1463 14.7853 15.8453 14.3156 16.498C14.2637 16.5702 14.249 16.6538 14.2716 16.7408C14.2953 16.8266 14.3506 16.8909 14.433 16.9259L15.9789 17.6023C16.1121 17.661 16.2657 17.6114 16.3391 17.486C16.7083 16.8548 17.0482 16.2044 17.3599 15.5472C17.4197 15.4196 17.3791 15.2694 17.2616 15.1893Z" fill="white"/>
<path fill-rule="evenodd" clip-rule="evenodd" d="M11.3696 11.0079L11.4724 9.63367C11.4792 9.54899 11.5458 9.48236 11.6293 9.47559C12.2493 9.42929 12.8714 9.40332 13.4925 9.40332C13.5806 9.40332 13.6528 9.46768 13.663 9.55463L13.8098 10.8701C13.8166 10.9221 13.7996 10.9706 13.7624 11.009C13.7251 11.0463 13.6777 11.0644 13.6246 11.0598C12.876 10.9955 12.1205 10.9819 11.3696 11.0079Z" fill="url(#paint18_radial_1826_1237)"/>
<path fill-rule="evenodd" clip-rule="evenodd" d="M9.40375 14.7332C9.73348 15.3373 10.0926 15.9278 10.4889 16.4947C10.5194 16.5376 10.5273 16.5873 10.5137 16.6381C10.4991 16.69 10.4663 16.7273 10.4166 16.7488L9.20389 17.2795C9.12372 17.3145 9.03112 17.2851 8.98708 17.2083C8.67656 16.6697 8.38749 16.1187 8.11874 15.5586C8.10081 15.5217 8.09676 15.4796 8.10733 15.44C8.11791 15.4004 8.1424 15.3659 8.17633 15.3429L9.15872 14.6745C9.2005 14.6451 9.2468 14.6372 9.29535 14.6485C9.34278 14.6609 9.38117 14.6891 9.40375 14.7332Z" fill="url(#paint19_radial_1826_1237)"/>
<path fill-rule="evenodd" clip-rule="evenodd" d="M15.7506 14.7332C15.422 15.3373 15.0618 15.9278 14.6666 16.4947C14.6361 16.5376 14.6282 16.5873 14.6429 16.6381C14.6576 16.69 14.6903 16.7273 14.7389 16.7488L15.9528 17.2795C16.0329 17.3145 16.1255 17.2851 16.1696 17.2083C16.4801 16.6697 16.7692 16.1187 17.0379 15.5586C17.0561 15.5218 17.0603 15.4796 17.0497 15.4399C17.0391 15.4003 17.0144 15.3658 16.9803 15.3429L15.9979 14.6745C15.9561 14.6451 15.9098 14.6372 15.8613 14.6485C15.8116 14.6609 15.7743 14.6891 15.7506 14.7332Z" fill="url(#paint20_linear_1826_1237)"/>
<defs>
<linearGradient id="paint0_linear_1826_1237" x1="1.7924" y1="20.5431" x2="11.231" y2="14.7179" gradientUnits="userSpaceOnUse">
<stop stop-color="#867F32"/>
<stop offset="1" stop-color="#766D2C"/>
</linearGradient>
<radialGradient id="paint1_radial_1826_1237" cx="0" cy="0" r="1" gradientUnits="userSpaceOnUse" gradientTransform="translate(7.66566 16.8623) scale(3.72735)">
<stop stop-color="#F4E247"/>
<stop offset="1" stop-color="#867F32"/>
</radialGradient>
<linearGradient id="paint2_linear_1826_1237" x1="8.19788" y1="17.0634" x2="3.62254" y2="19.1024" gradientUnits="userSpaceOnUse">
<stop stop-color="#F4E247"/>
<stop offset="1" stop-color="#867F32"/>
</linearGradient>
<radialGradient id="paint3_radial_1826_1237" cx="0" cy="0" r="1" gradientUnits="userSpaceOnUse" gradientTransform="translate(5.19397 18.3619) rotate(-31.4969) scale(12.6752 8.22065)">
<stop stop-color="#F1E64B"/>
<stop offset="1" stop-color="#C1B63B"/>
</radialGradient>
<radialGradient id="paint4_radial_1826_1237" cx="0" cy="0" r="1" gradientUnits="userSpaceOnUse" gradientTransform="translate(3.11748 19.9196) scale(10.0833)">
<stop stop-color="white" stop-opacity="0.6"/>
<stop offset="1" stop-color="white" stop-opacity="0"/>
</radialGradient>
<radialGradient id="paint5_radial_1826_1237" cx="0" cy="0" r="1" gradientUnits="userSpaceOnUse" gradientTransform="translate(2.09584 18.9008) scale(3.31835)">
<stop stop-color="#F4E247"/>
<stop offset="1" stop-color="#867F32"/>
</radialGradient>
<linearGradient id="paint6_linear_1826_1237" x1="14.7452" y1="14.0349" x2="21.7573" y2="21.9978" gradientUnits="userSpaceOnUse">
<stop stop-color="#06608B"/>
<stop offset="1" stop-color="#005383"/>
</linearGradient>
<radialGradient id="paint7_radial_1826_1237" cx="0" cy="0" r="1" gradientUnits="userSpaceOnUse" gradientTransform="translate(15.5091 14.4019) scale(3.92337)">
<stop stop-color="#70B5E3"/>
<stop offset="1" stop-color="#005379"/>
</radialGradient>
<linearGradient id="paint8_linear_1826_1237" x1="16.3739" y1="16.3754" x2="21.0564" y2="18.9564" gradientUnits="userSpaceOnUse">
<stop stop-color="#70B5E3"/>
<stop offset="1" stop-color="#005379"/>
</linearGradient>
<radialGradient id="paint9_radial_1826_1237" cx="0" cy="0" r="1" gradientUnits="userSpaceOnUse" gradientTransform="translate(21.1414 19.3738) rotate(34.2465) scale(12.1842 7.92232)">
<stop stop-color="#3E9DCB"/>
<stop offset="1" stop-color="#308DBE"/>
</radialGradient>
<radialGradient id="paint10_radial_1826_1237" cx="0" cy="0" r="1" gradientUnits="userSpaceOnUse" gradientTransform="translate(22.301 19.8195) scale(10.0778)">
<stop stop-color="white" stop-opacity="0.6"/>
<stop offset="1" stop-color="white" stop-opacity="0"/>
</radialGradient>
<radialGradient id="paint11_radial_1826_1237" cx="0" cy="0" r="1" gradientUnits="userSpaceOnUse" gradientTransform="translate(21.0823 18.2788) scale(3.85826 3.85826)">
<stop stop-color="#70B5E3"/>
<stop offset="1" stop-color="#005379"/>
</radialGradient>
<linearGradient id="paint12_linear_1826_1237" x1="12.5857" y1="-3.11338" x2="12.5857" y2="13.9209" gradientUnits="userSpaceOnUse">
<stop stop-color="#4A7E3B"/>
<stop offset="1" stop-color="#2E4F27"/>
</linearGradient>
<radialGradient id="paint13_radial_1826_1237" cx="0" cy="0" r="1" gradientUnits="userSpaceOnUse" gradientTransform="translate(12.6712 12.3864) rotate(-91.7452) scale(6.01395 5.58841)">
<stop stop-color="#96CC80"/>
<stop offset="1" stop-color="#528642"/>
</radialGradient>
<radialGradient id="paint14_radial_1826_1237" cx="0" cy="0" r="1" gradientUnits="userSpaceOnUse" gradientTransform="translate(12.586 5.52439) scale(9.66603 9.66603)">
<stop stop-color="#96CC80"/>
<stop offset="1" stop-color="#4A7E3B"/>
</radialGradient>
<radialGradient id="paint15_radial_1826_1237" cx="0" cy="0" r="1" gradientUnits="userSpaceOnUse" gradientTransform="translate(12.6635 3.36611) scale(9.53387)">
<stop stop-color="white" stop-opacity="0.6"/>
<stop offset="1" stop-color="white" stop-opacity="0"/>
</radialGradient>
<linearGradient id="paint16_linear_1826_1237" x1="12.5858" y1="8.57303" x2="12.5858" y2="4.96484" gradientUnits="userSpaceOnUse">
<stop stop-color="#96CC80"/>
<stop offset="1" stop-color="#4A7E3B"/>
</linearGradient>
<radialGradient id="paint17_radial_1826_1237" cx="0" cy="0" r="1" gradientUnits="userSpaceOnUse" gradientTransform="translate(12.1556 2.57461) scale(3.47874 4.68548)">
<stop stop-color="#92CB7B"/>
<stop offset="0.868" stop-color="#276F37"/>
<stop offset="1" stop-color="#92CB7B"/>
</radialGradient>
<radialGradient id="paint18_radial_1826_1237" cx="0" cy="0" r="1" gradientUnits="userSpaceOnUse" gradientTransform="translate(13.5273 10.7236) scale(2.54952)">
<stop stop-color="#E98A23"/>
<stop offset="1" stop-color="#D75328"/>
</radialGradient>
<radialGradient id="paint19_radial_1826_1237" cx="0" cy="0" r="1" gradientUnits="userSpaceOnUse" gradientTransform="translate(9.18564 15.037) scale(1.90841 1.90841)">
<stop stop-color="#E98A23"/>
<stop offset="1" stop-color="#D75328"/>
</radialGradient>
<linearGradient id="paint20_linear_1826_1237" x1="14.7949" y1="16.6051" x2="16.8806" y2="15.4663" gradientUnits="userSpaceOnUse">
<stop stop-color="#E98A23"/>
<stop offset="0.737" stop-color="#D75328"/>
<stop offset="1" stop-color="#D75328"/>
</linearGradient>
</defs>
</svg>
