<svg width="26" height="17" viewBox="0 0 26 17" fill="none" xmlns="http://www.w3.org/2000/svg">
<path d="M25.4577 5.39964C24.5079 1.16035 18.1969 -1.02957 11.3592 0.502193C4.52138 2.03396 -0.251262 6.71333 0.698538 10.9461C1.64834 15.1788 7.95932 17.3713 14.7971 15.8396C21.6349 14.3078 26.4075 9.63105 25.4577 5.39964ZM23.9089 3.26489C24.0097 3.26463 24.1084 3.2943 24.1924 3.35015C24.2764 3.406 24.3419 3.48552 24.3807 3.57863C24.4195 3.67175 24.4298 3.77427 24.4103 3.87323C24.3907 3.9722 24.3423 4.06314 24.2711 4.13456C24.1998 4.20597 24.109 4.25465 24.0101 4.27442C23.9112 4.2942 23.8086 4.28418 23.7154 4.24564C23.6222 4.2071 23.5425 4.14177 23.4865 4.05792C23.4304 3.97407 23.4005 3.87547 23.4005 3.7746C23.4005 3.63964 23.454 3.5102 23.5493 3.41464C23.6446 3.31909 23.7739 3.26524 23.9089 3.26489ZM10.4672 0.82142C10.5681 0.821423 10.6668 0.851419 10.7507 0.907603C10.8347 0.963788 10.9 1.04363 10.9384 1.137C10.9769 1.23036 10.9868 1.33305 10.9668 1.43203C10.9468 1.53101 10.8978 1.62183 10.8262 1.69295C10.7545 1.76408 10.6633 1.81231 10.5642 1.83153C10.465 1.85075 10.3624 1.84009 10.2694 1.80091C10.1763 1.76172 10.097 1.69578 10.0414 1.61144C9.98589 1.5271 9.95667 1.42817 9.95745 1.32719C9.95745 1.26032 9.97064 1.1941 9.99627 1.13233C10.0219 1.07056 10.0595 1.01446 10.1068 0.967234C10.1542 0.920008 10.2104 0.882587 10.2722 0.857114C10.334 0.831642 10.4003 0.81862 10.4672 0.818793M2.32226 13.0361C2.22145 13.0361 2.1229 13.0062 2.03908 12.9502C1.95526 12.8942 1.88993 12.8146 1.85135 12.7215C1.81277 12.6283 1.80268 12.5259 1.82234 12.427C1.84201 12.3281 1.89056 12.2373 1.96184 12.166C2.03313 12.0947 2.12395 12.0462 2.22282 12.0265C2.3217 12.0068 2.42418 12.0169 2.51732 12.0555C2.61046 12.0941 2.69007 12.1594 2.74607 12.2432C2.80208 12.3271 2.83198 12.4256 2.83198 12.5264C2.83198 12.6616 2.77827 12.7913 2.68268 12.8868C2.58709 12.9824 2.45745 13.0361 2.32226 13.0361ZM15.7653 15.4796C15.6644 15.4799 15.5656 15.4502 15.4816 15.3943C15.3976 15.3383 15.3321 15.2588 15.2933 15.1656C15.2546 15.0724 15.2444 14.9698 15.264 14.8708C15.2836 14.7718 15.3322 14.6808 15.4036 14.6095C15.4749 14.5381 15.5659 14.4895 15.6649 14.4699C15.7639 14.4503 15.8664 14.4605 15.9596 14.4992C16.0528 14.538 16.1324 14.6035 16.1883 14.6875C16.2442 14.7716 16.2739 14.8703 16.2737 14.9712C16.2733 15.1059 16.2197 15.235 16.1244 15.3303C16.0291 15.4256 15.9 15.4793 15.7653 15.4796ZM13.7146 14.6231C7.21577 15.2642 1.66147 12.8956 1.3094 9.33152C0.957335 5.76747 5.94149 2.35975 12.4416 1.7213C18.9418 1.08284 24.4948 3.44881 24.8468 7.01154C25.1989 10.5743 20.2134 13.9846 13.7146 14.631" fill="#13CA60"/>
<path d="M5.84976 5.85531V7.93489H5.27436V5.85531H4.54395V5.35742H6.58017V5.85531H5.84976Z" fill="#092335"/>
<path d="M8.98529 6.21264C8.98529 6.62514 8.82108 6.89182 8.49528 7.01267L9.15213 7.93226H8.43879L7.86602 7.10726H7.47192V7.93489H6.89258V5.35742H7.86997C8.27108 5.35742 8.55703 5.42486 8.72781 5.55973C8.89859 5.6946 8.98442 5.91224 8.98529 6.21264ZM8.29166 6.51873C8.33014 6.47843 8.35964 6.43043 8.37821 6.37789C8.39678 6.32536 8.40399 6.26948 8.39938 6.21395C8.40631 6.16017 8.3996 6.1055 8.37985 6.055C8.36011 6.00449 8.32797 5.95976 8.28641 5.92494C8.16759 5.86309 8.03366 5.83621 7.90018 5.84743H7.46798V6.61069H7.88836C8.02895 6.62722 8.17093 6.59474 8.29035 6.51873H8.29166Z" fill="#092335"/>
<path d="M11.4736 7.93489L11.2332 7.37788H10.1534L9.91296 7.93489H9.30078L10.4148 5.35742H10.9718L12.0858 7.93489H11.4736ZM10.6933 6.12462L10.3688 6.87211H11.0152L10.6933 6.12462Z" fill="#092335"/>
<path d="M14.2401 5.69373C14.3654 5.8146 14.4633 5.96106 14.527 6.12314C14.5907 6.28522 14.6187 6.45913 14.6092 6.63302C14.6171 6.80849 14.5883 6.98369 14.5248 7.14744C14.4612 7.31119 14.3643 7.45991 14.2401 7.58413C14.001 7.81797 13.6345 7.93489 13.1431 7.93489H12.2695V5.35742H13.1812C13.6384 5.35742 13.9913 5.46952 14.2401 5.69373ZM13.8184 7.22681C13.8924 7.15052 13.9496 7.05953 13.9863 6.95974C14.023 6.85994 14.0383 6.75355 14.0312 6.64747C14.0379 6.54063 14.0224 6.43356 13.9858 6.33296C13.9492 6.23237 13.8922 6.14042 13.8184 6.06287C13.6347 5.91136 13.3987 5.83821 13.1615 5.85925H12.841V7.42649H13.2062C13.4267 7.44084 13.6442 7.36928 13.8131 7.22681H13.8184Z" fill="#092335"/>
<path d="M15.043 5.35742H15.6184V7.93489H15.043V5.35742Z" fill="#092335"/>
<path d="M17.9997 5.35742H18.5751V7.93489H17.9997L16.7727 6.31905V7.93489H16.1973V5.35742H16.7359L17.9997 7.01662V5.35742Z" fill="#092335"/>
<path d="M20.7521 6.62289H21.3341V7.54248C21.1988 7.68688 21.0336 7.79993 20.85 7.87369C20.6664 7.94745 20.4689 7.98013 20.2713 7.96943C20.0953 7.97392 19.9201 7.94298 19.7563 7.87843C19.5924 7.81389 19.4432 7.71706 19.3176 7.59371C19.1912 7.47066 19.0917 7.3227 19.0254 7.15921C18.9592 6.99572 18.9276 6.82025 18.9327 6.64391C18.9283 6.46587 18.9611 6.28888 19.029 6.12422C19.0968 5.95956 19.1983 5.81084 19.3268 5.68754C19.4507 5.56314 19.5985 5.46505 19.7612 5.39913C19.924 5.33322 20.0984 5.30084 20.2739 5.30394C20.6283 5.29749 20.972 5.42565 21.2356 5.66258L20.94 6.09479C20.8461 6.00798 20.7382 5.93778 20.6208 5.88722C20.5202 5.84829 20.4133 5.82868 20.3055 5.82942C20.203 5.82723 20.1011 5.8459 20.006 5.88429C19.9109 5.92268 19.8247 5.97999 19.7524 6.05275C19.6765 6.13013 19.6174 6.22233 19.5787 6.3236C19.5401 6.42486 19.5227 6.53301 19.5278 6.64128C19.5229 6.74817 19.5394 6.85494 19.5764 6.95534C19.6134 7.05573 19.6701 7.14771 19.7432 7.22588C19.8093 7.2959 19.8892 7.35152 19.9778 7.38927C20.0664 7.42702 20.1619 7.44608 20.2582 7.44526C20.4315 7.45164 20.6033 7.41173 20.7561 7.32966L20.7521 6.62289Z" fill="#092335"/>
<path d="M5.94172 10.6715C6.07567 10.6742 6.20836 10.6451 6.32892 10.5867C6.44948 10.5282 6.55449 10.4421 6.63535 10.3352L7.00318 10.7162C6.88146 10.8607 6.73156 10.9788 6.56265 11.0634C6.39373 11.148 6.20934 11.1973 6.02073 11.2083C5.83213 11.2192 5.64328 11.1916 5.46571 11.1271C5.28814 11.0626 5.12559 10.9626 4.98798 10.8331C4.8616 10.7103 4.76213 10.5626 4.69587 10.3993C4.62961 10.236 4.59801 10.0608 4.60306 9.88464C4.59887 9.70643 4.63174 9.52928 4.69958 9.36443C4.76742 9.19957 4.86876 9.05061 4.99717 8.92696C5.12296 8.80138 5.27293 8.70263 5.43799 8.6367C5.60306 8.57076 5.77979 8.53901 5.95748 8.54336C6.15849 8.54101 6.35753 8.58313 6.54035 8.66671C6.72318 8.75029 6.88526 8.87325 7.015 9.0268L6.66031 9.43273C6.5821 9.32664 6.47993 9.24053 6.36214 9.1814C6.24434 9.12228 6.11424 9.09181 5.98244 9.09249C5.77652 9.0881 5.57706 9.16449 5.42675 9.30531C5.3494 9.37828 5.2888 9.46716 5.24911 9.56581C5.20942 9.66447 5.19159 9.77055 5.19685 9.87676C5.19189 9.98269 5.20868 10.0885 5.24619 10.1877C5.28369 10.2869 5.34112 10.3773 5.41493 10.4535C5.48302 10.5241 5.56495 10.5799 5.65559 10.6174C5.74623 10.6549 5.84363 10.6734 5.94172 10.6715Z" fill="#092335"/>
<path d="M9.14955 8.60254V9.11488H7.86608V9.64036H9.02081V10.1317H7.86608V10.6664H9.19028V11.18H7.29199V8.60254H9.14955Z" fill="#092335"/>
<path d="M11.3223 8.60254H11.8977V11.18H11.3223L10.094 9.56548V11.18H9.51855V8.60254H10.0572L11.3223 10.2604V8.60254Z" fill="#092335"/>
<path d="M13.5163 9.10043V11.18H12.9409V9.10043H12.2104V8.60254H14.2467V9.10043H13.5163Z" fill="#092335"/>
<path d="M16.6506 9.45775C16.6506 9.872 16.4873 10.1387 16.1606 10.2578L16.8174 11.1774H16.1054L15.534 10.355H15.1399V11.18H14.5645V8.60254H15.5418C15.9359 8.60254 16.2289 8.67085 16.3997 8.80485C16.5705 8.93884 16.6506 9.15823 16.6506 9.45775ZM15.957 9.76384C15.9959 9.72414 16.0257 9.67642 16.0443 9.62401C16.0629 9.5716 16.0699 9.51575 16.0647 9.46038C16.0711 9.40726 16.0644 9.35337 16.0452 9.30344C16.0259 9.25351 15.9948 9.20907 15.9543 9.174C15.833 9.11116 15.6963 9.08426 15.5602 9.09649H15.128V9.86631H15.5537C15.6959 9.88007 15.8385 9.84384 15.957 9.76384Z" fill="#092335"/>
<path d="M19.0664 11.18L18.826 10.623H17.7461L17.5057 11.18H16.8936L18.0076 8.60254H18.5646L19.6786 11.18H19.0664ZM18.2874 9.36974L17.9629 10.1185H18.6092L18.2874 9.36974Z" fill="#092335"/>
<path d="M19.7852 11.18V8.60254H20.3606V10.6677H21.4654V11.18H19.7852Z" fill="#092335"/>
</svg>
