<svg width="25" height="25" viewBox="0 0 25 25" fill="none" xmlns="http://www.w3.org/2000/svg">
<path d="M21.8752 4.16669H3.12516C2.54987 4.16669 2.0835 4.63306 2.0835 5.20835V19.7917C2.0835 20.367 2.54987 20.8334 3.12516 20.8334H21.8752C22.4505 20.8334 22.9168 20.367 22.9168 19.7917V5.20835C22.9168 4.63306 22.4505 4.16669 21.8752 4.16669Z" stroke="black" stroke-width="2.08333" stroke-linejoin="round"/>
<path d="M8.85433 13.0209C9.40686 13.0209 9.93677 12.8014 10.3275 12.4107C10.7182 12.02 10.9377 11.4901 10.9377 10.9375C10.9377 10.385 10.7182 9.85508 10.3275 9.46438C9.93677 9.07368 9.40686 8.85419 8.85433 8.85419C8.30179 8.85419 7.77189 9.07368 7.38119 9.46438C6.99049 9.85508 6.771 10.385 6.771 10.9375C6.771 11.4901 6.99049 12.02 7.38119 12.4107C7.77189 12.8014 8.30179 13.0209 8.85433 13.0209V13.0209Z" stroke="black" stroke-width="2.08333" stroke-linejoin="round"/>
<path d="M11.9795 16.1459C11.9795 15.3171 11.6503 14.5222 11.0642 13.9361C10.4781 13.3501 9.68329 13.0209 8.85449 13.0209C8.02569 13.0209 7.23083 13.3501 6.64478 13.9361C6.05873 14.5222 5.72949 15.3171 5.72949 16.1459M14.5837 10.4167H18.7503M15.6253 14.5834H18.7503" stroke="black" stroke-width="2.08333" stroke-linecap="round" stroke-linejoin="round"/>
</svg>
