<svg width="21" height="20" viewBox="0 0 21 20" fill="none" xmlns="http://www.w3.org/2000/svg">
<path d="M10.8234 0C5.30337 0 0.833374 4.48 0.833374 10C0.833374 15.52 5.30337 20 10.8234 20C16.3534 20 20.8334 15.52 20.8334 10C20.8334 4.48 16.3534 0 10.8234 0ZM17.7534 6H14.8034C14.4834 4.75 14.0234 3.55 13.4234 2.44C15.2634 3.07 16.7934 4.35 17.7534 6ZM10.8334 2.04C11.6634 3.24 12.3134 4.57 12.7434 6H8.92337C9.35337 4.57 10.0034 3.24 10.8334 2.04ZM3.09337 12C2.93337 11.36 2.83337 10.69 2.83337 10C2.83337 9.31 2.93337 8.64 3.09337 8H6.47337C6.39337 8.66 6.33337 9.32 6.33337 10C6.33337 10.68 6.39337 11.34 6.47337 12H3.09337ZM3.91337 14H6.86337C7.18337 15.25 7.64337 16.45 8.24337 17.56C6.40337 16.93 4.87337 15.66 3.91337 14ZM6.86337 6H3.91337C4.87337 4.34 6.40337 3.07 8.24337 2.44C7.64337 3.55 7.18337 4.75 6.86337 6ZM10.8334 17.96C10.0034 16.76 9.35337 15.43 8.92337 14H12.7434C12.3134 15.43 11.6634 16.76 10.8334 17.96ZM13.1734 12H8.49337C8.40337 11.34 8.33337 10.68 8.33337 10C8.33337 9.32 8.40337 8.65 8.49337 8H13.1734C13.2634 8.65 13.3334 9.32 13.3334 10C13.3334 10.68 13.2634 11.34 13.1734 12ZM13.4234 17.56C14.0234 16.45 14.4834 15.25 14.8034 14H17.7534C16.7934 15.65 15.2634 16.93 13.4234 17.56ZM15.1934 12C15.2734 11.34 15.3334 10.68 15.3334 10C15.3334 9.32 15.2734 8.66 15.1934 8H18.5734C18.7334 8.64 18.8334 9.31 18.8334 10C18.8334 10.69 18.7334 11.36 18.5734 12H15.1934Z" fill="#425E6E"/>
</svg>
