<svg width="18" height="19" viewBox="0 0 18 19" fill="none" xmlns="http://www.w3.org/2000/svg">
<path d="M9.25003 18.25C8.05419 18.25 6.92398 18.0202 5.8594 17.5605C4.79481 17.1014 3.86527 16.4744 3.07077 15.6793C2.27568 14.8848 1.6486 13.9552 1.18952 12.8906C0.729849 11.8261 0.500015 10.6958 0.500015 9.50001C0.500015 8.28959 0.729849 7.15588 1.18952 6.09888C1.6486 5.0413 2.27568 4.11525 3.07077 3.32075C3.86527 2.52567 4.79481 1.89829 5.8594 1.43863C6.92398 0.979542 8.05419 0.75 9.25003 0.75C10.4604 0.75 11.5942 0.979542 12.6512 1.43863C13.7087 1.89829 14.6348 2.52567 15.4293 3.32075C16.2244 4.11525 16.8515 5.0413 17.3105 6.09888C17.7702 7.15588 18 8.28959 18 9.50001C18 10.6958 17.7702 11.8261 17.3105 12.8906C16.8515 13.9552 16.2244 14.8848 15.4293 15.6793C14.6348 16.4744 13.7087 17.1014 12.6512 17.5605C11.5942 18.0202 10.4604 18.25 9.25003 18.25ZM9.25003 16.4563C9.62919 15.9313 9.95732 15.3844 10.2344 14.8156C10.5115 14.2469 10.7375 13.6417 10.9125 13H7.58752C7.76253 13.6417 7.98857 14.2469 8.26565 14.8156C8.54273 15.3844 8.87086 15.9313 9.25003 16.4563ZM6.97502 16.1063C6.71252 15.625 6.48298 15.1254 6.2864 14.6074C6.08923 14.09 5.92502 13.5542 5.79377 13H3.21252C3.63544 13.7292 4.16394 14.3636 4.79802 14.9031C5.43269 15.4427 6.15836 15.8438 6.97502 16.1063ZM11.525 16.1063C12.3417 15.8438 13.0671 15.4427 13.7012 14.9031C14.3358 14.3636 14.8646 13.7292 15.2875 13H12.7063C12.575 13.5542 12.4111 14.09 12.2145 14.6074C12.0174 15.1254 11.7875 15.625 11.525 16.1063ZM2.46877 11.25H5.44377C5.40002 10.9583 5.36706 10.6702 5.3449 10.3855C5.32331 10.1014 5.31252 9.80626 5.31252 9.50001C5.31252 9.19376 5.32331 8.89859 5.3449 8.61451C5.36706 8.32984 5.40002 8.04168 5.44377 7.75001H2.46877C2.39585 8.04168 2.34102 8.32984 2.30427 8.61451C2.2681 8.89859 2.25002 9.19376 2.25002 9.50001C2.25002 9.80626 2.2681 10.1014 2.30427 10.3855C2.34102 10.6702 2.39585 10.9583 2.46877 11.25ZM7.19377 11.25H11.3063C11.35 10.9583 11.383 10.6702 11.4052 10.3855C11.4267 10.1014 11.4375 9.80626 11.4375 9.50001C11.4375 9.19376 11.4267 8.89859 11.4052 8.61451C11.383 8.32984 11.35 8.04168 11.3063 7.75001H7.19377C7.15002 8.04168 7.11736 8.32984 7.09577 8.61451C7.07361 8.89859 7.06252 9.19376 7.06252 9.50001C7.06252 9.80626 7.07361 10.1014 7.09577 10.3855C7.11736 10.6702 7.15002 10.9583 7.19377 11.25ZM13.0563 11.25H16.0313C16.1042 10.9583 16.159 10.6702 16.1958 10.3855C16.232 10.1014 16.25 9.80626 16.25 9.50001C16.25 9.19376 16.232 8.89859 16.1958 8.61451C16.159 8.32984 16.1042 8.04168 16.0313 7.75001H13.0563C13.1 8.04168 13.1327 8.32984 13.1543 8.61451C13.1764 8.89859 13.1875 9.19376 13.1875 9.50001C13.1875 9.80626 13.1764 10.1014 13.1543 10.3855C13.1327 10.6702 13.1 10.9583 13.0563 11.25ZM12.7063 6.00001H15.2875C14.8646 5.27084 14.3358 4.63646 13.7012 4.09688C13.0671 3.5573 12.3417 3.15625 11.525 2.89375C11.7875 3.375 12.0174 3.87434 12.2145 4.39175C12.4111 4.90976 12.575 5.44584 12.7063 6.00001ZM7.58752 6.00001H10.9125C10.7375 5.35834 10.5115 4.75313 10.2344 4.18438C9.95732 3.61563 9.62919 3.06875 9.25003 2.54375C8.87086 3.06875 8.54273 3.61563 8.26565 4.18438C7.98857 4.75313 7.76253 5.35834 7.58752 6.00001ZM3.21252 6.00001H5.79377C5.92502 5.44584 6.08923 4.90976 6.2864 4.39175C6.48298 3.87434 6.71252 3.375 6.97502 2.89375C6.15836 3.15625 5.43269 3.5573 4.79802 4.09688C4.16394 4.63646 3.63544 5.27084 3.21252 6.00001Z" fill="#3A4C56"/>
</svg>
