<svg width="38" height="38" viewBox="0 0 38 38" fill="none" xmlns="http://www.w3.org/2000/svg">
<g filter="url(#filter0_d_208_1779)">
<path d="M18.5833 29.1667C26.6375 29.1667 33.1667 22.6375 33.1667 14.5833C33.1667 6.52918 26.6375 0 18.5833 0C10.5292 0 4 6.52918 4 14.5833C4 22.6375 10.5292 29.1667 18.5833 29.1667Z" fill="#48CC7F"/>
</g>
<path d="M15.5957 15.0143L15.5958 15.0142C15.7436 14.8668 15.944 14.7839 16.1528 14.7839C16.3617 14.7839 16.562 14.8668 16.7099 15.0142L16.71 15.0144C16.7831 15.0874 16.8412 15.1742 16.8808 15.2697C16.9204 15.3652 16.9407 15.4675 16.9407 15.5709C16.9407 15.6743 16.9204 15.7767 16.8808 15.8722C16.8412 15.9677 16.7831 16.0544 16.71 16.1275L16.71 16.1275L15.5684 17.2674L15.5684 17.2674C15.4918 17.3439 15.431 17.4347 15.3895 17.5347C15.348 17.6347 15.3267 17.7419 15.3267 17.8501C15.3267 17.9584 15.348 18.0656 15.3895 18.1655C15.431 18.2655 15.4917 18.3563 15.5683 18.4328C15.7235 18.5875 15.9337 18.6744 16.1528 18.6744C16.3719 18.6744 16.5821 18.5875 16.7373 18.4328L19.4002 15.7737C19.4002 15.7737 19.4002 15.7737 19.4002 15.7737C19.4269 15.7471 19.448 15.7155 19.4624 15.6807C19.4769 15.6459 19.4843 15.6086 19.4843 15.5709C19.4843 15.5333 19.4769 15.496 19.4624 15.4612C19.448 15.4264 19.4269 15.3948 19.4002 15.3681C19.327 15.2951 19.2689 15.2083 19.2293 15.1128C19.1896 15.0172 19.1692 14.9148 19.1692 14.8113C19.1692 14.7078 19.1896 14.6053 19.2293 14.5098C19.2689 14.4142 19.3271 14.3274 19.4003 14.2543C19.4003 14.2543 19.4003 14.2543 19.4003 14.2543L19.5769 14.4313C19.6779 14.3306 19.8147 14.274 19.9574 14.274C20.1001 14.274 20.2369 14.3306 20.3379 14.4313L15.5957 15.0143ZM15.5957 15.0143L14.4536 16.1542C14.2306 16.3768 14.0536 16.6412 13.9329 16.9322C13.8121 17.2233 13.75 17.5353 13.75 17.8504C13.75 18.1655 13.8121 18.4775 13.9329 18.7686C14.0536 19.0597 14.2306 19.324 14.4536 19.5466L14.4536 19.5466C14.9044 19.9965 15.5153 20.2492 16.1523 20.2492C16.7892 20.2492 17.4001 19.9965 17.8509 19.5466L17.8509 19.5466L20.5145 16.8875L15.5957 15.0143ZM22.4037 14.985L22.4037 14.985C22.2558 15.1325 22.0555 15.2153 21.8466 15.2153C21.6378 15.2153 21.4374 15.1325 21.2896 14.985L21.2895 14.9848C21.2163 14.9118 21.1583 14.825 21.1187 14.7295C21.0791 14.634 21.0587 14.5317 21.0587 14.4283C21.0587 14.3249 21.0791 14.2225 21.1187 14.127C21.1583 14.0315 21.2163 13.9448 21.2895 13.8717L21.2895 13.8717L22.431 12.7318L22.4311 12.7318C22.5077 12.6553 22.5685 12.5645 22.6099 12.4645C22.6514 12.3645 22.6728 12.2573 22.6728 12.1491C22.6728 12.0408 22.6514 11.9337 22.6099 11.8337C22.5685 11.7337 22.5077 11.6429 22.4311 11.5664C22.276 11.4117 22.0658 11.3248 21.8466 11.3248C21.6275 11.3248 21.4173 11.4117 21.2622 11.5664L18.5998 14.2255L18.4367 14.0622L18.5998 14.2255C18.5731 14.2521 18.552 14.2837 18.5376 14.3185C18.5231 14.3533 18.5157 14.3906 18.5157 14.4283C18.5157 14.4659 18.5231 14.5032 18.5376 14.538C18.552 14.5728 18.5731 14.6045 18.5998 14.6311C18.673 14.7041 18.7311 14.7909 18.7707 14.8864C18.8104 14.982 18.8308 15.0844 18.8308 15.1879C18.8308 15.2914 18.8104 15.3939 18.7707 15.4894C18.7311 15.585 18.6729 15.6718 18.5997 15.7449C18.5997 15.7449 18.5997 15.7449 18.5997 15.7449L18.4231 15.5679L22.4037 14.985ZM22.4037 14.985L23.5464 13.8451L23.5464 13.845C23.7694 13.6224 23.9464 13.3581 24.0671 13.067C24.1879 12.7759 24.25 12.4639 24.25 12.1488C24.25 11.8337 24.1879 11.5217 24.0671 11.2306C23.9464 10.9396 23.7694 10.6752 23.5464 10.4526L23.5464 10.4526C23.0956 10.0027 22.4847 9.75 21.8477 9.75C21.2108 9.75 20.5999 10.0027 20.1491 10.4526L20.1491 10.4526M22.4037 14.985L20.1491 10.4526M20.1491 10.4526L17.4855 13.1117C17.4855 13.1117 17.4855 13.1117 17.4855 13.1118L20.1491 10.4526Z" fill="white" stroke="white" stroke-width="0.5"/>
<defs>
<filter id="filter0_d_208_1779" x="0" y="0" width="37.1666" height="37.1667" filterUnits="userSpaceOnUse" color-interpolation-filters="sRGB">
<feFlood flood-opacity="0" result="BackgroundImageFix"/>
<feColorMatrix in="SourceAlpha" type="matrix" values="0 0 0 0 0 0 0 0 0 0 0 0 0 0 0 0 0 0 127 0" result="hardAlpha"/>
<feOffset dy="4"/>
<feGaussianBlur stdDeviation="2"/>
<feComposite in2="hardAlpha" operator="out"/>
<feColorMatrix type="matrix" values="0 0 0 0 0 0 0 0 0 0 0 0 0 0 0 0 0 0 0.25 0"/>
<feBlend mode="normal" in2="BackgroundImageFix" result="effect1_dropShadow_208_1779"/>
<feBlend mode="normal" in="SourceGraphic" in2="effect1_dropShadow_208_1779" result="shape"/>
</filter>
</defs>
</svg>
