<?xml version="1.0" encoding="utf-8"?>
<!-- Generator: Adobe Illustrator 24.0.1, SVG Export Plug-In . SVG Version: 6.00 Build 0)  -->
<svg version="1.1" id="Layer_1" xmlns="http://www.w3.org/2000/svg" xmlns:xlink="http://www.w3.org/1999/xlink" x="0px" y="0px"
	 viewBox="0 0 1920 165.3" style="enable-background:new 0 0 1920 165.3;" xml:space="preserve">
<style type="text/css">
	.st0{fill:url(#SVGID_1_);}
	.st1{fill:url(#SVGID_2_);}
	.st2{fill:url(#SVGID_3_);}
	.st3{fill:#070707;}
</style>
<g>
	
		<linearGradient id="SVGID_1_" gradientUnits="userSpaceOnUse" x1="293.9636" y1="193.6266" x2="205.5287" y2="34.9233" gradientTransform="matrix(1 0 0 -1 0 168)">
		<stop  offset="0.2407" style="stop-color:#003B4D"/>
		<stop  offset="0.3064" style="stop-color:#084152"/>
		<stop  offset="0.4056" style="stop-color:#1C5161"/>
		<stop  offset="0.5261" style="stop-color:#3E6B78"/>
		<stop  offset="0.6631" style="stop-color:#6E8F9A"/>
		<stop  offset="0.8142" style="stop-color:#AABEC4"/>
		<stop  offset="0.9748" style="stop-color:#F3F6F7"/>
		<stop  offset="1" style="stop-color:#FFFFFF"/>
	</linearGradient>
	<path class="st0" d="M236.1,134.8c6-57,44.3-104.4,96.2-123.7h-32.9c-72.7,0-132.8,53.8-142.7,123.7H236.1z"/>
	
		<linearGradient id="SVGID_2_" gradientUnits="userSpaceOnUse" x1="181.26" y1="123.5345" x2="181.26" y2="23.4279" gradientTransform="matrix(1 0 0 -1 0 168)">
		<stop  offset="0.3744" style="stop-color:#003B4D"/>
		<stop  offset="0.4509" style="stop-color:#053E50"/>
		<stop  offset="0.5433" style="stop-color:#144858"/>
		<stop  offset="0.6439" style="stop-color:#2C5866"/>
		<stop  offset="0.7504" style="stop-color:#4E6F7A"/>
		<stop  offset="0.8602" style="stop-color:#7A8B92"/>
		<stop  offset="0.9586" style="stop-color:#A7A9AC"/>
	</linearGradient>
	<path class="st1" d="M236.1,134.8h-79.4c-2.1-23.2-13.9-43.3-30.3-55.1c6.6-4.1,13.4-6.6,20-6.6C177.7,73.2,231.8,100,236.1,134.8z
		"/>
	
		<linearGradient id="SVGID_3_" gradientUnits="userSpaceOnUse" x1="78.985" y1="11.0393" x2="78.985" y2="96.9884" gradientTransform="matrix(1 0 0 -1 0 168)">
		<stop  offset="0" style="stop-color:#003B4D"/>
		<stop  offset="0.1042" style="stop-color:#053F50"/>
		<stop  offset="0.2301" style="stop-color:#144A5A"/>
		<stop  offset="0.3672" style="stop-color:#2C5C6B"/>
		<stop  offset="0.5122" style="stop-color:#4E7682"/>
		<stop  offset="0.6636" style="stop-color:#7A969F"/>
		<stop  offset="0.8178" style="stop-color:#AFBEC3"/>
		<stop  offset="0.9586" style="stop-color:#E6E7E8"/>
	</linearGradient>
	<path class="st2" d="M146.4,73.2c-6.6,0-13.4,2.4-20,6.6c-25.2,15.7-48.6,55.6-53,77.5H11.6c11.2-37.9,63.9-84,103.3-84H146.4z"/>
</g>
<path class="st3" d="M451.7,144.2h-9.5v-108h48.2c9.2,0,16.6,2.9,22.1,8.7c5.5,5.8,8.3,13,8.3,21.4c0,8.4-2.5,15.5-7.4,21.1
	s-11.6,8.9-19.9,9.9l27.4,46.9h-10.2l-27.3-46.5h-31.6L451.7,144.2L451.7,144.2z M490.5,45h-38.8v44h38.8c6.8,0,12-2.1,15.5-6.2
	c3.5-4.1,5.3-9.4,5.3-15.8s-1.8-11.7-5.3-15.8C502.5,47,497.3,45,490.5,45z"/>
<path class="st3" d="M575.7,110l-14.4,34.3h-10.1l45.7-108h8.3l45.7,108h-10.1L626.5,110H575.7z M601.1,49.7l-21.7,51.5h43.4
	L601.1,49.7z"/>
<path class="st3" d="M769.5,89.1c0,6.9-0.7,13.1-2,18.4c-2.7,11.2-8.3,20.1-16.8,26.7c-8.5,6.6-19.9,9.9-34.2,9.9h-32.5v-108h32.5
	c9,0,16.9,1.4,23.8,4.1c6.9,2.8,12.4,6.6,16.6,11.5c4.2,4.9,7.3,10.6,9.4,17C768.5,75.4,769.5,82.2,769.5,89.1z M693.6,45v90.5h23
	c21.9,0,35.6-9.2,41-27.5c1.6-5.3,2.4-11.2,2.3-17.8c0-13.2-3.4-24-10.1-32.5c-6.7-8.5-17.8-12.7-33.3-12.7
	C716.7,45,693.6,45,693.6,45z"/>
<path class="st3" d="M960,87.8l41.4,56.5h-11.8l-35.8-48.9L918,144.2h-11.8l41.4-56.5l-37.7-51.5h11.8l32,43.9l32.1-43.9h11.8
	L960,87.8z"/>
<path class="st3" d="M1211.7,36.3v108h-9.5V51.5l-38.9,92.7h-9l-38.8-92.6v92.6h-9.5v-108h13l39.8,95.1l39.8-95.1H1211.7z"/>
<path class="st3" d="M1269.4,110l-14.4,34.3h-10.1l45.7-108h8.3l45.7,108h-10.1l-14.4-34.3H1269.4z M1294.7,49.7l-21.7,51.5h43.4
	L1294.7,49.7z"/>
<path class="st3" d="M1387.3,144.2h-9.5v-108h48.2c9.2,0,16.6,2.9,22.1,8.7c5.5,5.8,8.3,13,8.3,21.4c0,8.4-2.5,15.5-7.4,21.1
	c-4.9,5.6-11.6,8.9-19.8,9.9l27.4,46.9h-10.2l-27.3-46.5h-31.6L1387.3,144.2L1387.3,144.2z M1426.1,45h-38.8v44h38.8
	c6.8,0,12-2.1,15.5-6.2c3.5-4.1,5.3-9.4,5.3-15.8s-1.8-11.7-5.3-15.8C1438.1,47,1432.9,45,1426.1,45z"/>
<path class="st3" d="M1503.1,144.2h-9.5v-108h9.5v56.4l57.7-56.4h12.2l-47.5,46.4l49.6,61.6h-11.1l-44.6-55.5l-16.2,15.7
	L1503.1,144.2L1503.1,144.2z"/>
<path class="st3" d="M1617.7,84.7h56.9v8.7h-56.9v42.1h62.1v8.7h-71.5v-108h70.8V45h-61.3L1617.7,84.7L1617.7,84.7z"/>
<path class="st3" d="M817.8,84.7h56.9v8.7h-56.9v42.1h62v8.7h-71.5v-108h70.8V45h-61.3L817.8,84.7L817.8,84.7z"/>
<path class="st3" d="M1713.7,36.3h86.3V45h-38.4v99.2h-9.5V45h-38.4L1713.7,36.3L1713.7,36.3z"/>
<path class="st3" d="M1871.4,137c18.3,0,27.5-6.9,27.5-20.6c0-6.5-2.1-11.4-6.3-14.9c-4.2-3.5-12.4-6.4-24.4-9
	c-23.6-5-35.4-15.1-35.3-30.3c0-8.6,3.1-15.4,9.2-20.3c6.1-4.9,14.9-7.3,26.5-7.3c15.2,0,26.8,3,34.8,9l-4.8,7.2
	c-7.9-5-18.1-7.5-30.3-7.5c-12.2,0-20.2,3.4-23.9,10.2c-1.3,2.5-2,5.3-2,8.7c0.1,5.3,2.2,9.6,6.6,13c4.3,3.3,10.7,5.9,19.2,7.8
	s15,3.7,19.4,5.5s8.3,4,11.6,6.6c6.2,4.9,9.3,12,9.3,21.4c0,11.4-5.1,19.7-15.2,24.8c-6,3-13.4,4.5-22.1,4.5s-16.6-1.1-23.6-3.2
	c-7-2.2-12.6-5.1-16.7-8.7l4.9-7.2C1845.2,133.5,1857.2,137,1871.4,137z"/>
</svg>
