<?xml version="1.0" encoding="utf-8"?>
<!-- Generator: Adobe Illustrator 24.0.1, SVG Export Plug-In . SVG Version: 6.00 Build 0)  -->
<svg version="1.1" id="Layer_1" xmlns="http://www.w3.org/2000/svg" xmlns:xlink="http://www.w3.org/1999/xlink" x="0px" y="0px"
	 viewBox="0 0 1920 165.33" style="enable-background:new 0 0 1920 165.33;" xml:space="preserve">
<g>
	<linearGradient id="SVGID_1_" gradientUnits="userSpaceOnUse" x1="293.969" y1="-25.6236" x2="205.5341" y2="133.0797">
		<stop  offset="0.2407" style="stop-color:#003B4D"/>
		<stop  offset="0.3064" style="stop-color:#084152"/>
		<stop  offset="0.4056" style="stop-color:#1C5161"/>
		<stop  offset="0.5261" style="stop-color:#3E6B78"/>
		<stop  offset="0.6631" style="stop-color:#6E8F9A"/>
		<stop  offset="0.8142" style="stop-color:#AABEC4"/>
		<stop  offset="0.9748" style="stop-color:#F3F6F7"/>
		<stop  offset="1" style="stop-color:#FFFFFF"/>
	</linearGradient>
	<path style="fill:url(#SVGID_1_);" d="M236.09,134.83c6.03-57.01,44.27-104.42,96.18-123.68h-32.89
		c-72.66,0-132.75,53.76-142.69,123.68H236.09z"/>
	<linearGradient id="SVGID_2_" gradientUnits="userSpaceOnUse" x1="181.2592" y1="44.4655" x2="181.2592" y2="144.5721">
		<stop  offset="0.3744" style="stop-color:#003B4D"/>
		<stop  offset="0.4509" style="stop-color:#053E50"/>
		<stop  offset="0.5433" style="stop-color:#144858"/>
		<stop  offset="0.6439" style="stop-color:#2C5866"/>
		<stop  offset="0.7504" style="stop-color:#4E6F7A"/>
		<stop  offset="0.8602" style="stop-color:#7A8B92"/>
		<stop  offset="0.9586" style="stop-color:#A7A9AC"/>
	</linearGradient>
	<path style="fill:url(#SVGID_2_);" d="M236.1,134.82h-79.41c-2.13-23.23-13.85-43.29-30.27-55.07c6.63-4.13,13.42-6.57,19.99-6.57
		C177.7,73.18,231.81,99.99,236.1,134.82z"/>
	<linearGradient id="SVGID_3_" gradientUnits="userSpaceOnUse" x1="78.9835" y1="156.9607" x2="78.9835" y2="71.0116">
		<stop  offset="0" style="stop-color:#003B4D"/>
		<stop  offset="0.1042" style="stop-color:#053F50"/>
		<stop  offset="0.2301" style="stop-color:#144A5A"/>
		<stop  offset="0.3672" style="stop-color:#2C5C6B"/>
		<stop  offset="0.5122" style="stop-color:#4E7682"/>
		<stop  offset="0.6636" style="stop-color:#7A969F"/>
		<stop  offset="0.8178" style="stop-color:#AFBEC3"/>
		<stop  offset="0.9586" style="stop-color:#E6E7E8"/>
	</linearGradient>
	<path style="fill:url(#SVGID_3_);" d="M146.41,73.18c-6.57,0-13.36,2.44-19.99,6.57c-25.21,15.67-48.59,55.6-53,77.47H11.56
		c11.23-37.89,63.86-84.04,103.26-84.04H146.41z"/>
</g>
<path style="fill:#434343;" d="M451.73,144.23h-9.49V36.25h48.18c9.22,0,16.58,2.91,22.09,8.74c5.51,5.82,8.27,12.95,8.27,21.39
	c0,8.43-2.47,15.46-7.41,21.08c-4.94,5.62-11.56,8.91-19.85,9.86l27.41,46.91h-10.24l-27.33-46.54h-31.63V144.23z M490.51,44.98
	h-38.78v43.98h38.78c6.83,0,12-2.06,15.51-6.17c3.51-4.12,5.27-9.39,5.27-15.81s-1.76-11.7-5.27-15.81
	C502.5,47.04,497.33,44.98,490.51,44.98z"/>
<path style="fill:#434343;" d="M575.73,109.97l-14.38,34.26h-10.09l45.71-107.98h8.28l45.71,107.98h-10.09l-14.38-34.26H575.73z
	 M601.11,49.72l-21.69,51.51h43.37L601.11,49.72z"/>
<path style="fill:#434343;" d="M769.54,89.11c0,6.93-0.65,13.08-1.96,18.45c-2.7,11.19-8.29,20.11-16.76,26.73
	c-8.47,6.63-19.87,9.94-34.2,9.94h-32.47V36.25h32.47c8.97,0,16.89,1.38,23.75,4.14c6.87,2.76,12.4,6.6,16.61,11.52
	c4.21,4.92,7.34,10.59,9.4,17.02C768.49,75.45,769.54,82.18,769.54,89.11z M693.64,44.98v90.51h23.04
	c21.94,0,35.62-9.16,41.04-27.48c1.61-5.32,2.38-11.24,2.33-17.77c0-13.15-3.36-24-10.09-32.53c-6.73-8.48-17.82-12.73-33.28-12.73
	H693.64z"/>
<path style="fill:#434343;" d="M960.02,87.75l41.42,56.48h-11.82l-35.84-48.87L918,144.23h-11.82l41.42-56.48l-37.65-51.51h11.82
	l32,43.9l32.08-43.9h11.82L960.02,87.75z"/>
<path style="fill:#434343;" d="M1211.7,36.25v107.98h-9.49v-92.7l-38.86,92.7h-9.04l-38.85-92.62v92.62h-9.49V36.25H1119
	l39.83,95.11l39.83-95.11H1211.7z"/>
<path style="fill:#434343;" d="M1269.36,109.97l-14.38,34.26h-10.09l45.71-107.98h8.28l45.71,107.98h-10.09l-14.38-34.26H1269.36z
	 M1294.74,49.72l-21.69,51.51h43.37L1294.74,49.72z"/>
<path style="fill:#434343;" d="M1387.27,144.23h-9.49V36.25h48.18c9.22,0,16.58,2.91,22.09,8.74c5.51,5.82,8.27,12.95,8.27,21.39
	c0,8.43-2.47,15.46-7.41,21.08c-4.94,5.62-11.56,8.91-19.85,9.86l27.41,46.91h-10.24l-27.33-46.54h-31.63V144.23z M1426.05,44.98
	h-38.78v43.98h38.78c6.83,0,12-2.06,15.51-6.17c3.51-4.12,5.27-9.39,5.27-15.81s-1.76-11.7-5.27-15.81
	C1438.05,47.04,1432.87,44.98,1426.05,44.98z"/>
<path style="fill:#434343;" d="M1503.07,144.23h-9.49V36.25h9.49v56.4l57.68-56.4h12.2l-47.52,46.39l49.55,61.6h-11.14l-44.58-55.5
	l-16.19,15.74V144.23z"/>
<path style="fill:#434343;" d="M1617.66,84.66h56.93v8.73h-56.93v42.09h62.05v8.73h-71.54V36.25h70.78v8.74h-61.3V84.66z"/>
<path style="fill:#434343;" d="M817.77,84.66h56.93v8.73h-56.93v42.09h62.05v8.73h-71.54V36.25h70.78v8.74h-61.3V84.66z"/>
<path style="fill:#434343;" d="M1713.65,36.25h86.3v8.74h-38.4v99.25h-9.49V44.98h-38.4V36.25z"/>
<path style="fill:#434343;" d="M1871.44,137c18.35,0,27.52-6.85,27.52-20.56c0-6.48-2.11-11.45-6.33-14.91
	c-4.22-3.46-12.37-6.45-24.43-8.96c-23.62-5.02-35.4-15.11-35.35-30.27c0-8.63,3.06-15.39,9.19-20.26c6.13-4.87,14.95-7.3,26.46-7.3
	c15.17,0,26.78,3.01,34.84,9.04l-4.76,7.23c-7.94-5.02-18.05-7.53-30.31-7.53c-12.22,0-20.18,3.39-23.9,10.17
	c-1.31,2.46-1.99,5.35-2.04,8.66c0.05,5.32,2.24,9.64,6.56,12.95c4.32,3.31,10.73,5.9,19.23,7.76c8.5,1.86,14.98,3.69,19.45,5.5
	c4.47,1.81,8.35,3.99,11.63,6.55c6.16,4.87,9.25,12,9.25,21.39c0,11.45-5.06,19.7-15.19,24.77c-6,3.01-13.38,4.52-22.13,4.52
	c-8.75,0-16.63-1.08-23.64-3.24c-7.02-2.16-12.58-5.07-16.69-8.74l4.89-7.23C1845.23,133.51,1857.15,137,1871.44,137z"/>
</svg>
