<svg width="190" height="26" viewBox="0 0 190 26" fill="none" xmlns="http://www.w3.org/2000/svg">
<g clip-path="url(#clip0_139_371)">
<path d="M17.8185 0C16.3815 0.703124 14.5614 1.66193 12.6135 3.03622C14.8488 4.57031 16.6051 6.13636 17.8504 7.3828C21.7143 11.25 23.9496 15.1811 25.2269 17.8338V7.3828L17.8185 0Z" fill="url(#paint0_linear_139_371)"/>
<path d="M25.195 17.8338C24.5244 16.3956 23.5345 14.5739 22.1614 12.5923C20.6286 14.8296 19.0639 16.5874 17.8185 17.8338C13.9547 21.701 10.0269 23.9382 7.37653 25.2166H17.8185L25.195 17.8338Z" fill="url(#paint1_linear_139_371)"/>
<path d="M12.5815 22.1804C10.3462 20.6463 8.58992 19.0802 7.34454 17.8338C3.51261 13.9666 1.27731 10.0355 0 7.38281V17.8338L7.37647 25.2166C8.81345 24.5135 10.6336 23.5547 12.5815 22.1804Z" fill="url(#paint2_linear_139_371)"/>
<path d="M3.03367 12.5923C4.56645 10.3551 6.13115 8.59729 7.37653 7.35084C11.2404 3.51562 15.1362 1.27841 17.8185 0H7.37653L6.10352e-05 7.3828C0.702582 8.82101 1.66057 10.6427 3.03367 12.5923Z" fill="url(#paint3_linear_139_371)"/>
<path d="M89.4571 20.902L89.4252 9.84374L83.9647 18.9844H82.5916L77.1311 9.97158V20.87H74.1932V4.21875H76.7479L83.3579 15.277L89.8403 4.21875H92.3949L92.4268 20.902H89.4571Z" fill="white"/>
<path d="M107.435 17.0348H99.1008L97.4722 20.902H94.2789L101.783 4.21875H104.817L112.321 20.902H109.096L107.435 17.0348ZM106.413 14.6058L103.284 7.31889L100.155 14.6058H106.413Z" fill="white"/>
<path d="M125.126 20.902L121.709 16.0121C121.581 16.0121 121.358 16.044 121.071 16.044H117.302V20.902H114.205V4.21875H121.071C122.508 4.21875 123.785 4.44247 124.839 4.92187C125.924 5.40128 126.723 6.07244 127.297 6.96733C127.872 7.86221 128.16 8.9169 128.16 10.1314C128.16 11.3778 127.84 12.4645 127.234 13.3594C126.627 14.2542 125.733 14.9254 124.615 15.3729L128.447 20.838H125.126V20.902ZM124.008 7.70241C123.306 7.12713 122.284 6.83949 120.943 6.83949H117.334V13.4872H120.943C122.284 13.4872 123.306 13.1996 124.008 12.6243C124.711 12.049 125.062 11.218 125.062 10.1633C125.062 9.10866 124.711 8.27769 124.008 7.70241Z" fill="white"/>
<path d="M137.101 13.9027L134.45 16.6193V20.87H131.353V4.21875H134.45V12.7841L142.689 4.25071H146.17L139.176 11.6974L146.585 20.902H142.976L137.101 13.9027Z" fill="white"/>
<path d="M160.987 18.2812V20.87H148.501V4.21875H160.635V6.80753H151.566V11.1541H159.613V13.7109H151.566V18.3132H160.987V18.2812Z" fill="white"/>
<path d="M167.565 6.83949H162.04V4.21875H176.187V6.83949H170.662V20.902H167.565V6.83949Z" fill="white"/>
<path d="M179.539 20.5824C178.326 20.2308 177.4 19.7194 176.697 19.1442L177.783 16.7471C178.454 17.2905 179.316 17.7379 180.306 18.0575C181.296 18.4091 182.286 18.5689 183.276 18.5689C184.521 18.5689 185.447 18.3771 186.054 17.9616C186.66 17.5781 186.98 17.0348 186.98 16.3956C186.98 15.9162 186.82 15.5327 186.469 15.2131C186.118 14.8935 185.702 14.6697 185.16 14.478C184.649 14.3182 183.914 14.0945 183.02 13.8707C181.743 13.5831 180.721 13.2635 179.955 12.9758C179.156 12.6882 178.486 12.2088 177.943 11.5696C177.368 10.9304 177.113 10.0675 177.113 8.94886C177.113 8.02202 177.368 7.19105 177.847 6.42401C178.358 5.65696 179.092 5.08168 180.114 4.63424C181.136 4.1868 182.349 3.96307 183.818 3.96307C184.84 3.96307 185.83 4.09091 186.82 4.3466C187.81 4.60228 188.64 4.95384 189.375 5.43324L188.385 7.83026C187.65 7.41477 186.884 7.06321 186.086 6.83949C185.287 6.61577 184.521 6.51989 183.786 6.51989C182.573 6.51989 181.647 6.71165 181.072 7.12713C180.465 7.54261 180.178 8.08594 180.178 8.7571C180.178 9.23651 180.338 9.62003 180.689 9.90767C181.04 10.1953 181.455 10.451 181.998 10.6108C182.509 10.7706 183.244 10.9943 184.138 11.218C185.383 11.5057 186.405 11.7933 187.171 12.1129C187.97 12.4325 188.64 12.88 189.215 13.5192C189.79 14.1584 190.045 15.0213 190.045 16.076C190.045 17.0028 189.79 17.8338 189.311 18.5689C188.8 19.304 188.065 19.9112 187.044 20.3587C186.022 20.8061 184.776 21.0298 183.339 21.0298C181.998 21.1257 180.753 20.9339 179.539 20.5824Z" fill="white"/>
<path d="M54.5226 20.135C53.1495 19.3999 52.0638 18.3772 51.2974 17.0668C50.531 15.7564 50.1159 14.2863 50.1159 12.6883C50.1159 11.0583 50.4991 9.58812 51.2974 8.30971C52.0638 6.99934 53.1495 5.97662 54.5226 5.24153C55.8957 4.50645 57.4604 4.12292 59.1848 4.12292C60.9092 4.12292 62.442 4.50645 63.8151 5.24153C65.1882 5.97662 66.2739 6.99934 67.0403 8.30971C67.8386 9.62008 68.2218 11.0902 68.2218 12.6883C68.2218 14.3182 67.8386 15.7884 67.0403 17.0668C66.242 18.3772 65.1562 19.3999 63.8151 20.135C62.442 20.8701 60.9092 21.2536 59.1848 21.2536C57.4604 21.2536 55.8957 20.902 54.5226 20.135ZM61.8352 17.3225C62.6336 16.875 63.2403 16.2358 63.6873 15.4368C64.1344 14.6378 64.3579 13.711 64.3579 12.6883C64.3579 11.6655 64.1344 10.7387 63.6873 9.93968C63.2403 9.14067 62.6336 8.50147 61.8352 8.05403C61.0369 7.60659 60.1747 7.38286 59.1848 7.38286C58.1949 7.38286 57.3327 7.60659 56.5344 8.05403C55.7361 8.50147 55.1294 9.14067 54.6823 9.93968C54.2352 10.7387 54.0117 11.6655 54.0117 12.6883C54.0117 13.711 54.2352 14.6378 54.6823 15.4368C55.1294 16.2358 55.7361 16.875 56.5344 17.3225C57.3327 17.7699 58.1949 17.9936 59.1848 17.9936C60.1428 17.9936 61.0369 17.7699 61.8352 17.3225Z" fill="white"/>
<path d="M40.8554 12.3686C42.6117 12.88 43.9529 13.679 45.0705 14.478V17.2905C44.1764 17.7699 43.1865 17.9936 42.1008 17.9936C41.047 17.9936 40.121 17.7699 39.3226 17.3225C38.5243 16.875 37.8857 16.2358 37.4067 15.4368C36.9596 14.6378 36.7361 13.711 36.7361 12.6882C36.7361 11.6335 36.9596 10.7387 37.4067 9.9077C37.8537 9.10869 38.4924 8.46949 39.3226 8.02205C40.1529 7.5746 41.0789 7.35088 42.1327 7.35088C43.7932 7.35088 45.2302 7.99008 46.4117 9.23653L48.8705 6.96736C48.0722 6.04051 47.0823 5.33739 45.9008 4.82603C44.7193 4.34662 43.41 4.09094 41.9411 4.09094C40.2168 4.09094 38.652 4.4425 37.247 5.17759C35.8739 5.91267 34.7882 6.9354 33.9899 8.24577C33.2235 9.55613 32.8083 11.0263 32.8083 12.6563C32.8083 14.2862 33.1915 15.7564 33.9899 17.0668C34.7562 18.3771 35.842 19.3999 37.2151 20.135C38.5882 20.87 40.121 21.2216 41.8453 21.2216C43.0588 21.2216 44.2403 21.0298 45.4218 20.6783C46.6033 20.3267 47.6252 19.8154 48.5193 19.1442V17.7699V12.4326V12.4006L48.4873 12.3686H40.8554Z" fill="white"/>
</g>
<defs>
<linearGradient id="paint0_linear_139_371" x1="13.3728" y1="2.09109" x2="28.0544" y2="14.3998" gradientUnits="userSpaceOnUse">
<stop offset="0.000340545" stop-color="#08804A"/>
<stop offset="0.264" stop-color="#0A9648"/>
<stop offset="0.5435" stop-color="#0BA547"/>
<stop offset="0.7622" stop-color="#0BAB47"/>
</linearGradient>
<linearGradient id="paint1_linear_139_371" x1="21.6065" y1="12.2793" x2="12.4446" y2="28.1345" gradientUnits="userSpaceOnUse">
<stop offset="0.000340545" stop-color="#08804A"/>
<stop offset="0.264" stop-color="#0A9648"/>
<stop offset="0.5435" stop-color="#0BA547"/>
<stop offset="0.7622" stop-color="#0BAB47"/>
</linearGradient>
<linearGradient id="paint2_linear_139_371" x1="6.75761" y1="25.2583" x2="5.15272" y2="6.93011" gradientUnits="userSpaceOnUse">
<stop offset="0.000340545" stop-color="#08804A"/>
<stop offset="0.264" stop-color="#0A9648"/>
<stop offset="0.5435" stop-color="#0BA547"/>
<stop offset="0.7622" stop-color="#0BAB47"/>
</linearGradient>
<linearGradient id="paint3_linear_139_371" x1="5.35432" y1="13.4558" x2="11.1408" y2="-2.42875" gradientUnits="userSpaceOnUse">
<stop offset="0.000340545" stop-color="#08804A"/>
<stop offset="0.229" stop-color="#0A9648"/>
<stop offset="0.4714" stop-color="#0BA547"/>
<stop offset="0.6611" stop-color="#0BAB47"/>
<stop offset="0.7689" stop-color="#12B24C"/>
<stop offset="0.93" stop-color="#26C759"/>
<stop offset="0.9639" stop-color="#2BCC5C"/>
</linearGradient>
<clipPath id="clip0_139_371">
<rect width="190" height="25.2166" fill="white"/>
</clipPath>
</defs>
</svg>
