<svg width="330" height="28" viewBox="0 0 330 28" fill="none" xmlns="http://www.w3.org/2000/svg">
<g clip-path="url(#clip0_481_3858)">
<path d="M18.0997 1C16.6401 1.69708 14.7912 2.64766 12.8125 4.01014C15.0831 5.53105 16.8671 7.08365 18.1322 8.31939C22.057 12.1534 24.3276 16.0507 25.6251 18.6806V8.31939L18.0997 1Z" fill="url(#paint0_linear_481_3858)"/>
<path d="M25.5925 18.6808C24.9113 17.255 23.9058 15.4489 22.511 13.4844C20.954 15.7024 19.3646 17.4451 18.0996 18.6808C14.1747 22.5148 10.1849 24.7328 7.49268 26.0002H18.0996L25.5925 18.6808Z" fill="url(#paint1_linear_481_3858)"/>
<path d="M12.7802 22.9898C10.5096 21.4689 8.72555 19.9163 7.4605 18.6806C3.56807 14.8466 1.29748 10.9492 0 8.31934V18.6806L7.49294 25.9999C8.95261 25.3029 10.8015 24.3523 12.7802 22.9898Z" fill="url(#paint2_linear_481_3858)"/>
<path d="M3.08151 13.4842C4.63849 11.2662 6.2279 9.52345 7.49294 8.28771C11.4178 4.48542 15.3751 2.26743 18.0998 1H7.49294L0 8.31939C0.713613 9.74525 1.68672 11.5513 3.08151 13.4842Z" fill="url(#paint3_linear_481_3858)"/>
<path d="M90.8696 21.7225L90.8372 10.7593L85.2905 19.8214H83.8957L78.3489 10.886V21.6909H75.3647V5.18262H77.9597L84.6742 16.1459L91.2589 5.18262H93.8538L93.8862 21.7225H90.8696Z" fill="#091F2C"/>
<path d="M109.132 17.8886H100.666L99.0113 21.7225H95.7676L103.39 5.18262H106.472L114.094 21.7225H110.818L109.132 17.8886ZM108.094 15.4805L104.915 8.25613L101.736 15.4805H108.094Z" fill="#091F2C"/>
<path d="M127.102 21.7225L123.631 16.8746C123.501 16.8746 123.274 16.9063 122.982 16.9063H119.155V21.7225H116.008V5.18262H122.982C124.442 5.18262 125.739 5.40442 126.81 5.8797C127.913 6.35499 128.724 7.02039 129.307 7.90758C129.891 8.79478 130.183 9.84041 130.183 11.0445C130.183 12.2802 129.859 13.3575 129.243 14.2447C128.626 15.1319 127.718 15.7973 126.583 16.2409L130.475 21.6592H127.102V21.7225ZM125.966 8.63636C125.253 8.06601 124.215 7.78084 122.852 7.78084H119.187V14.3715H122.852C124.215 14.3715 125.253 14.0863 125.966 13.5159C126.68 12.9456 127.037 12.1218 127.037 11.0762C127.037 10.0305 126.68 9.2067 125.966 8.63636Z" fill="#091F2C"/>
<path d="M139.265 14.7834L136.573 17.4767V21.6909H133.427V5.18262H136.573V13.6744L144.942 5.2143H148.478L141.374 12.5971L148.899 21.7225H145.234L139.265 14.7834Z" fill="#091F2C"/>
<path d="M163.529 19.1243V21.6909H150.846V5.18262H163.172V7.74916H153.96V12.0584H162.134V14.5933H153.96V19.156H163.529V19.1243Z" fill="#091F2C"/>
<path d="M170.21 7.78084H164.599V5.18262H178.968V7.78084H173.357V21.7225H170.21V7.78084Z" fill="#091F2C"/>
<path d="M182.374 21.4057C181.142 21.0572 180.201 20.5502 179.487 19.9799L180.59 17.6035C181.271 18.1421 182.147 18.5857 183.153 18.9026C184.158 19.2511 185.164 19.4096 186.169 19.4096C187.434 19.4096 188.375 19.2194 188.991 18.8075C189.608 18.4273 189.932 17.8886 189.932 17.2549C189.932 16.7796 189.77 16.3994 189.413 16.0826C189.056 15.7657 188.635 15.5439 188.083 15.3538C187.564 15.1954 186.818 14.9736 185.91 14.7518C184.612 14.4666 183.574 14.1497 182.796 13.8646C181.985 13.5794 181.304 13.1041 180.752 12.4704C180.168 11.8367 179.909 10.9812 179.909 9.87216C179.909 8.95328 180.168 8.12945 180.655 7.369C181.174 6.60854 181.92 6.0382 182.958 5.5946C183.996 5.151 185.229 4.9292 186.721 4.9292C187.759 4.9292 188.764 5.05594 189.77 5.30943C190.775 5.56291 191.619 5.91146 192.365 6.38674L191.359 8.76317C190.613 8.35125 189.835 8.00271 189.024 7.78091C188.213 7.55911 187.434 7.46405 186.688 7.46405C185.456 7.46405 184.515 7.65417 183.931 8.06608C183.315 8.47799 183.023 9.01665 183.023 9.68205C183.023 10.1573 183.185 10.5376 183.542 10.8227C183.899 11.1079 184.32 11.3614 184.872 11.5198C185.391 11.6782 186.137 11.9 187.045 12.1218C188.31 12.407 189.348 12.6922 190.127 13.009C190.938 13.3259 191.619 13.7695 192.203 14.4032C192.786 15.0369 193.046 15.8924 193.046 16.9381C193.046 17.857 192.786 18.6808 192.3 19.4096C191.781 20.1383 191.035 20.7404 189.997 21.184C188.959 21.6276 187.694 21.8493 186.234 21.8493C184.872 21.9444 183.607 21.7543 182.374 21.4057Z" fill="#091F2C"/>
<path d="M55.3835 20.9624C53.9887 20.2336 52.8859 19.2197 52.1074 17.9206C51.3289 16.6215 50.9072 15.1639 50.9072 13.5797C50.9072 11.9637 51.2965 10.5061 52.1074 9.23871C52.8859 7.9396 53.9887 6.92566 55.3835 6.19689C56.7783 5.46812 58.3677 5.08789 60.1193 5.08789C61.8709 5.08789 63.4279 5.46812 64.8227 6.19689C66.2175 6.92566 67.3203 7.9396 68.0988 9.23871C68.9097 10.5378 69.299 11.9954 69.299 13.5797C69.299 15.1956 68.9097 16.6532 68.0988 17.9206C67.2879 19.2197 66.185 20.2336 64.8227 20.9624C63.4279 21.6912 61.8709 22.0714 60.1193 22.0714C58.3677 22.0714 56.7783 21.7229 55.3835 20.9624ZM62.8116 18.1741C63.6225 17.7305 64.2388 17.0968 64.6929 16.3046C65.147 15.5125 65.3741 14.5936 65.3741 13.5797C65.3741 12.5657 65.147 11.6468 64.6929 10.8547C64.2388 10.0625 63.6225 9.42883 62.8116 8.98523C62.0007 8.54163 61.1249 8.31983 60.1193 8.31983C59.1138 8.31983 58.238 8.54163 57.4271 8.98523C56.6161 9.42883 55.9998 10.0625 55.5457 10.8547C55.0916 11.6468 54.8645 12.5657 54.8645 13.5797C54.8645 14.5936 55.0916 15.5125 55.5457 16.3046C55.9998 17.0968 56.6161 17.7305 57.4271 18.1741C58.238 18.6177 59.1138 18.8395 60.1193 18.8395C61.0924 18.8395 62.0007 18.6177 62.8116 18.1741Z" fill="#091F2C"/>
<path d="M41.5003 13.2627C43.2843 13.7697 44.6467 14.5619 45.782 15.354V18.1423C44.8737 18.6176 43.8682 18.8394 42.7653 18.8394C41.6949 18.8394 40.7542 18.6176 39.9433 18.174C39.1324 17.7304 38.4836 17.0967 37.9971 16.3046C37.543 15.5124 37.3159 14.5935 37.3159 13.5796C37.3159 12.534 37.543 11.6468 37.9971 10.8229C38.4512 10.0308 39.1 9.39709 39.9433 8.95349C40.7867 8.50989 41.7273 8.28809 42.7978 8.28809C44.4845 8.28809 45.9442 8.9218 47.1443 10.1575L49.642 7.90786C48.831 6.98898 47.8255 6.29189 46.6253 5.78492C45.4252 5.30964 44.0952 5.05615 42.6031 5.05615C40.8515 5.05615 39.2621 5.40469 37.8349 6.13347C36.4401 6.86224 35.3373 7.87618 34.5263 9.17529C33.7479 10.4744 33.3262 11.9319 33.3262 13.5479C33.3262 15.1639 33.7154 16.6214 34.5263 17.9205C35.3048 19.2196 36.4077 20.2336 37.8025 20.9624C39.1973 21.6911 40.7542 22.0397 42.5058 22.0397C43.7384 22.0397 44.9386 21.8496 46.1388 21.501C47.3389 21.1525 48.3769 20.6455 49.2852 19.9801V18.6176V13.3261V13.2944L49.2527 13.2627H41.5003V13.2627Z" fill="#091F2C"/>
</g>
<path d="M204.024 5.2C206.168 5.2 207.848 5.712 209.064 6.736C210.28 7.76 210.888 9.168 210.888 10.96C210.888 12.752 210.28 14.16 209.064 15.184C207.848 16.192 206.168 16.696 204.024 16.696H199.512V22H197.736V5.2H204.024ZM203.976 15.136C205.64 15.136 206.912 14.776 207.792 14.056C208.672 13.32 209.112 12.288 209.112 10.96C209.112 9.6 208.672 8.56 207.792 7.84C206.912 7.104 205.64 6.736 203.976 6.736H199.512V15.136H203.976ZM224.42 17.512H215.06L213.044 22H211.196L218.876 5.2H220.628L228.308 22H226.436L224.42 17.512ZM223.772 16.072L219.74 7.048L215.708 16.072H223.772ZM242.56 22L238.72 16.6C238.288 16.648 237.84 16.672 237.376 16.672H232.864V22H231.088V5.2H237.376C239.52 5.2 241.2 5.712 242.416 6.736C243.632 7.76 244.24 9.168 244.24 10.96C244.24 12.272 243.904 13.384 243.232 14.296C242.576 15.192 241.632 15.84 240.4 16.24L244.504 22H242.56ZM237.328 15.16C238.992 15.16 240.264 14.792 241.144 14.056C242.024 13.32 242.464 12.288 242.464 10.96C242.464 9.6 242.024 8.56 241.144 7.84C240.264 7.104 238.992 6.736 237.328 6.736H232.864V15.16H237.328ZM251.461 6.736H245.557V5.2H259.141V6.736H253.237V22H251.461V6.736ZM276.018 5.2V22H274.554L263.754 8.368V22H261.978V5.2H263.442L274.266 18.832V5.2H276.018ZM293.382 20.464V22H281.502V5.2H293.022V6.736H283.278V12.712H291.966V14.224H283.278V20.464H293.382ZM309.028 22L305.188 16.6C304.756 16.648 304.308 16.672 303.844 16.672H299.332V22H297.556V5.2H303.844C305.988 5.2 307.668 5.712 308.884 6.736C310.1 7.76 310.708 9.168 310.708 10.96C310.708 12.272 310.372 13.384 309.7 14.296C309.044 15.192 308.1 15.84 306.868 16.24L310.972 22H309.028ZM303.796 15.16C305.46 15.16 306.732 14.792 307.612 14.056C308.492 13.32 308.932 12.288 308.932 10.96C308.932 9.6 308.492 8.56 307.612 7.84C306.732 7.104 305.46 6.736 303.796 6.736H299.332V15.16H303.796ZM319.532 22.144C318.284 22.144 317.084 21.944 315.932 21.544C314.796 21.144 313.916 20.616 313.292 19.96L313.988 18.592C314.596 19.2 315.404 19.696 316.412 20.08C317.42 20.448 318.46 20.632 319.532 20.632C321.036 20.632 322.164 20.36 322.916 19.816C323.668 19.256 324.044 18.536 324.044 17.656C324.044 16.984 323.836 16.448 323.42 16.048C323.02 15.648 322.524 15.344 321.932 15.136C321.34 14.912 320.516 14.672 319.46 14.416C318.196 14.096 317.188 13.792 316.436 13.504C315.684 13.2 315.036 12.744 314.492 12.136C313.964 11.528 313.7 10.704 313.7 9.664C313.7 8.816 313.924 8.048 314.372 7.36C314.82 6.656 315.508 6.096 316.436 5.68C317.364 5.264 318.516 5.056 319.892 5.056C320.852 5.056 321.788 5.192 322.7 5.464C323.628 5.72 324.428 6.08 325.1 6.544L324.5 7.96C323.796 7.496 323.044 7.152 322.244 6.928C321.444 6.688 320.66 6.568 319.892 6.568C318.42 6.568 317.308 6.856 316.556 7.432C315.82 7.992 315.452 8.72 315.452 9.616C315.452 10.288 315.652 10.832 316.052 11.248C316.468 11.648 316.98 11.96 317.588 12.184C318.212 12.392 319.044 12.624 320.084 12.88C321.316 13.184 322.308 13.488 323.06 13.792C323.828 14.08 324.476 14.528 325.004 15.136C325.532 15.728 325.796 16.536 325.796 17.56C325.796 18.408 325.564 19.184 325.1 19.888C324.652 20.576 323.956 21.128 323.012 21.544C322.068 21.944 320.908 22.144 319.532 22.144Z" fill="#091F2C"/>
<defs>
<linearGradient id="paint0_linear_481_3858" x1="13.5838" y1="3.07313" x2="28.1969" y2="15.6257" gradientUnits="userSpaceOnUse">
<stop offset="0.000340545" stop-color="#08804A"/>
<stop offset="0.264" stop-color="#0A9648"/>
<stop offset="0.5435" stop-color="#0BA547"/>
<stop offset="0.7622" stop-color="#0BAB47"/>
</linearGradient>
<linearGradient id="paint1_linear_481_3858" x1="21.9473" y1="13.174" x2="12.9756" y2="29.0818" gradientUnits="userSpaceOnUse">
<stop offset="0.000340545" stop-color="#08804A"/>
<stop offset="0.264" stop-color="#0A9648"/>
<stop offset="0.5435" stop-color="#0BA547"/>
<stop offset="0.7622" stop-color="#0BAB47"/>
</linearGradient>
<linearGradient id="paint2_linear_481_3858" x1="6.86431" y1="26.0413" x2="5.31083" y2="7.86396" gradientUnits="userSpaceOnUse">
<stop offset="0.000340545" stop-color="#08804A"/>
<stop offset="0.264" stop-color="#0A9648"/>
<stop offset="0.5435" stop-color="#0BA547"/>
<stop offset="0.7622" stop-color="#0BAB47"/>
</linearGradient>
<linearGradient id="paint3_linear_481_3858" x1="5.4388" y1="14.3402" x2="11.0692" y2="-1.49588" gradientUnits="userSpaceOnUse">
<stop offset="0.000340545" stop-color="#08804A"/>
<stop offset="0.229" stop-color="#0A9648"/>
<stop offset="0.4714" stop-color="#0BA547"/>
<stop offset="0.6611" stop-color="#0BAB47"/>
<stop offset="0.7689" stop-color="#12B24C"/>
<stop offset="0.93" stop-color="#26C759"/>
<stop offset="0.9639" stop-color="#2BCC5C"/>
</linearGradient>
<clipPath id="clip0_481_3858">
<rect width="193" height="25" fill="white" transform="translate(0 1)"/>
</clipPath>
</defs>
</svg>
