<svg width="19" height="21" viewBox="0 0 19 21" fill="none" xmlns="http://www.w3.org/2000/svg">
<path d="M15.2354 11.3687C15.2256 9.70361 15.98 8.44873 17.5034 7.52344C16.6514 6.30273 15.3623 5.63135 13.6631 5.50195C12.0542 5.375 10.2939 6.43945 9.64941 6.43945C8.96826 6.43945 7.41065 5.5459 6.18506 5.5459C3.65576 5.58496 0.967773 7.5625 0.967773 11.5859C0.967773 12.7749 1.18506 14.0029 1.61963 15.2676C2.20068 16.9326 4.29541 21.0122 6.48047 20.9463C7.62305 20.9194 8.43115 20.1357 9.91797 20.1357C11.3608 20.1357 12.1079 20.9463 13.3823 20.9463C15.5869 20.9146 17.4814 17.2061 18.0332 15.5361C15.0767 14.1421 15.2354 11.4541 15.2354 11.3687ZM12.6694 3.92236C13.9072 2.45264 13.7949 1.11475 13.7583 0.633789C12.6646 0.697266 11.3999 1.37842 10.6797 2.21582C9.88623 3.11426 9.41992 4.2251 9.52002 5.47754C10.7017 5.56787 11.7808 4.95996 12.6694 3.92236Z" fill="#091F2C"/>
</svg>
