<svg width="21" height="21" viewBox="0 0 21 21" fill="none" xmlns="http://www.w3.org/2000/svg">
<path d="M3.90728 2.43437C7.99894 -0.918751 14.0458 -0.685417 17.8656 3.13437C21.9333 7.20208 21.9333 13.7979 17.8656 17.8656C13.7979 21.9333 7.20207 21.9333 3.13436 17.8656C1.88606 16.619 0.975063 15.0756 0.486921 13.3803C-0.00122005 11.685 -0.0504915 9.89351 0.343734 8.17396L0.423942 7.84792L2.43853 8.37917C1.93909 10.2774 2.12571 12.2909 2.96548 14.065C3.80526 15.8391 5.24429 17.2598 7.02898 18.0767C8.81366 18.8937 10.8294 19.0545 12.7211 18.5308C14.6127 18.0071 16.2588 16.8325 17.3692 15.214C18.4796 13.5955 18.9831 11.637 18.7909 9.6836C18.5987 7.73024 17.7231 5.90741 16.3186 4.53636C14.914 3.1653 13.0706 2.33402 11.1132 2.18903C9.15576 2.04403 7.20997 2.59461 5.61873 3.74375L5.38853 3.91667L6.4479 4.97604L1.6604 6.08021L2.76457 1.29271L3.90623 2.43437H3.90728ZM11.5417 4.25V6.33333H14.1458V8.41667H8.41665C8.2865 8.41643 8.16097 8.46493 8.06479 8.55261C7.96861 8.6403 7.90875 8.76082 7.89699 8.89044C7.88523 9.02006 7.92243 9.14938 8.00125 9.25295C8.08008 9.35651 8.19483 9.42681 8.3229 9.45L8.41665 9.45833H12.5833C13.274 9.45833 13.9364 9.7327 14.4247 10.2211C14.9131 10.7095 15.1875 11.3718 15.1875 12.0625C15.1875 12.7532 14.9131 13.4155 14.4247 13.9039C13.9364 14.3923 13.274 14.6667 12.5833 14.6667H11.5417V16.75H9.45832V14.6667H6.85415V12.5833H12.5833C12.7135 12.5836 12.839 12.5351 12.9352 12.4474C13.0314 12.3597 13.0912 12.2392 13.103 12.1096C13.1147 11.9799 13.0775 11.8506 12.9987 11.747C12.9199 11.6435 12.8051 11.5732 12.6771 11.55L12.5833 11.5417H8.41665C7.72598 11.5417 7.0636 11.2673 6.57523 10.7789C6.08685 10.2905 5.81248 9.62817 5.81248 8.9375C5.81248 8.24683 6.08685 7.58445 6.57523 7.09608C7.0636 6.6077 7.72598 6.33333 8.41665 6.33333H9.45832V4.25H11.5417Z" fill="white"/>
</svg>
