<svg width="25" height="23" viewBox="0 0 25 23" fill="none" xmlns="http://www.w3.org/2000/svg">
<path d="M2.08332 9.05625L5.01353 11.9958L11.6094 5.38125L8.67811 2.44062L2.08228 9.05521L2.08332 9.05625ZM6.70936 17.5229L8.90728 15.3177C9.0034 15.2211 9.11767 15.1444 9.24352 15.0921C9.36936 15.0398 9.50432 15.0128 9.64061 15.0128C9.7769 15.0128 9.91185 15.0398 10.0377 15.0921C10.1636 15.1444 10.2778 15.2211 10.3739 15.3177C10.5683 15.5129 10.6774 15.7772 10.6774 16.0526C10.6774 16.328 10.5683 16.5923 10.3739 16.7875L8.17602 18.9927C8.37035 19.1879 8.47945 19.4522 8.47945 19.7276C8.47945 20.0031 8.37035 20.2673 8.17602 20.4625L6.70832 21.9323C6.61222 22.0288 6.49801 22.1053 6.37226 22.1575C6.2465 22.2098 6.11167 22.2367 5.9755 22.2367C5.83933 22.2367 5.70451 22.2098 5.57875 22.1575C5.453 22.1053 5.33879 22.0288 5.24269 21.9323L3.77707 20.4635C3.58242 20.2683 3.47312 20.0038 3.47312 19.7281C3.47312 19.4524 3.58242 19.188 3.77707 18.9927L5.24269 17.5229C5.33879 17.4264 5.453 17.3499 5.57875 17.2977C5.70451 17.2454 5.83933 17.2186 5.9755 17.2186C6.11167 17.2186 6.2465 17.2454 6.37226 17.2977C6.49801 17.3499 6.61222 17.4264 6.70832 17.5229H6.70936ZM16.2364 10.9083L22.8312 4.29375L21.3656 2.82292L14.7708 9.4375C13.9614 8.625 13.8208 7.45104 14.4562 6.8125L20.2146 1.0375C20.85 0.399999 22.0219 0.540624 22.8312 1.35312L24.2969 2.82187C25.1073 3.63437 25.2479 4.81042 24.6114 5.44687L18.8531 11.2229C18.2177 11.8604 17.0458 11.7198 16.2364 10.9073V10.9083ZM15.2739 14.9354L10.1437 9.79167L9.4104 10.5271L14.5406 15.6719L15.2739 14.9365V14.9354ZM16.7396 16.4062L16.0062 17.1406L17.8385 18.9781C18.0406 19.1812 18.3698 19.1812 18.5708 18.9781C18.6678 18.8805 18.7223 18.7485 18.7223 18.6109C18.7223 18.4733 18.6678 18.3413 18.5708 18.2437L16.7396 16.4062ZM2.14582 6.05208C2.00706 5.76109 1.9617 5.43431 2.01597 5.11653C2.07024 4.79875 2.22148 4.50553 2.44894 4.27708L3.91457 2.80833C4.14154 2.5803 4.43377 2.42844 4.75084 2.37376C5.0679 2.31908 5.39411 2.36429 5.68436 2.50312L7.21248 0.970832C7.40469 0.777892 7.63309 0.624799 7.8846 0.520339C8.13611 0.415879 8.40577 0.362106 8.67811 0.362106C8.95045 0.362106 9.22011 0.415879 9.47161 0.520339C9.72312 0.624799 9.95153 0.777892 10.1437 0.970832L13.075 3.91146C13.4636 4.30188 13.6818 4.83035 13.6818 5.38125C13.6818 5.93215 13.4636 6.46062 13.075 6.85104L11.6094 8.32083L20.0364 16.7729C20.5224 17.261 20.7953 17.9217 20.7953 18.6104C20.7953 19.2992 20.5224 19.9599 20.0364 20.4479C19.7962 20.6891 19.5108 20.8804 19.1964 21.011C18.8821 21.1416 18.545 21.2088 18.2047 21.2088C17.8643 21.2088 17.5273 21.1416 17.2129 21.011C16.8986 20.8804 16.6131 20.6891 16.3729 20.4479L7.94582 11.9958L6.47915 13.4656C5.66978 14.2781 4.35728 14.2781 3.5479 13.4656L0.61665 10.526C0.227676 10.1356 0.00927734 9.60688 0.00927734 9.05573C0.00927734 8.50458 0.227676 7.97588 0.61665 7.58542L2.14478 6.05417L2.14582 6.05208Z" fill="white"/>
</svg>
