<svg width="21" height="23" viewBox="0 0 21 23" fill="none" xmlns="http://www.w3.org/2000/svg">
<path d="M8.51641 9.5461L8.51649 9.54618L9.8438 10.8746L13.1396 7.57757L8.51641 9.5461ZM8.51641 9.5461C8.43218 9.46187 8.33219 9.39505 8.22213 9.34947C8.11208 9.30388 7.99413 9.28042 7.87501 9.28042C7.75589 9.28042 7.63793 9.30388 7.52788 9.34947C7.41783 9.39505 7.31784 9.46187 7.23361 9.5461C7.14938 9.63033 7.08256 9.73032 7.03698 9.84037C6.99139 9.95043 6.96793 10.0684 6.96793 10.1875C6.96793 10.3066 6.99139 10.4246 7.03698 10.5346C7.08256 10.6447 7.14938 10.7447 7.23361 10.8289L9.20213 12.7974L8.51641 9.5461ZM14.4227 7.57735C14.507 7.66148 14.5738 7.76141 14.6195 7.87141C14.6652 7.98151 14.6887 8.09955 14.6887 8.21875C14.6887 8.33795 14.6652 8.45598 14.6195 8.56609C14.5738 8.67609 14.507 8.77602 14.4227 8.86015V7.57735ZM14.4227 7.57735C14.3385 7.49306 14.2386 7.42618 14.1286 7.38053C14.0185 7.33484 13.9005 7.31133 13.7813 7.31133C13.6621 7.31133 13.544 7.33484 13.4339 7.38053C13.3239 7.42618 13.224 7.49307 13.1398 7.57738L14.4227 7.57735ZM3.35961 4.44821L3.36054 4.44791C4.58854 4.04483 5.82608 3.67142 7.07208 3.32802C8.53468 2.93142 9.84343 2.65044 10.5 2.65044C11.1579 2.65044 12.4653 2.93272 13.9284 3.32946C15.3493 3.71508 16.7873 4.16908 17.6397 4.44798L17.6407 4.44831C17.7086 4.47021 17.769 4.51078 17.8149 4.56538C17.8607 4.61977 17.8902 4.6859 17.9003 4.75625C18.6173 10.1387 16.9609 14.0552 14.9923 16.6296L14.9915 16.6306C14.1583 17.7317 13.1649 18.7018 12.0444 19.5085C11.6001 19.8204 11.21 20.0447 10.9106 20.1857L10.9099 20.1861C10.7604 20.2571 10.6436 20.3018 10.5588 20.3275L10.5588 20.3273L10.5505 20.3301C10.5335 20.3359 10.5163 20.3409 10.4989 20.345C10.4824 20.3412 10.4662 20.3364 10.4502 20.3308L10.4503 20.3307L10.4407 20.3277C10.3567 20.302 10.2396 20.257 10.0901 20.1861L10.089 20.1855C9.78841 20.0446 9.39979 19.8217 8.95584 19.5087C7.83519 18.7019 6.84171 17.7318 6.00849 16.6306L6.00776 16.6297C4.03916 14.0539 2.38274 10.1388 3.09972 4.75646C3.10988 4.68609 3.13952 4.61995 3.18529 4.56553C3.23126 4.51087 3.29166 4.47022 3.35961 4.44821ZM6.59142 1.49376L6.59067 1.49396C5.31473 1.8451 4.04744 2.227 2.78993 2.63932L2.78942 2.63948C2.38368 2.77348 2.02397 3.0192 1.75161 3.34844C1.47934 3.67756 1.30541 4.07677 1.24976 4.50026C0.4578 10.4492 2.2963 14.8693 4.53404 17.7967C5.48301 19.0488 6.61447 20.1514 7.89063 21.0678C8.33648 21.3881 8.80887 21.6699 9.30265 21.9099L9.30565 21.9113C9.67883 22.0866 10.1155 22.25 10.5 22.25C10.8845 22.25 11.3223 22.0867 11.6947 21.9111L11.6947 21.9111L11.6974 21.9098C12.1911 21.6698 12.6635 21.3881 13.1094 21.0678C14.3856 20.1514 15.5171 19.0487 16.4661 17.7965C18.7038 14.8692 20.5422 10.4491 19.7503 4.50026C19.6946 4.07677 19.5207 3.67756 19.2484 3.34844C18.976 3.0192 18.6163 2.77348 18.2106 2.63948L18.2098 2.63924C17.3446 2.35653 15.8713 1.88909 14.4084 1.49371C12.9901 1.10808 11.4446 0.75 10.5 0.75C9.55541 0.75 8.00981 1.10811 6.59142 1.49376ZM10.4854 12.7974L14.4224 8.86037L10.4854 12.7974ZM10.1911 12.9945C10.3011 12.9488 10.401 12.8819 10.4852 12.7977H9.20236C9.28649 12.8819 9.38642 12.9488 9.49642 12.9945C9.60652 13.0402 9.72456 13.0637 9.84376 13.0637C9.96296 13.0637 10.081 13.0402 10.1911 12.9945Z" fill="white" stroke="white" stroke-width="0.5"/>
</svg>
