<svg width="19" height="21" viewBox="0 0 19 21" fill="none" xmlns="http://www.w3.org/2000/svg">
<path fill-rule="evenodd" clip-rule="evenodd" d="M5.56601 0.83874C6.10305 0.301704 6.83142 0 7.59091 0H12.063C12.8112 9.31809e-05 13.5298 0.293033 14.0648 0.816136L17.229 3.91066C17.5017 4.17728 17.7186 4.49589 17.8666 4.84742C18.0146 5.19903 18.0909 5.57667 18.0909 5.95816V14.3182C18.0909 15.0777 17.7892 15.806 17.2522 16.3431C16.7151 16.8801 15.9868 17.1818 15.2273 17.1818H14.2727V18.1364C14.2727 18.8959 13.971 19.6242 13.434 20.1613C12.8969 20.6983 12.1686 21 11.4091 21H3.77272C3.01324 21 2.28486 20.6983 1.74783 20.1613C1.21079 19.6242 0.909088 18.8958 0.909088 18.1364V7.63636C0.909088 6.87688 1.21079 6.1485 1.74783 5.61147C2.28486 5.07443 3.01324 4.77273 3.77272 4.77273H4.72727V2.86364C4.72727 2.10415 5.02898 1.37578 5.56601 0.83874ZM4.72727 6.68182H3.77272C3.51956 6.68182 3.27677 6.78239 3.09776 6.9614C2.91875 7.14041 2.81818 7.3832 2.81818 7.63636V18.1364C2.81818 18.3895 2.91875 18.6323 3.09776 18.8113C3.27677 18.9903 3.51956 19.0909 3.77272 19.0909H11.4091C11.6622 19.0909 11.905 18.9903 12.0841 18.8113C12.2631 18.6323 12.3636 18.3895 12.3636 18.1364V17.1818H7.59091C6.83142 17.1818 6.10305 16.8801 5.56601 16.3431C5.02898 15.806 4.72727 15.0777 4.72727 14.3182V6.68182ZM7.59091 15.2727C7.33775 15.2727 7.09495 15.1722 6.91594 14.9931C6.73693 14.8141 6.63636 14.5713 6.63636 14.3182V2.86364C6.63636 2.61048 6.73693 2.36768 6.91594 2.18867C7.09495 2.00966 7.33775 1.90909 7.59091 1.90909H12.0628C12.3122 1.90915 12.5517 2.00677 12.73 2.18107L15.8943 5.27571C15.9853 5.3646 16.0577 5.47094 16.107 5.58814C16.1564 5.70531 16.1818 5.83115 16.1818 5.95827V14.3182C16.1818 14.5713 16.0812 14.8141 15.9022 14.9931C15.7232 15.1722 15.4804 15.2727 15.2273 15.2727H7.59091Z" fill="white"/>
</svg>
