<svg width="16" height="16" viewBox="0 0 16 16" fill="none" xmlns="http://www.w3.org/2000/svg">
<path d="M6.30801 5.1876C6.30778 4.43699 6.50055 3.69893 6.86779 3.04429C7.23503 2.38965 7.76442 1.84042 8.40511 1.44936C9.0458 1.05829 9.77628 0.838517 10.5264 0.811141C11.2765 0.783765 12.0211 0.949707 12.6886 1.29303C12.7684 1.33427 12.8374 1.39377 12.89 1.4667C12.9425 1.53964 12.9771 1.62394 12.9909 1.71276C13.0047 1.80158 12.9973 1.89239 12.9694 1.97783C12.9415 2.06327 12.8938 2.1409 12.8302 2.20443L10.7249 4.31123L11.532 5.11831L13.6479 3.00314C13.7111 2.94 13.7883 2.89257 13.8732 2.86467C13.9581 2.83677 14.0483 2.82918 14.1367 2.84251C14.225 2.85584 14.309 2.88972 14.3819 2.94142C14.4548 2.99312 14.5145 3.06121 14.5563 3.14019C14.9508 3.88467 15.1222 4.7272 15.0498 5.56666C14.9774 6.40612 14.6643 7.20685 14.148 7.87277C13.6318 8.53868 12.9344 9.04148 12.1394 9.32083C11.3445 9.60018 10.4859 9.64422 9.66655 9.44765L4.05882 15.248C3.63072 15.691 3.04419 15.9457 2.42826 15.9562C1.81233 15.9667 1.21746 15.7321 0.774516 15.304C0.331568 14.8759 0.0768265 14.2893 0.0663314 13.6734C0.0611348 13.3684 0.116059 13.0654 0.227967 12.7817C0.339875 12.4979 0.506576 12.239 0.718552 12.0197L6.41003 6.13098C6.3421 5.82138 6.30789 5.50533 6.30801 5.18836V5.1876ZM10.6861 1.95164C10.1804 1.95149 9.68172 2.06984 9.23005 2.29721C8.77838 2.52458 8.38628 2.85464 8.08521 3.26092C7.78413 3.66719 7.58245 4.13837 7.49636 4.63665C7.41026 5.13494 7.44215 5.64648 7.58945 6.13022C7.61918 6.22768 7.62229 6.33133 7.59846 6.43041C7.57463 6.52948 7.52472 6.62037 7.45392 6.69366L1.53934 12.8123C1.43161 12.9238 1.34688 13.0554 1.29001 13.1996C1.23314 13.3439 1.20523 13.4979 1.20788 13.6529C1.21053 13.8079 1.24369 13.9609 1.30546 14.1031C1.36723 14.2453 1.45641 14.3739 1.5679 14.4817C1.67938 14.5894 1.811 14.6741 1.95523 14.731C2.09946 14.7879 2.25348 14.8158 2.4085 14.8131C2.56351 14.8105 2.71649 14.7773 2.85869 14.7155C3.00089 14.6538 3.12953 14.5646 3.23727 14.4531L9.08179 8.40757C9.1564 8.33011 9.25137 8.27529 9.35577 8.24943C9.46016 8.22357 9.56974 8.22771 9.67188 8.26138C10.2195 8.44244 10.8056 8.47383 11.3695 8.35229C11.9333 8.23076 12.4544 7.96073 12.8789 7.57015C13.3033 7.17957 13.6156 6.68264 13.7835 6.13081C13.9514 5.57898 13.9687 4.99231 13.8337 4.43153L11.9363 6.32971C11.8833 6.38277 11.8203 6.42487 11.751 6.45359C11.6817 6.48231 11.6074 6.49709 11.5324 6.49709C11.4573 6.49709 11.3831 6.48231 11.3138 6.45359C11.2444 6.42487 11.1815 6.38277 11.1284 6.32971L9.51351 4.71401C9.40657 4.60694 9.3465 4.4618 9.3465 4.31047C9.3465 4.15914 9.40657 4.014 9.51351 3.90692L11.3911 2.02855C11.1596 1.97726 10.9232 1.95148 10.6861 1.95164Z" fill="white"/>
</svg>
