<svg width="21" height="18" viewBox="0 0 21 18" fill="none" xmlns="http://www.w3.org/2000/svg">
<path d="M18.8333 0.54895H2.16666C1.02083 0.54895 0.0937449 1.48645 0.0937449 2.63228L0.0833282 15.1323C0.0833282 16.2781 1.02083 17.2156 2.16666 17.2156H18.8333C19.9792 17.2156 20.9167 16.2781 20.9167 15.1323V2.63228C20.9167 1.48645 19.9792 0.54895 18.8333 0.54895ZM18.4167 4.97603L11.0521 9.5802C10.7187 9.78853 10.2812 9.78853 9.94791 9.5802L2.58333 4.97603C2.47888 4.9174 2.38741 4.83818 2.31446 4.74317C2.24151 4.64817 2.1886 4.53934 2.15893 4.42329C2.12925 4.30725 2.12344 4.18638 2.14182 4.06802C2.16021 3.94966 2.20243 3.83626 2.26591 3.73468C2.3294 3.6331 2.41283 3.54547 2.51117 3.47707C2.6095 3.40867 2.72069 3.36094 2.83801 3.33676C2.95533 3.31258 3.07633 3.31246 3.1937 3.3364C3.31106 3.36033 3.42235 3.40784 3.52083 3.47603L10.5 7.84062L17.4792 3.47603C17.5776 3.40784 17.6889 3.36033 17.8063 3.3364C17.9237 3.31246 18.0447 3.31258 18.162 3.33676C18.2793 3.36094 18.3905 3.40867 18.4888 3.47707C18.5872 3.54547 18.6706 3.6331 18.7341 3.73468C18.7976 3.83626 18.8398 3.94966 18.8582 4.06802C18.8766 4.18638 18.8707 4.30725 18.8411 4.42329C18.8114 4.53934 18.7585 4.64817 18.6855 4.74317C18.6126 4.83818 18.5211 4.9174 18.4167 4.97603Z" fill="white"/>
</svg>
