<svg width="26" height="25" viewBox="0 0 26 25" fill="none" xmlns="http://www.w3.org/2000/svg">
<path fill-rule="evenodd" clip-rule="evenodd" d="M0.5 8.30487C0.5 4.0344 3.96224 0.572266 8.23338 0.572266C12.504 0.572266 15.966 4.0344 15.966 8.30487C15.966 12.5761 12.504 16.0382 8.23338 16.0382C3.96224 16.0382 0.5 12.5761 0.5 8.30487ZM7.1029 2.63303H9.18992L6.39147 8.75175H8.76309L9.04752 5.24179L10.518 4.8149V8.79918H11.5615V10.4119H10.518V12.9732L8.6207 13.3526V10.5067H4.25699V8.98892L7.1029 2.63303Z" fill="white"/>
<path d="M17.7671 8.98438C13.4959 8.98438 10.0337 12.4465 10.0337 16.717C10.0337 20.9882 13.4959 24.4503 17.7671 24.4503C22.0377 24.4503 25.4997 20.9882 25.4997 16.717C25.4997 12.4465 22.0377 8.98438 17.7671 8.98438ZM20.8374 18.1736C20.4403 23.0333 14.4905 21.7442 14.4905 21.7442V20.2561C14.5683 20.2636 16.0675 20.7302 17.2669 20.2561C17.477 20.1739 18.5537 19.7163 18.7549 18.6694C18.8544 18.1512 18.7437 17.5418 18.3796 17.1537C17.4307 16.1449 15.0856 17.0834 15.0856 17.0834L15.3832 11.4303H20.4403L20.2915 13.0664H17.2176L17.0193 15.1489C21.2839 14.9508 20.8374 18.1736 20.8374 18.1736Z" fill="white"/>
</svg>
