<svg width="68" height="67" viewBox="0 0 68 67" fill="none" xmlns="http://www.w3.org/2000/svg">
<path d="M34.0046 19.96C29.434 19.96 25.7166 15.4827 25.7166 9.98C25.7166 4.47733 29.434 0 34.0046 0C38.574 0 42.294 4.47733 42.294 9.98C42.294 15.4827 38.574 19.96 34.0046 19.96ZM34.0046 2.70667C30.9258 2.70667 28.422 5.96933 28.422 9.98C28.422 13.9907 30.9258 17.2533 34.0046 17.2533C37.0821 17.2533 39.5873 13.9907 39.5873 9.98C39.5873 5.96933 37.0821 2.70667 34.0046 2.70667Z" fill="#091F2C"/>
<path d="M8.194 60.4427C5.04066 60.4427 2.19406 59.02 0.821928 56.42C-0.237938 54.412 -0.273975 52.0387 0.720691 49.7347C1.67242 47.5334 3.46686 45.6507 5.77766 44.4307C10.6417 41.8627 16.3389 43.06 18.4723 47.1014C20.6055 51.1427 18.3833 56.5214 13.5166 59.0907C11.7819 60.0067 9.94066 60.4427 8.194 60.4427ZM12.8844 57.8934H12.8978H12.8844ZM11.1338 45.7707C9.81124 45.7707 8.38988 46.112 7.04068 46.824C5.27534 47.756 3.91247 49.172 3.20474 50.808C2.54194 52.344 2.54462 53.888 3.21809 55.156C4.65435 57.8774 8.70605 58.568 12.2555 56.6974C15.8021 54.8254 17.5195 51.0867 16.082 48.364C15.1914 46.6787 13.2955 45.7707 11.1367 45.7707H11.1338Z" fill="#091F2C"/>
<path d="M59.8633 60.5322C57.8965 60.5322 55.8099 59.9588 53.9073 58.7708C49.2393 55.8548 47.4111 50.3308 49.8314 46.4548C51.0338 44.5282 53.0687 43.3028 55.5606 43.0055C57.9352 42.7188 60.4701 43.3255 62.6872 44.7095H62.6859C64.9032 46.0922 66.5579 48.1015 67.3474 50.3655C68.1724 52.7348 67.9644 55.1002 66.7634 57.0255C65.3284 59.3228 62.7221 60.5322 59.8633 60.5322ZM56.7285 45.6428C56.4435 45.6428 56.1604 45.6588 55.8806 45.6935C54.2207 45.8922 52.8874 46.6708 52.1286 47.8882C50.4981 50.4975 51.9392 54.3508 55.3418 56.4748C58.7393 58.5988 62.838 58.2042 64.4659 55.5922C65.2273 54.3762 65.3418 52.8362 64.7914 51.2575C64.2031 49.5735 62.9486 48.0628 61.2539 47.0055C59.8285 46.1148 58.2501 45.6428 56.7299 45.6428L56.7285 45.6428Z" fill="#091F2C"/>
<path d="M64.8475 48.3371L62.2274 47.6558L62.5688 46.3451C63.934 41.1024 63.6834 36.9544 61.8234 34.0171C59.8049 30.8278 56.4793 30.1651 56.4461 30.1584L55.1235 29.9091L55.6034 27.2598L56.9289 27.4958C57.1102 27.5291 61.4009 28.3384 64.0767 32.5171C66.3833 36.1184 66.7567 40.9998 65.1873 47.0278L64.8475 48.3371Z" fill="#091F2C"/>
<path d="M13.9408 23.7923L13.4727 22.5336C13.4207 22.3936 12.2152 19.0483 14.114 15.1309C15.9862 11.2683 20.1113 8.28561 26.3728 6.26428L27.6606 5.84961L28.4913 8.42428L27.2032 8.84028C21.7087 10.6136 18.1326 13.1069 16.5779 16.2509C15.1619 19.1163 15.978 21.5003 16.0141 21.6016L16.462 22.8669L13.9408 23.7923Z" fill="#091F2C"/>
<path d="M22.3966 66.7184C18.8234 66.7184 14.9792 64.8025 10.95 61.0051L9.9646 60.0758L11.8207 58.1064L12.8061 59.0344C16.7179 62.7211 20.2807 64.3704 23.3634 63.9464C26.7006 63.4864 28.446 60.6424 28.4633 60.6131L29.1567 59.4598L31.4753 60.8291L30.794 61.9904C30.698 62.1518 28.4125 65.9598 23.7807 66.6211C23.3247 66.6864 22.862 66.7184 22.3966 66.7184Z" fill="#091F2C"/>
<path d="M29.9338 21.5694C29.687 21.4094 29.3993 21.3107 29.0858 21.3387C17.1483 22.4507 9.02724 26.156 4.94844 32.3534C0.382974 39.2894 2.69786 46.6707 2.79772 46.9814C2.98466 47.552 3.51517 47.9161 4.08451 47.9161C4.22197 47.9161 4.36176 47.8947 4.49922 47.8507C5.20975 47.6227 5.60043 46.8601 5.3739 46.1494C5.3539 46.0854 3.36833 39.6414 7.23099 33.8094C10.243 29.2601 15.9218 26.2227 24.1285 24.7414C25.787 23.2881 27.7577 22.1921 29.9338 21.5694Z" fill="#091F2C"/>
<path d="M43.6916 24.4189C45.0382 25.5269 46.1782 26.8709 47.078 28.3749C47.0366 26.3602 46.6089 22.5936 44.1834 20.0642L43.2476 19.0869L41.2954 20.9602L42.2313 21.9362C42.9086 22.6442 43.37 23.5189 43.6916 24.4189Z" fill="#091F2C"/>
<path d="M52.6473 14.2185C48.854 7.6252 41.6727 6.71186 41.3687 6.67586C40.6236 6.5812 39.9582 7.11853 39.87 7.85853C39.7806 8.59853 40.3088 9.27186 41.05 9.36386C41.1113 9.37053 47.226 10.1839 50.3195 15.5985C53.126 20.5132 52.7408 27.6239 49.1981 36.7479C49.1381 38.1692 48.8915 39.5425 48.4647 40.8385C48.5754 40.9425 48.6967 41.0399 48.8462 41.1039C49.0206 41.1812 49.2033 41.2159 49.3833 41.2159C49.9061 41.2159 50.4048 40.9119 50.6261 40.4025C55.506 29.1799 56.1848 20.3692 52.6473 14.2185V14.2185Z" fill="#091F2C"/>
<path d="M43.2952 52.2106C41.11 52.6479 38.7926 51.7039 37.3125 50.8999C36.2725 51.1266 35.1965 51.2532 34.0885 51.2532C33.7457 51.2532 33.4112 51.2239 33.0752 51.2012L33.0391 51.2479L34.1097 52.0719C34.2868 52.2079 38.003 55.0252 42.1589 55.0252C42.7097 55.0252 43.2683 54.9759 43.8268 54.8639L45.1536 54.5986L44.623 51.9439L43.2949 52.2106H43.2952Z" fill="#091F2C"/>
<path d="M57.4716 58.0962C56.9061 57.6068 56.0514 57.6682 55.5634 58.2348C55.5207 58.2828 51.3036 63.0535 44.7623 62.6575C38.7088 62.2975 32.5914 57.7748 26.5663 49.2335C25.718 48.7455 24.9234 48.1788 24.1887 47.5415C24.0767 47.5788 23.9622 47.6095 23.8583 47.6788C23.2395 48.0975 23.0753 48.9388 23.4953 49.5575C30.2847 59.6135 37.3862 64.9295 44.6021 65.3588C44.9181 65.3788 45.2314 65.3868 45.5383 65.3868C52.8674 65.3868 57.4113 60.2322 57.6103 60.0042C58.0994 59.4388 58.0366 58.5842 57.4716 58.0962Z" fill="#091F2C"/>
<path d="M19.9207 30.828V30.8267C18.1929 31.8107 15.0129 34.0187 13.9474 37.4173L13.5435 38.708L16.1261 39.5173L16.5301 38.2253C16.9716 36.816 17.9781 35.6493 19.0181 34.7533C19.1421 33.3827 19.4569 32.0693 19.9207 30.828V30.828Z" fill="#091F2C"/>
<path fill-rule="evenodd" clip-rule="evenodd" d="M20.3005 36.1132C20.3005 28.4985 26.4741 22.3252 34.0899 22.3252C41.7049 22.3252 47.878 28.4985 47.878 36.1132C47.878 43.7292 41.7049 49.9025 34.0899 49.9025C26.4741 49.9025 20.3005 43.7292 20.3005 36.1132ZM32.0745 26H35.7959L30.806 36.9103H35.0348L35.542 30.6517L38.1641 29.8905V36.9949H40.0247V39.8704H38.1641V44.4375L34.7809 45.1141V40.0396H27V37.3332L32.0745 26Z" fill="#091F2C"/>
</svg>
