<svg width="25" height="25" viewBox="0 0 25 25" fill="none" xmlns="http://www.w3.org/2000/svg">
<path d="M7.8916 8.59375H9.80029C9.87305 7.27393 10.1196 6.08643 10.4941 5.15576C9.14111 5.80225 8.14941 7.06934 7.8916 8.59375ZM7.8916 10.1562C8.1499 11.6807 9.14111 12.9478 10.4941 13.5942C10.1191 12.6636 9.87305 11.4761 9.80029 10.1562H7.8916ZM12.5 13.9985C12.8755 13.6348 13.5142 12.3179 13.644 10.1562H11.3555C11.4858 12.3174 12.1245 13.6348 12.5 13.9985ZM11.356 8.59375H13.6445C13.5146 6.43262 12.876 5.11523 12.5005 4.75146C12.1245 5.11523 11.4858 6.43262 11.356 8.59375ZM14.5059 13.5942C15.8589 12.9478 16.8506 11.6807 17.1084 10.1562H15.1997C15.127 11.4761 14.8809 12.6636 14.5059 13.5942ZM21.875 0H4.6875C2.96143 0 1.5625 1.39893 1.5625 3.125V21.875C1.5625 23.6011 2.96143 25 4.6875 25H21.875C22.7378 25 23.4375 24.3003 23.4375 23.4375V1.5625C23.4375 0.699707 22.7378 0 21.875 0ZM17.9688 20.3125H7.03125C6.60156 20.3125 6.25 19.9609 6.25 19.5312C6.25 19.1016 6.60156 18.75 7.03125 18.75H17.9688C18.3984 18.75 18.75 19.1016 18.75 19.5312C18.75 19.9609 18.3984 20.3125 17.9688 20.3125ZM12.5 15.625C9.04834 15.625 6.25 12.8267 6.25 9.375C6.25 5.92334 9.04834 3.125 12.5 3.125C15.9517 3.125 18.75 5.92334 18.75 9.375C18.75 12.8267 15.9517 15.625 12.5 15.625ZM14.5059 5.15576C14.8809 6.08643 15.127 7.27393 15.1997 8.59375H17.1084C16.8506 7.06934 15.8589 5.80225 14.5059 5.15576Z" fill="black"/>
</svg>
