<?xml version="1.0" encoding="utf-8"?>
<!-- Generator: Adobe Illustrator 24.0.1, SVG Export Plug-In . SVG Version: 6.00 Build 0)  -->
<svg version="1.1" id="Layer_40" xmlns="http://www.w3.org/2000/svg" xmlns:xlink="http://www.w3.org/1999/xlink" x="0px" y="0px"
	 viewBox="0 0 13.3 12" style="enable-background:new 0 0 13.3 12;" xml:space="preserve">
<style type="text/css">
	.st0{fill:none;stroke:#003B4D;stroke-width:0.25;stroke-miterlimit:10;}
	.st1{fill:none;stroke:#003B4D;stroke-width:0.25;stroke-linecap:round;stroke-linejoin:round;}
	.st2{fill:none;stroke:#003B4D;stroke-width:0.25;stroke-linecap:round;stroke-miterlimit:10;}
</style>
<title>Icon_upload image</title>
<path class="st0" d="M7.7,9.9H2.3c-1.1,0-2-0.9-2-2V2.2c0-1.1,0.9-2,2-2H11c1.1,0,2,0.9,2,2v5.6c0,0.4-0.1,0.8-0.4,1.2"/>
<circle class="st0" cx="10.1" cy="9.3" r="2.5"/>
<polyline class="st1" points="9.2,9.2 10.2,8.2 11.2,9.2 "/>
<line class="st2" x1="10.2" y1="10.7" x2="10.2" y2="8.2"/>
<path class="st0" d="M0.3,7.9l4.1-4.6C4.5,3,4.9,3,5.2,3.2c0,0,0,0,0.1,0.1l2.6,2.7l1.9-1.8C10,4,10.4,4,10.6,4.2L13,6.1"/>
<circle class="st0" cx="7.8" cy="2.5" r="1.2"/>
</svg>
