<svg width="24" height="24" viewBox="0 0 24 24" fill="none" xmlns="http://www.w3.org/2000/svg">
<mask id="mask0_519_6110" style="mask-type:alpha" maskUnits="userSpaceOnUse" x="0" y="0" width="24" height="24">
<rect width="24" height="24" fill="#D9D9D9"/>
</mask>
<g mask="url(#mask0_519_6110)">
<path d="M19.1251 20.4L13.1501 14.425C12.6501 14.7916 12.1018 15.0791 11.5053 15.2875C10.9088 15.4958 10.274 15.6 9.60097 15.6C7.93372 15.6 6.51676 15.0166 5.3501 13.85C4.18343 12.6833 3.6001 11.2666 3.6001 9.59998C3.6001 7.93331 4.18343 6.51664 5.3501 5.34998C6.51676 4.18331 7.93343 3.59998 9.6001 3.59998C11.2668 3.59998 12.6834 4.18331 13.8501 5.34998C15.0168 6.51664 15.6001 7.9336 15.6001 9.60085C15.6001 10.2739 15.4959 10.9086 15.2876 11.5052C15.0793 12.1017 14.7918 12.65 14.4251 13.15L20.4001 19.125L19.1251 20.4ZM9.6001 13.8C10.7668 13.8 11.7584 13.3916 12.5751 12.575C13.3918 11.7583 13.8001 10.7666 13.8001 9.59998C13.8001 8.43331 13.3918 7.44164 12.5751 6.62498C11.7584 5.80831 10.7668 5.39998 9.6001 5.39998C8.43343 5.39998 7.44176 5.80831 6.6251 6.62498C5.80843 7.44164 5.4001 8.43331 5.4001 9.59998C5.4001 10.7666 5.80843 11.7583 6.6251 12.575C7.44176 13.3916 8.43343 13.8 9.6001 13.8Z" fill="#425E6E"/>
</g>
</svg>
