<svg width="12" height="8" viewBox="0 0 12 8" fill="none" xmlns="http://www.w3.org/2000/svg">
<path d="M1.17192 1.8039C1.14084 1.77282 1.13276 1.74849 1.12973 1.73099C1.12589 1.70881 1.12788 1.67922 1.14088 1.64784C1.15387 1.61646 1.17339 1.59412 1.1918 1.58115C1.20631 1.57092 1.22922 1.55944 1.27318 1.55944L10.568 1.55944C10.6122 1.55944 10.6351 1.571 10.6495 1.58122C10.6679 1.59422 10.6875 1.61665 10.7004 1.6482C10.7134 1.67975 10.7153 1.70944 10.7113 1.73161C10.7083 1.74904 10.7001 1.77338 10.6687 1.80445L5.99572 6.42629C5.93971 6.48169 5.84947 6.48144 5.79376 6.42574L1.17192 1.8039Z" stroke="#74788D" stroke-width="1.7136" stroke-linecap="round" stroke-linejoin="round"/>
</svg>
