<svg width="25" height="25" viewBox="0 0 25 25" fill="none" xmlns="http://www.w3.org/2000/svg">
<path d="M12.5 23.4375C9.59919 23.4375 6.8172 22.2852 4.76602 20.234C2.71484 18.1828 1.5625 15.4008 1.5625 12.5C1.5625 9.59919 2.71484 6.8172 4.76602 4.76602C6.8172 2.71484 9.59919 1.5625 12.5 1.5625C15.4008 1.5625 18.1828 2.71484 20.234 4.76602C22.2852 6.8172 23.4375 9.59919 23.4375 12.5C23.4375 15.4008 22.2852 18.1828 20.234 20.234C18.1828 22.2852 15.4008 23.4375 12.5 23.4375ZM12.5 25C15.8152 25 18.9946 23.683 21.3388 21.3388C23.683 18.9946 25 15.8152 25 12.5C25 9.18479 23.683 6.00537 21.3388 3.66117C18.9946 1.31696 15.8152 0 12.5 0C9.18479 0 6.00537 1.31696 3.66117 3.66117C1.31696 6.00537 0 9.18479 0 12.5C0 15.8152 1.31696 18.9946 3.66117 21.3388C6.00537 23.683 9.18479 25 12.5 25Z" fill="#48CC7F"/>
<path d="M17.1407 7.76564C17.1295 7.77642 17.1191 7.7879 17.1094 7.80001L11.6829 14.7141L8.41254 11.4422C8.19039 11.2352 7.89657 11.1225 7.59297 11.1279C7.28938 11.1332 6.99971 11.2562 6.78501 11.4709C6.5703 11.6856 6.44731 11.9753 6.44196 12.2789C6.4366 12.5825 6.54929 12.8763 6.75629 13.0984L10.8907 17.2344C11.002 17.3456 11.1347 17.4332 11.2806 17.492C11.4266 17.5508 11.5829 17.5796 11.7403 17.5767C11.8976 17.5737 12.0528 17.5392 12.1964 17.475C12.3401 17.4108 12.4694 17.3184 12.5766 17.2031L18.8141 9.40626C19.0265 9.18334 19.1426 8.88579 19.1374 8.57793C19.1321 8.27007 19.0059 7.97665 18.7861 7.7611C18.5662 7.54554 18.2703 7.42518 17.9624 7.42603C17.6545 7.42688 17.3593 7.54887 17.1407 7.76564Z" fill="#48CC7F"/>
</svg>
