<svg width="26" height="26" viewBox="0 0 26 26" fill="none" xmlns="http://www.w3.org/2000/svg">
<path d="M13.9269 12.2454C12.0728 11.6309 11.1769 11.2454 11.1769 10.2663C11.1769 9.20378 12.3332 8.81836 13.0623 8.81836C14.4269 8.81836 14.9269 9.84961 15.0415 10.2142L16.6873 9.51628C16.5311 9.04753 15.8332 7.51628 14.0415 7.18294V5.89128H11.9582V7.20378C9.37484 7.78711 9.36442 10.1829 9.36442 10.2871C9.36442 12.6517 11.7082 13.3184 12.854 13.735C14.4998 14.3184 15.229 14.8496 15.229 15.8496C15.229 17.0267 14.1353 17.5267 13.1665 17.5267C11.2707 17.5267 10.729 15.5788 10.6665 15.3496L8.93734 16.0475C9.59359 18.3288 11.3123 18.9434 11.9582 19.1309V20.4746H14.0415V19.1829C14.4582 19.0892 17.0623 18.5684 17.0623 15.8288C17.0623 14.3809 16.4269 13.11 13.9269 12.2454ZM3.62484 22.5579H1.5415V16.3079H7.7915V18.3913H5.20817C6.88525 20.9017 9.74984 22.5579 12.9998 22.5579C15.4862 22.5579 17.8708 21.5702 19.629 19.8121C21.3871 18.0539 22.3748 15.6693 22.3748 13.1829H24.4582C24.4582 19.5163 19.3332 24.6413 12.9998 24.6413C9.12484 24.6413 5.69775 22.7142 3.62484 19.7767V22.5579ZM1.5415 13.1829C1.5415 6.84961 6.6665 1.72461 12.9998 1.72461C16.8748 1.72461 20.3019 3.65169 22.3748 6.58919V3.80794H24.4582V10.0579H18.2082V7.97461H20.7915C19.1144 5.46419 16.2498 3.80794 12.9998 3.80794C10.5134 3.80794 8.12886 4.79566 6.37071 6.55382C4.61256 8.31197 3.62484 10.6965 3.62484 13.1829H1.5415Z" fill="white"/>
</svg>
