<svg width="25" height="26" viewBox="0 0 25 26" fill="none" xmlns="http://www.w3.org/2000/svg">
<path fill-rule="evenodd" clip-rule="evenodd" d="M8.73223 7.86456C8.26339 8.3334 8 8.96928 8 9.63232C8 10.2954 8.26339 10.9313 8.73223 11.4001C9.20107 11.8689 9.83696 12.1323 10.5 12.1323C11.163 12.1323 11.7989 11.8689 12.2678 11.4001C12.7366 10.9313 13 10.2954 13 9.63232C13 8.96928 12.7366 8.3334 12.2678 7.86456C11.7989 7.39572 11.163 7.13232 10.5 7.13232C9.83696 7.13232 9.20107 7.39572 8.73223 7.86456ZM9.61612 8.74844C9.85054 8.51402 10.1685 8.38232 10.5 8.38232C10.8315 8.38232 11.1495 8.51402 11.3839 8.74844C11.6183 8.98286 11.75 9.3008 11.75 9.63232C11.75 9.96384 11.6183 10.2818 11.3839 10.5162C11.1495 10.7506 10.8315 10.8823 10.5 10.8823C10.1685 10.8823 9.85054 10.7506 9.61612 10.5162C9.3817 10.2818 9.25 9.96384 9.25 9.63232C9.25 9.3008 9.3817 8.98286 9.61612 8.74844Z" fill="white"/>
<path fill-rule="evenodd" clip-rule="evenodd" d="M2.29917 3.9315C2.65081 3.57987 3.12772 3.38232 3.625 3.38232H17.375C17.8723 3.38232 18.3492 3.57987 18.7008 3.9315C19.0525 4.28313 19.25 4.76004 19.25 5.25732V9.89107C18.8414 9.77555 18.4229 9.69814 18 9.65982V8.38232H16.75C16.087 8.38232 15.4511 8.11893 14.9822 7.65009C14.5134 7.18125 14.25 6.54537 14.25 5.88232V4.63232H6.75V5.88232C6.75 6.54537 6.48661 7.18125 6.01777 7.65009C5.54893 8.11893 4.91304 8.38232 4.25 8.38232H3V10.8823H4.25C4.91304 10.8823 5.54893 11.1457 6.01777 11.6146C6.48661 12.0834 6.75 12.7193 6.75 13.3823V14.6323H10.7587C10.6431 15.0409 10.5657 15.4594 10.5275 15.8823H3.625C3.12772 15.8823 2.65081 15.6848 2.29917 15.3331C1.94754 14.9815 1.75 14.5046 1.75 14.0073V5.25732C1.75 4.76004 1.94754 4.28313 2.29917 3.9315ZM3.18306 4.81538C3.06585 4.93259 3 5.09156 3 5.25732V7.13232H4.25C4.58152 7.13232 4.89946 7.00063 5.13388 6.76621C5.3683 6.53179 5.5 6.21384 5.5 5.88232V4.63232H3.625C3.45924 4.63232 3.30027 4.69817 3.18306 4.81538ZM17.375 4.63232H15.5V5.88232C15.5 6.21384 15.6317 6.53179 15.8661 6.76621C16.1005 7.00063 16.4185 7.13232 16.75 7.13232H18V5.25732C18 5.09156 17.9342 4.93259 17.8169 4.81538C17.6997 4.69817 17.5408 4.63232 17.375 4.63232ZM3.625 14.6323H5.5V13.3823C5.5 13.0508 5.3683 12.7329 5.13388 12.4984C4.89946 12.264 4.58152 12.1323 4.25 12.1323H3V14.0073C3 14.1731 3.06585 14.3321 3.18306 14.4493C3.30027 14.5665 3.45924 14.6323 3.625 14.6323Z" fill="white"/>
<path d="M10.5275 17.1323H4.35625C4.48555 17.498 4.7251 17.8147 5.04189 18.0385C5.35867 18.2624 5.73709 18.3825 6.125 18.3823H10.7587C10.6432 17.9737 10.5658 17.5552 10.5275 17.1323Z" fill="white"/>
<path d="M21.75 11.2036V7.75732C21.7502 7.36942 21.6301 6.99099 21.4062 6.67421C21.1823 6.35743 20.8657 6.11788 20.5 5.98857V10.3823C20.9453 10.6099 21.3644 10.8852 21.75 11.2036Z" fill="white"/>
<path fill-rule="evenodd" clip-rule="evenodd" d="M23.25 16.8823C23.25 19.9199 20.7876 22.3823 17.75 22.3823C14.7124 22.3823 12.25 19.9199 12.25 16.8823C12.25 13.8448 14.7124 11.3823 17.75 11.3823C20.7876 11.3823 23.25 13.8448 23.25 16.8823ZM14.6925 16.4765C14.8099 16.3591 14.969 16.2932 15.135 16.2932H20.4383C20.5205 16.2932 20.6019 16.3094 20.6778 16.3408C20.7537 16.3723 20.8227 16.4184 20.8808 16.4765C20.9389 16.5346 20.985 16.6036 21.0165 16.6795C21.0479 16.7554 21.0641 16.8368 21.0641 16.919C21.0641 17.0012 21.0479 17.0825 21.0165 17.1585C20.985 17.2344 20.9389 17.3034 20.8808 17.3615C20.8227 17.4196 20.7537 17.4657 20.6778 17.4971C20.6019 17.5286 20.5205 17.5448 20.4383 17.5448L15.135 17.5448C14.969 17.5448 14.8099 17.4788 14.6925 17.3615C14.5751 17.2441 14.5092 17.0849 14.5092 16.919C14.5092 16.753 14.5751 16.5938 14.6925 16.4765Z" fill="white"/>
</svg>
