<svg id="Layer_4" data-name="Layer 4" xmlns="http://www.w3.org/2000/svg" viewBox="0 0 18 18"><defs><style>.cls-1{fill:#355d89;}</style></defs><title>Icon_globe_index</title><path class="cls-1" d="M6.78,15.85a7.23,7.23,0,0,1-4.37-4H5.27A9.65,9.65,0,0,0,6.78,15.85Z"/><path class="cls-1" d="M15.59,11.89a7.23,7.23,0,0,1-4.37,4,9.65,9.65,0,0,0,1.51-4Z"/><path class="cls-1" d="M15.59,6.11H12.73a9.65,9.65,0,0,0-1.51-4A7.23,7.23,0,0,1,15.59,6.11Z"/><path class="cls-1" d="M6.78,2.15a9.65,9.65,0,0,0-1.51,4H2.41A7.23,7.23,0,0,1,6.78,2.15Z"/><path class="cls-1" d="M11.72,11.89C11.21,14.53,10.06,16.2,9,16.2s-2.21-1.67-2.72-4.31Z"/><path class="cls-1" d="M11.71,6.11H6.29C6.79,3.47,7.94,1.8,9,1.8S11.21,3.47,11.71,6.11Z"/><path class="cls-1" d="M16.2,9a7,7,0,0,1-.26,1.89H12.87A16.42,16.42,0,0,0,13,9a16.42,16.42,0,0,0-.11-1.89h3.07A7,7,0,0,1,16.2,9Z"/><path class="cls-1" d="M12,9a16,16,0,0,1-.11,1.89H6.13a16.29,16.29,0,0,1,0-3.78h5.74A16.16,16.16,0,0,1,12,9Z"/><path class="cls-1" d="M5,9a16.42,16.42,0,0,0,.11,1.89H2.06a7,7,0,0,1,0-3.78H5.13A16.42,16.42,0,0,0,5,9Z"/></svg>