<svg width="21" height="21" viewBox="0 0 21 21" fill="none" xmlns="http://www.w3.org/2000/svg">
<path d="M7.02818 12.6429L7.12742 12.5678C7.2275 12.4922 7.34184 12.4375 7.46358 12.4071C7.58531 12.3767 7.71193 12.3712 7.83584 12.3909C7.95975 12.4106 8.07841 12.4552 8.18469 12.5219C8.28591 12.5854 8.37392 12.6678 8.44396 12.7645C8.58206 12.9147 8.73771 13.0478 8.90756 13.1609C9.37846 13.4735 9.93232 13.6375 10.4975 13.6318L10.5 13.6318C11.2189 13.6318 11.7458 13.3947 12.0919 13.1631L12.0923 13.1628C12.2643 13.0483 12.4217 12.9133 12.5611 12.7608L12.5732 12.7458C12.7222 12.5505 12.9424 12.4219 13.1858 12.3881C13.4307 12.3541 13.679 12.4188 13.8762 12.5679C14.0734 12.7169 14.2033 12.9383 14.2373 13.1831C14.2713 13.428 14.2067 13.6763 14.0576 13.8735L14.054 13.8782L14.054 13.8782L14.0294 13.9091L14.0277 13.9113C14.0202 13.9205 13.9984 13.9484 13.974 13.9761C13.9334 14.0223 13.8736 14.09 13.7959 14.1677L13.7952 14.1683C13.5904 14.3716 13.3661 14.5543 13.1255 14.7137C13.1255 14.7138 13.1254 14.7138 13.1254 14.7139L12.9873 14.5055C12.2505 14.9945 11.3843 15.2522 10.5 15.2455L7.02818 12.6429ZM7.02818 12.6429V12.6549M7.02818 12.6429L7.27818 12.7673M7.20479 14.1683C7.40966 14.3717 7.63401 14.5544 7.87463 14.7139C8.65239 15.23 9.56658 15.5022 10.5 15.4955L7.38091 13.9909M7.20479 14.1683L7.38091 13.9909M7.20479 14.1683C7.2048 14.1684 7.20481 14.1684 7.20481 14.1684L7.38091 13.9909M7.20479 14.1683C7.12265 14.0868 7.04499 14.0009 6.97213 13.911L6.96922 13.9074L6.96925 13.9074C6.68275 13.5402 6.68685 12.9963 7.02818 12.6549M7.38091 13.9909C7.30517 13.9157 7.23355 13.8365 7.16636 13.7536C6.93091 13.4518 6.96364 13.0045 7.27818 12.7682M7.02818 12.6549V12.7673V12.7682H7.27818M7.02818 12.6549C7.0587 12.6244 7.09191 12.5954 7.12785 12.5684C7.1279 12.5684 7.12795 12.5684 7.128 12.5683L7.16506 12.6176L7.2775 12.7673L7.27818 12.7682M7.27818 12.7682V12.7673M7.27818 12.7673C7.35142 12.7119 7.43508 12.6719 7.52415 12.6497C7.61323 12.6274 7.70588 12.6234 7.79654 12.6378C7.88721 12.6522 7.97403 12.6848 8.0518 12.7336C8.12956 12.7824 8.19667 12.8464 8.24909 12.9218C8.40344 13.0917 8.57808 13.2419 8.76909 13.3691C9.28173 13.7094 9.88472 13.888 10.5 13.8818C11.2773 13.8818 11.8518 13.6245 12.2309 13.3709L7.27818 12.7673ZM10.5 0.25C4.8392 0.25 0.25 4.8392 0.25 10.5C0.25 16.1608 4.8392 20.75 10.5 20.75C16.1608 20.75 20.75 16.1608 20.75 10.5C20.75 4.8392 16.1608 0.25 10.5 0.25ZM2.11364 10.5C2.11364 8.2758 2.9972 6.14269 4.56995 4.56995C6.14269 2.9972 8.2758 2.11364 10.5 2.11364C12.7242 2.11364 14.8573 2.9972 16.4301 4.56995C18.0028 6.14269 18.8864 8.2758 18.8864 10.5C18.8864 12.7242 18.0028 14.8573 16.4301 16.4301C14.8573 18.0028 12.7242 18.8864 10.5 18.8864C8.2758 18.8864 6.14269 18.0028 4.56995 16.4301C2.9972 14.8573 2.11364 12.7242 2.11364 10.5ZM7.61667 10.3439C7.87666 10.0839 8.02273 9.73132 8.02273 9.36364C8.02273 8.99595 7.87666 8.64332 7.61667 8.38333C7.35668 8.12333 7.00405 7.97727 6.63636 7.97727C6.26868 7.97727 5.91605 8.12333 5.65606 8.38333C5.39606 8.64332 5.25 8.99595 5.25 9.36364C5.25 9.73132 5.39606 10.0839 5.65606 10.3439C5.91605 10.6039 6.26868 10.75 6.63636 10.75C7.00405 10.75 7.35668 10.6039 7.61667 10.3439ZM14.3636 10.75C14.7313 10.75 15.084 10.6039 15.3439 10.3439C15.6039 10.0839 15.75 9.73132 15.75 9.36364C15.75 8.99595 15.6039 8.64332 15.3439 8.38333C15.084 8.12333 14.7313 7.97727 14.3636 7.97727C13.9959 7.97727 13.6433 8.12334 13.3833 8.38333C13.1233 8.64332 12.9773 8.99595 12.9773 9.36364C12.9773 9.73132 13.1233 10.0839 13.3833 10.3439C13.6433 10.6039 13.9959 10.75 14.3636 10.75Z" fill="#091F2C" stroke="#091F2C" stroke-width="0.5"/>
</svg>
