<svg width="22" height="22" viewBox="0 0 22 22" fill="none" xmlns="http://www.w3.org/2000/svg">
<path fill-rule="evenodd" clip-rule="evenodd" d="M5.41814 6.97452C5.77031 6.89676 6.13764 7.00671 6.38918 7.26515L14.8923 16.0016C15.1441 16.2603 15.244 16.6309 15.1563 16.9811C15.0687 17.3313 14.8059 17.6111 14.4619 17.7207L1.44111 21.8676C1.06479 21.9874 0.653054 21.8841 0.377855 21.6009C0.102656 21.3176 0.0113328 20.903 0.142023 20.5303L4.65973 7.64699C4.77907 7.30666 5.06597 7.05227 5.41814 6.97452ZM6.0692 9.92336L2.79918 19.2486L12.224 16.247L6.0692 9.92336Z" fill="#091F2C"/>
<path fill-rule="evenodd" clip-rule="evenodd" d="M12.9373 1.61764C13.2678 1.564 13.604 1.67252 13.8407 1.90928C14.5412 2.60978 14.9291 3.48691 14.7865 4.48578C14.6538 5.41491 14.0852 6.26292 13.3199 7.02826L10.7157 9.63242C10.3545 9.99368 9.78455 10.0396 9.3701 9.7409C8.95564 9.44217 8.819 8.88696 9.04748 8.43001L12.1725 2.18001C12.3222 1.88052 12.6068 1.67127 12.9373 1.61764ZM18.3125 9.1564C17.8181 9.1564 17.1993 9.39888 16.4449 10.1533L13.8407 12.7574C13.4339 13.1642 12.7744 13.1642 12.3676 12.7574C11.9608 12.3506 11.9608 11.6911 12.3676 11.2843L14.9718 8.68012C15.9533 7.69855 17.0708 7.07307 18.3125 7.07307C19.5543 7.07307 20.6717 7.69855 21.6532 8.68012C22.06 9.08691 22.06 9.74646 21.6532 10.1533C21.2464 10.5601 20.5869 10.5601 20.1801 10.1533C19.4257 9.39888 18.807 9.1564 18.3125 9.1564Z" fill="#091F2C"/>
<path d="M8.41667 2.64585C8.69294 2.64585 8.95789 2.53611 9.15324 2.34076C9.34859 2.14541 9.45834 1.88045 9.45834 1.60419C9.45834 1.32792 9.34859 1.06297 9.15324 0.867617C8.95789 0.672267 8.69294 0.56252 8.41667 0.56252C8.1404 0.56252 7.87545 0.672267 7.6801 0.867617C7.48475 1.06297 7.37501 1.32792 7.37501 1.60419C7.37501 1.88045 7.48475 2.14541 7.6801 2.34076C7.87545 2.53611 8.1404 2.64585 8.41667 2.64585ZM19.875 2.12502C20.1513 2.12502 20.4162 2.01527 20.6116 1.81992C20.8069 1.62457 20.9167 1.35962 20.9167 1.08335C20.9167 0.807086 20.8069 0.542134 20.6116 0.346784C20.4162 0.151434 20.1513 0.041687 19.875 0.041687C19.5987 0.041687 19.3338 0.151434 19.1384 0.346784C18.9431 0.542134 18.8333 0.807086 18.8333 1.08335C18.8333 1.35962 18.9431 1.62457 19.1384 1.81992C19.3338 2.01527 19.5987 2.12502 19.875 2.12502ZM19.875 14.1042C20.1513 14.1042 20.4162 13.9944 20.6116 13.7991C20.8069 13.6037 20.9167 13.3388 20.9167 13.0625C20.9167 12.7863 20.8069 12.5213 20.6116 12.326C20.4162 12.1306 20.1513 12.0209 19.875 12.0209C19.5987 12.0209 19.3338 12.1306 19.1384 12.326C18.9431 12.5213 18.8333 12.7863 18.8333 13.0625C18.8333 13.3388 18.9431 13.6037 19.1384 13.7991C19.3338 13.9944 19.5987 14.1042 19.875 14.1042ZM18.3125 18.7917C18.5888 18.7917 18.8537 18.6819 19.0491 18.4866C19.2444 18.2912 19.3542 18.0263 19.3542 17.75C19.3542 17.4738 19.2444 17.2088 19.0491 17.0134C18.8537 16.8181 18.5888 16.7084 18.3125 16.7084C18.0362 16.7084 17.7713 16.8181 17.5759 17.0134C17.3806 17.2088 17.2708 17.4738 17.2708 17.75C17.2708 18.0263 17.3806 18.2912 17.5759 18.4866C17.7713 18.6819 18.0362 18.7917 18.3125 18.7917Z" fill="#091F2C"/>
</svg>
